<svg width="505" height="190" fill="none" xmlns="http://www.w3.org/2000/svg"><path fill-rule="evenodd" clip-rule="evenodd" d="m0 42.832 21.042-2.643c21.041-2.644 63.125-7.931 105.208 0 42.083 7.93 84.167 29.079 126.25 29.079s84.167-21.149 126.25-23.792c42.083-2.644 84.167 13.218 105.208 21.148L505 74.554V138H0V42.832Z" fill="#212245"/><path fill-rule="evenodd" clip-rule="evenodd" d="m0 103.229 21.042-2.41c21.041-2.41 63.125-7.23 105.208 0 42.083 7.231 84.167 26.513 126.25 26.513s84.167-19.282 126.25-21.692c42.083-2.411 84.167 12.051 105.208 19.282L505 132.153V190H0v-86.771Z" fill="#2A2B56"/><circle r="11" transform="matrix(1 0 0 -1 180 34)" fill="#829EAB"/><circle r="8" transform="matrix(1 0 0 -1 158 156)" fill="url(#a)"/><circle r="8" transform="matrix(1 0 0 -1 45 8)" fill="url(#b)"/><circle r="24" transform="matrix(1 0 0 -1 435 134)" fill="url(#c)"/><defs><linearGradient id="a" x1="16" y1="7.881" x2="-7.934" y2="7.881" gradientUnits="userSpaceOnUse"><stop stop-color="#4D9BD5"/><stop offset="1" stop-color="#9ED4C5"/></linearGradient><linearGradient id="b" x1="0" y1="0" x2="34" y2="0" gradientUnits="userSpaceOnUse"><stop stop-color="#72A17F"/><stop offset="1" stop-color="#293D2E"/></linearGradient><linearGradient id="c" x1="0" y1="0" x2="102" y2="0" gradientUnits="userSpaceOnUse"><stop stop-color="#C5C0A7"/><stop offset="1" stop-color="#3D3A29"/></linearGradient></defs></svg>