<svg width="40" height="34" viewBox="0 0 40 34" fill="none" xmlns="http://www.w3.org/2000/svg">
<path d="M35.478 1.93104L35.4783 1.93102C37.1699 1.83282 38.6009 3.16242 38.6 4.85878M35.478 1.93104L37.6 4.85823M35.478 1.93104C33.7761 2.03034 31.2242 2.261 28.5657 2.79907C25.9229 3.33398 23.094 4.18814 20.8891 5.57574M35.478 1.93104L35.5362 2.92934C32.1873 3.12474 25.531 3.83598 21.4218 6.42208M38.6 4.85878L37.6 4.85823M38.6 4.85878V4.85823H37.6M38.6 4.85878V26.0848C38.6 27.638 37.38 28.9252 35.8195 29.0098L35.8194 29.0098C32.7978 29.173 26.8786 29.7677 22.8598 31.8474L22.8597 31.8474C21.6564 32.47 20.199 31.731 20.0003 30.4184M37.6 4.85823V26.0848C37.6 27.1046 36.7976 27.9553 35.7654 28.0112C32.7422 28.1746 26.6279 28.7715 22.4002 30.9592C21.7493 31.296 20.9775 30.8373 20.9775 30.1116V7.24956C20.9775 6.91781 21.1382 6.60052 21.4218 6.42208M20.0003 30.4184C20.0149 30.3206 20.0225 30.2198 20.0225 30.116V30.1116V7.24956V7.23825C20.0225 7.13917 20.0152 7.04075 20.0009 6.94378M20.0003 30.4184C19.9855 30.3207 19.9777 30.2198 19.9775 30.116C19.9775 30.1146 19.9775 30.1131 19.9775 30.1116V7.24956C19.9775 7.24579 19.9775 7.24202 19.9775 7.23825C19.9781 7.13981 19.9859 7.04133 20.0009 6.94378M20.0003 30.4184C19.8043 31.7307 18.3486 32.4734 17.1443 31.8498M20.0009 6.94378C20.0838 6.40386 20.3858 5.89247 20.8891 5.57574M20.0009 6.94378C19.9195 6.39393 19.6105 5.89058 19.1114 5.57604L19.1109 5.57577C16.9064 4.18813 14.0775 3.33413 11.4348 2.7993C8.7764 2.26131 6.2246 2.03066 4.52281 1.93105L4.52233 1.93102C2.83058 1.83282 1.40001 3.16242 1.40001 4.85823V26.0855C1.40001 27.6388 2.61958 28.9265 4.18066 29.0104M20.8891 5.57574L21.4218 6.42208M20.8891 5.57574C20.8892 5.57573 20.8892 5.57572 20.8892 5.57571L21.4218 6.42208M4.18066 29.0104L4.46438 2.92934C7.81332 3.12537 14.4697 3.83598 18.5782 6.42208C18.8624 6.60115 19.0225 6.90587 19.0225 7.23825V30.116C19.0225 30.8398 18.2531 31.2979 17.6041 30.9617M4.18066 29.0104C7.20349 29.1737 13.1256 29.769 17.1443 31.8498M4.18066 29.0104L17.6041 30.9617M4.18066 29.0104C4.18081 29.0104 4.18096 29.0104 4.18111 29.0104L4.2346 28.0119L4.18066 29.0104ZM17.1443 31.8498L17.6041 30.9617M17.1443 31.8498C17.1443 31.8497 17.1442 31.8497 17.1442 31.8497L17.6041 30.9617" stroke="#343434" stroke-width="2"/>
</svg>
