<svg width="40" height="34" viewBox="0 0 40 34" fill="none" xmlns="http://www.w3.org/2000/svg">
<path d="M38.6004 4.85878C38.6013 3.16241 37.1703 1.83282 35.4787 1.93102L35.4784 1.93104C33.7764 2.03034 31.2246 2.261 28.5661 2.79907C25.9233 3.33398 23.0943 4.18814 20.8895 5.57574C20.3862 5.89245 20.0841 6.40385 20.0013 6.94378M38.6004 4.85878L37.6004 4.85823H38.6004V4.85878ZM38.6004 4.85878V26.0848C38.6004 27.638 37.3804 28.9252 35.8199 29.0098L35.8198 29.0098C32.7981 29.173 26.879 29.7677 22.8602 31.8474L22.8601 31.8474C21.6568 32.47 20.1993 31.731 20.0007 30.4184M20.0007 30.4184C20.0153 30.3206 20.0229 30.2198 20.0229 30.116V30.1116V7.24956V7.23825C20.0229 7.13917 20.0156 7.04075 20.0013 6.94378M20.0007 30.4184C19.8047 31.7307 18.349 32.4734 17.1447 31.8498C13.1261 29.7691 7.20445 29.1737 4.18149 29.0104M20.0007 30.4184L4.18149 29.0104M20.0013 6.94378C19.9198 6.39394 19.6109 5.89058 19.1117 5.57604L19.1113 5.57577C16.9067 4.18813 14.0779 3.33413 11.4352 2.7993C8.77678 2.26131 6.22498 2.03066 4.52319 1.93105L4.52271 1.93102C2.83096 1.83282 1.40039 3.16242 1.40039 4.85823V26.0855C1.40039 27.639 2.62019 28.9268 4.18149 29.0104M20.0013 6.94378L4.18149 29.0104M4.18149 29.0104C4.18134 29.0104 4.18119 29.0104 4.18104 29.0104L4.23498 28.0119M4.18149 29.0104L17.6045 30.9617M17.6045 30.9617C18.2535 31.2979 19.0229 30.8398 19.0229 30.116V7.23825C19.0229 6.90587 18.8628 6.60115 18.5786 6.42208C14.47 3.83598 7.81371 3.12537 4.46476 2.92934C3.33907 2.86399 2.40039 3.74551 2.40039 4.85823V26.0855C2.40039 27.1058 3.20279 27.9566 4.23498 28.0119M17.6045 30.9617C13.3767 28.7727 7.25942 28.1752 4.23498 28.0119M17.6045 30.9617L4.23498 28.0119" stroke="#343434" stroke-width="2"/>
</svg>
