<svg width="257" height="182" viewBox="0 0 257 182" fill="none" xmlns="http://www.w3.org/2000/svg">
<g clip-path="url(#clip0_2062_858)">
<path opacity="0.1" d="M132.92 29.7126C116.689 32.4119 100.481 31.2548 84.8896 29.5716C69.2979 27.8885 53.7448 25.6905 37.5072 26.353C27.0619 26.7783 15.4295 28.8151 8.13622 34.7352C1.11584 40.4293 0.0219594 48.1132 0.0083143 55.0495C-0.0098791 60.2668 0.449504 65.6654 4.20644 69.8218C6.81719 72.7047 10.8357 74.7706 13.8626 77.4318C24.3943 86.6758 21.1923 101.231 14.281 113.606C11.0381 119.412 7.0719 125.122 4.86368 131.064C2.65545 137.007 2.36209 143.375 6.3146 148.221C10.2216 152.999 17.7969 155.716 25.7065 157.12C41.7485 159.971 59.6213 158.201 76.9141 155.801C115.184 150.49 153.06 142.182 190.855 133.894C204.839 130.825 218.884 127.743 232.356 123.32C239.838 120.858 247.457 117.794 252.289 113.024C258.43 106.981 258.584 98.7152 252.667 93.7754C242.738 85.494 220.264 87.3316 212.585 77.8638C208.359 72.651 210.199 65.5714 213.562 59.3178C220.774 45.9063 234.712 32.6559 232.907 19.2847C231.66 10.1079 222.152 2.51358 209.408 0.534975C196.049 -1.53763 178.893 2.39271 171.201 11.6277C163.294 21.1424 147.252 27.3311 132.92 29.7126Z" fill="#4D9BD5"/>
<path d="M114.338 23.5082H19.8008V67.3306H114.338V23.5082Z" fill="#565661"/>
<path d="M112.493 26.7313H21.9805V64.1076H112.493V26.7313Z" fill="#DFE6F5"/>
<path d="M28.3523 44.7737C27.0506 44.9294 25.7776 45.2639 24.5703 45.7675L27.0719 43.4263C27.2526 43.2359 27.4708 43.0836 27.7132 42.9787C28.118 42.8265 28.5842 42.9429 28.9981 42.8086C29.6645 42.5847 29.9965 41.7969 30.6606 41.5708C31.1154 41.4186 31.6112 41.5708 32.0887 41.5372C33.0416 41.4746 33.7966 40.7091 34.281 39.8966C34.7654 39.0841 35.0906 38.1732 35.7115 37.4569C36.5916 36.4385 37.9561 35.9461 38.9385 35.0195C39.3752 34.6077 39.7277 34.1242 40.1461 33.6922C40.9716 32.8777 42.0174 32.3137 43.1592 32.0673C44.3009 31.8209 45.4906 31.9025 46.5866 32.3023C46.8831 32.4497 47.2077 32.5344 47.5395 32.5507C47.8009 32.5198 48.0537 32.4384 48.2831 32.3112L51.3624 30.8586C53.0865 31.4028 54.7128 32.2111 56.1813 33.2535C56.4095 33.4514 56.6876 33.5851 56.9864 33.6407C57.8097 33.7056 58.1599 32.6649 58.6852 32.0382C59.4039 31.1787 60.7456 31.0444 61.8031 31.4406C62.8606 31.8367 63.6861 32.6559 64.4366 33.4773C64.78 33.8556 65.1416 34.2563 65.6328 34.4062C66.0402 34.5006 66.4654 34.4906 66.8677 34.3771C69.2445 33.8451 71.3338 32.4585 72.726 30.4893C72.9375 30.1849 73.199 29.8313 73.5742 29.8357C73.7555 29.8527 73.9293 29.9151 74.0791 30.017C75.4088 30.7768 76.6457 31.684 77.7655 32.7208C78.6161 33.5087 79.412 34.3794 80.4332 34.9389C81.4543 35.4985 82.7869 35.682 83.7625 35.0531C83.6034 35.6775 84.2174 36.2774 84.8564 36.4094C85.4955 36.5415 86.1573 36.3602 86.8077 36.2774C87.706 36.1677 88.6177 36.2416 89.4856 36.4947C90.3536 36.7477 91.1591 37.1743 91.8518 37.7479C93.3095 37.9065 94.7 38.4367 95.8858 39.2862C97.0715 40.1356 98.0115 41.2749 98.6129 42.5914C99.095 43.6859 99.7341 45.152 100.933 44.9707C101.335 44.9103 101.722 44.6462 102.117 44.7469C102.384 44.8424 102.619 45.0063 102.8 45.2214C103.828 46.2062 105.231 46.6829 106.525 47.2873C107.819 47.8916 109.129 48.7556 109.584 50.0918C108.462 50.2462 107.355 49.8008 106.238 49.615C105.122 49.4293 103.759 49.6262 103.225 50.611C103.011 51.0095 102.941 51.5175 102.565 51.7749C102.309 51.9167 102.015 51.9813 101.722 51.9607C99.1729 51.9927 96.6549 51.4102 94.3875 50.2641C92.8501 52.4648 90.5737 54.0617 87.9584 54.7742C87.8856 53.8028 86.8577 53.0955 85.8662 53.0821C84.8746 53.0686 83.9513 53.5879 83.1872 54.2012C82.443 54.8066 81.7966 55.5198 81.2701 56.3163C80.8311 56.9878 80.4673 57.7107 79.8714 58.2412C79.2756 58.7717 78.3432 59.0492 77.6587 58.6329C77.2789 58.4091 77.0355 57.995 76.6626 57.7488C75.8143 57.1915 74.518 57.5988 73.7721 56.9117C73.2331 56.4148 73.224 55.5374 72.7078 55.0181C72.0551 54.3623 70.8884 54.5817 70.1584 55.148C69.4284 55.7142 68.9417 56.5379 68.2709 57.1736C66.5311 58.8231 63.8681 58.9642 61.4483 59.0089C61.4483 58.4785 61.7849 58.0174 62.0214 57.5429C62.6923 56.1999 62.5081 54.5772 61.8918 53.2141C61.2755 51.851 60.2749 50.7118 59.2947 49.5927C58.1894 50.7521 58.6966 52.7732 57.7028 54.0333C57.3002 54.5459 56.6908 54.8704 56.27 55.3763C55.7447 55.9985 55.3354 56.9744 54.5166 56.9139C54.1164 56.8848 53.7935 56.5894 53.5228 56.2984C52.479 55.1793 51.517 53.7647 50.0001 53.4738C49.4066 53.3596 48.7926 53.4379 48.1808 53.3865C47.2011 53.2715 46.2932 52.8226 45.6145 52.1179C44.9357 51.4131 44.529 50.4967 44.4648 49.5277C43.1822 49.8702 41.8086 50.1634 40.5259 50.5059C40.1689 50.6021 39.78 50.6983 39.4343 50.5663C38.9795 50.3895 38.7521 49.8836 38.3768 49.5725C37.8242 49.1249 37.0123 49.1428 36.3164 49.2905C35.6205 49.4382 34.9133 49.6889 34.1992 49.6106C34.0516 48.9699 34.0147 48.3093 34.09 47.6566L31.5429 47.4328C31.2073 47.4226 30.8755 47.3591 30.5605 47.2447C30.3226 47.1361 30.1032 46.9919 29.9101 46.8172C29.2826 46.2229 28.7566 45.5329 28.3523 44.7737Z" fill="#4D9BD5"/>
<path d="M34.6256 43.1778C34.9395 42.8578 35.2078 42.4862 35.5831 42.24C35.9152 42.0464 36.2714 41.8959 36.6428 41.7924C39.3718 40.8456 41.5027 38.7775 43.6814 36.9063C45.6008 35.2567 47.618 33.7213 49.6329 32.1881L50.3993 32.7387L48.5595 33.4773C48.3821 33.549 48.1774 33.6564 48.1683 33.8444C48.1765 33.9641 48.2281 34.077 48.3139 34.1622C48.7869 34.7621 49.3191 35.4022 50.0718 35.5701C50.4312 35.6507 50.8655 35.6395 51.0884 35.9282C51.1772 36.0712 51.2389 36.229 51.2703 36.3938C51.5614 37.3696 52.4597 38.0389 53.3421 38.5693C55.0851 39.6133 56.9747 40.3991 58.9502 40.9016C57.4568 40.8569 55.982 40.5632 54.5883 40.0331C54.1722 39.8837 53.7734 39.6909 53.3989 39.4579C52.6053 38.9476 52.0094 38.1888 51.2385 37.6472C50.4675 37.1055 49.3668 36.8168 48.5913 37.3517C48.3798 37.4994 48.1752 37.7098 47.9091 37.6964C47.643 37.683 47.4543 37.4323 47.2268 37.2779C46.6469 36.8705 45.8373 37.1413 45.2165 37.486C43.3597 38.5265 41.8733 40.1043 40.9592 42.005C43.7353 42.1871 46.4881 41.4036 48.7369 39.7914C50.0791 41.6408 52.0286 42.9776 54.2563 43.5763C53.9288 43.9679 53.3899 44.0955 52.91 44.2791C52.2558 44.5345 51.6648 44.9247 51.1764 45.4235C50.6881 45.9222 50.3138 46.518 50.0787 47.1709C49.7075 46.6764 49.44 46.1141 49.2918 45.5168C48.554 45.9243 47.8403 46.3727 47.1541 46.8597C47.8068 46.4459 48.3433 45.8771 48.7141 45.2057C47.534 44.9229 46.2906 45.0543 45.1983 45.5772C44.4023 45.9622 43.6655 46.5621 42.7786 46.6091C42.8366 46.1398 42.7251 45.6654 42.4636 45.2689C42.2021 44.8724 41.8072 44.5791 41.3481 44.4402C40.7227 44.2679 39.9154 44.3395 39.5788 43.7911C39.502 43.6339 39.4344 43.4725 39.3764 43.3077C39.1171 42.7369 38.4303 42.4504 37.7958 42.4683C37.1613 42.4862 36.5632 42.7414 35.9765 42.9943C35.1396 43.3569 34.3095 43.7553 33.459 44.0821C33.8433 43.7598 34.2731 43.527 34.6256 43.1778Z" fill="white"/>
<path d="M49.2473 51.0273C50.3768 51.1572 51.5209 50.9783 52.5539 50.5103C53.1179 50.2529 53.6569 49.9082 54.2687 49.8052C54.8804 49.7023 55.6195 49.9418 55.8219 50.5215C56.5565 50.0022 56.6907 48.9704 57.2797 48.2944C58.1461 47.2984 59.8267 47.3611 60.9183 48.1154C62.0099 48.8697 62.6194 50.1298 63.0743 51.3519C63.4177 52.283 63.7247 53.279 64.4388 53.9706C65.1529 54.6622 66.4651 54.886 67.1314 54.1429C66.6882 53.5603 66.4196 52.8672 66.3561 52.1421C66.2926 51.417 66.4367 50.6889 66.7721 50.0403C66.9267 49.7515 67.1246 49.4606 67.1132 49.145C67.0882 48.4422 66.2035 48.1646 65.635 47.7349C64.4047 46.8082 64.5661 44.8744 63.57 43.706C63.0424 43.0861 62.1487 42.5399 62.301 41.7453C65.3302 42.3372 68.2021 43.5398 70.736 45.2773C71.1457 45.5886 71.5897 45.8536 72.0595 46.0674C72.6872 46.3158 73.3808 46.3449 74.0199 46.5598C76.1462 47.2716 77.3766 49.8903 79.6143 50.0716C80.7287 50.1611 81.7725 49.5971 82.8141 49.192C87.2419 47.4708 92.2383 48.5563 96.8162 49.8433C95.2243 48.9816 92.9751 49.1091 91.9654 47.623C91.6197 47.1149 91.4674 46.4613 90.9875 46.0719C90.046 45.3064 88.6701 46.0428 87.4534 46.1569C86.8737 46.204 86.2916 46.1009 85.7649 45.8578C85.2383 45.6147 84.7855 45.2402 84.4515 44.7714C84.124 44.2992 83.9171 43.7351 83.4873 43.3546C82.8573 42.7996 81.9272 42.7772 81.0812 42.7861L77.1128 42.8219C76.4464 42.8219 75.6959 42.7973 75.2502 42.3094C75.1042 42.0977 74.9431 41.8965 74.7681 41.7073C74.5065 41.4835 74.1427 41.4544 73.8038 41.4074C72.6972 41.2556 71.6277 40.9075 70.6473 40.38C70.4541 40.2996 70.294 40.1577 70.1924 39.9771C69.9377 39.384 70.861 39.055 71.3773 38.6588C72.2187 38.0097 72.0322 36.7317 71.7639 35.7155C72.4617 35.5682 73.1037 35.2318 73.6173 34.7441C72.6622 33.8779 71.6138 32.6962 72.0254 31.4853C72.1164 31.2189 72.1664 30.7869 71.8822 30.7937C71.4999 31.611 70.8625 32.2869 70.0628 32.723C69.8075 32.8257 69.5823 32.9896 69.4078 33.1998C69.119 33.6474 69.4192 34.3301 69.0599 34.7285C68.93 34.8553 68.7696 34.9477 68.5937 34.9971C67.3952 35.4201 65.9193 35.5074 65.1983 36.5414C64.9551 36.9623 64.7722 37.4142 64.6548 37.8844C64.2404 39.0563 63.5338 40.1071 62.5997 40.9404C61.6655 41.7737 60.5338 42.363 59.3082 42.6541C58.8943 42.7481 58.4418 42.8219 58.1507 43.1263C57.9233 43.3502 57.8459 43.6702 57.6572 43.9209C57.2797 44.4245 56.5951 44.5611 56.0016 44.7849C54.3028 45.4228 53.2589 46.8821 52.3106 48.3258C51.9103 48.9346 51.617 49.1181 50.9597 49.4024C50.5589 49.5517 50.1907 49.7751 49.875 50.0604C49.8135 50.1275 49.195 51.0206 49.2473 51.0273Z" fill="white"/>
<path d="M79.2733 38.5581C78.5219 38.9436 77.7285 39.2439 76.9082 39.4534C77.2987 39.5632 77.6732 39.7219 78.0225 39.9256C77.905 40.3897 77.6287 40.7999 77.2402 41.0873C78.1499 41.1164 79.0118 41.4454 79.8874 41.6804C81.3406 42.0676 82.8438 42.1952 84.3493 42.3228L82.3025 40.8523C82.0023 40.6284 81.6794 40.3912 81.6044 40.0331C81.5745 39.702 81.6612 39.3709 81.85 39.0953C82.3685 38.1306 82.9984 37.2487 83.5943 36.3355C82.862 36.584 81.9 36.378 81.2405 36.6802C80.8289 36.8682 80.7561 37.2666 80.5105 37.6001C80.1791 38.0095 79.7556 38.3374 79.2733 38.5581Z" fill="white"/>
<path d="M91.6575 40.8098C91.4435 41.3275 91.1352 41.8023 90.7478 42.2109C91.1124 42.5386 91.5674 42.7528 92.0555 42.8264C92.3053 42.8467 92.5536 42.8819 92.7991 42.9316C93.0839 43.0271 93.3506 43.1685 93.5882 43.3502C95.1802 44.4357 96.8926 45.6869 97.3361 47.5424C97.6238 47.3838 97.9609 47.3356 98.2826 47.4071C98.6042 47.4786 98.8876 47.6647 99.0781 47.9296C99.2737 48.2228 99.3737 48.6212 99.6989 48.7645C100.024 48.9077 100.381 48.7197 100.638 48.5026C100.895 48.2855 101.15 48.0191 101.484 47.943C101.693 47.9095 101.906 47.9163 102.112 47.9632L105.139 48.4444C104.719 48.0275 104.21 47.708 103.649 47.5094C103.088 47.3107 102.489 47.2379 101.896 47.2962C101.164 47.3745 100.399 47.6476 99.7194 47.3745C99.0394 47.1015 98.6892 46.3807 98.1525 45.8928C97.4703 45.2706 96.4855 45.0333 95.8056 44.4044C95.2393 43.8762 94.9391 43.1286 94.4251 42.5511C93.868 41.9222 93.0743 41.5148 92.5853 40.8344C92.3875 40.5591 92.2306 40.2345 91.9395 40.06C91.4278 39.7556 90.3771 39.7824 89.7949 39.7287C89.9336 40.4024 91.0025 40.9329 91.6575 40.8098Z" fill="white"/>
<path d="M39.0684 35.0441C39.5823 35.0788 40.0977 35.0878 40.6125 35.071C40.6625 35.0729 40.7121 35.0613 40.7558 35.0374C40.8006 34.9954 40.8288 34.9391 40.8354 34.8785L41.0196 34.0772C41.0274 34.0062 41.0595 33.9399 41.1106 33.8892C41.1579 33.8633 41.2111 33.8497 41.2652 33.8497C41.3193 33.8497 41.3726 33.8633 41.4199 33.8892C41.9515 34.0855 42.4504 34.3585 42.9003 34.6994C42.7063 34.122 42.5334 33.5378 42.3818 32.9469L43.7759 32.7052C42.7184 32.4567 42.184 32.582 41.5017 33.3184C41.1015 33.7415 39.6824 35.0822 39.0684 35.0441Z" fill="white"/>
<path d="M67.0695 19.8061C67.769 19.8061 68.3362 19.248 68.3362 18.5594C68.3362 17.8709 67.769 17.3127 67.0695 17.3127C66.3699 17.3127 65.8027 17.8709 65.8027 18.5594C65.8027 19.248 66.3699 19.8061 67.0695 19.8061Z" fill="#565661"/>
<path d="M58.9512 24.7146L67.07 18.5594L75.2729 24.7146" stroke="#565661" stroke-miterlimit="10"/>
<path d="M68.3691 41.2261L68.4692 41.2887L68.6784 41.2664L68.3691 41.2261Z" fill="url(#paint0_linear_2062_858)"/>
<path d="M68.6895 41.2664L70.4428 41.4902C69.882 41.2903 69.2835 41.2139 68.6895 41.2664Z" fill="url(#paint1_linear_2062_858)"/>
<path d="M137.685 103.236H73.2285V117.926H137.685V103.236Z" fill="#565661"/>
<path opacity="0.1" d="M137.685 103.236H73.2285V117.926H137.685V103.236Z" fill="black"/>
<path d="M80.9396 118.409L81.3922 157.626L75.1927 173.029L74.7129 118.409H80.9396Z" fill="#BCBEC9"/>
<path d="M73.9082 106.057L136.664 106.428V117.369H73.9082V106.057Z" fill="#565661"/>
<path d="M131.295 118.409L136.664 119.155V172.434L131.295 156.137V118.409Z" fill="#BCBEC9"/>
<path d="M168.949 103.825H138.705V167.078H168.949V103.825Z" fill="#EFEFF0"/>
<path d="M166.528 105.582H141.123V154.203H166.528V105.582Z" fill="#565661"/>
<path opacity="0.1" d="M166.528 105.582H141.123V154.203H166.528V105.582Z" fill="black"/>
<path d="M166.528 106.578H141.123V117.369H166.528V106.578Z" fill="#565661"/>
<path d="M166.528 118.409H141.123V141.329H166.528V118.409Z" fill="#565661"/>
<path d="M166.528 142.744H141.123V165.663H166.528V142.744Z" fill="#565661"/>
<path d="M142.184 171.196C143.089 171.196 143.822 170.274 143.822 169.137C143.822 168 143.089 167.078 142.184 167.078C141.28 167.078 140.547 168 140.547 169.137C140.547 170.274 141.28 171.196 142.184 171.196Z" fill="#565661"/>
<path d="M164.891 171.295C165.796 171.295 166.529 170.373 166.529 169.235C166.529 168.098 165.796 167.176 164.891 167.176C163.987 167.176 163.254 168.098 163.254 169.235C163.254 170.373 163.987 171.295 164.891 171.295Z" fill="#565661"/>
<path d="M73.0015 173.029H75.1938L74.5911 104.373H71.2617L73.0015 173.029Z" fill="#EFEFF0"/>
<path d="M136.664 103.825V172.434H138.704V104.373L136.664 103.825Z" fill="#EFEFF0"/>
<path d="M74.6973 116.697V119.155H136.664V117.369L74.6973 116.697Z" fill="#EFEFF0"/>
<path d="M78.897 99.2121H157.456L168.872 102.932V105.09L70.8828 104.347V102.151L78.897 99.2121Z" fill="#EFEFF0"/>
<path d="M70.8828 102.151L168.872 102.932V105.09L70.8828 104.347V102.151Z" fill="#BCBEC9"/>
<path d="M96.8167 122.143L96.3619 122.076C96.3619 122.056 96.3619 122.038 96.3619 122.02C96.3482 121.915 96.3323 121.812 96.3164 121.706C96.5029 121.852 96.6803 121.997 96.844 122.143H96.8167Z" fill="url(#paint2_linear_2062_858)"/>
<path d="M86.9317 156.703C87.2273 156.636 87.5275 156.58 87.8277 156.54C89.8894 156.251 91.992 156.556 93.8816 157.417C93.6905 158.801 93.5018 160.231 93.9066 161.567C94.1886 162.507 94.7549 163.358 94.8754 164.338C95.1791 164.389 95.4623 164.523 95.6932 164.724C95.9242 164.925 96.0938 165.185 96.183 165.475C96.2703 165.732 96.3141 166.001 96.3127 166.272C96.3101 166.607 96.2674 166.941 96.1853 167.266C96.1577 167.525 96.0281 167.764 95.8243 167.932C95.6204 168.099 95.3583 168.181 95.0937 168.161C93.3335 168.358 91.6074 167.675 89.97 167.006L86.7861 165.703C86.4132 165.551 86.0379 165.397 85.6809 165.209C85.0037 164.849 84.4024 164.365 83.9093 163.783C83.8078 163.68 83.7363 163.553 83.7024 163.414C83.6432 163.02 84.1117 162.785 84.4096 162.518C84.4969 162.437 84.5733 162.345 84.6371 162.245C84.9896 161.722 85.0237 160.999 85.2352 160.381C85.7355 158.915 87.2819 157.97 87.8277 156.54C87.8573 156.462 87.8846 156.383 87.9073 156.303" fill="#A26565"/>
<path opacity="0.1" d="M96.3127 166.272C96.3101 166.607 96.2674 166.941 96.1853 167.266C96.1577 167.525 96.0281 167.764 95.8243 167.932C95.6204 168.099 95.3583 168.181 95.0937 168.161C93.3335 168.358 91.6074 167.675 89.97 167.006L86.7861 165.703C86.4132 165.551 86.0379 165.397 85.6809 165.209C85.0037 164.849 84.4024 164.365 83.9093 163.783C83.8078 163.68 83.7363 163.553 83.7024 163.414C83.6432 163.02 84.1117 162.785 84.4096 162.518C84.4969 162.437 84.5733 162.345 84.6371 162.245C85.5149 162.431 86.6042 162.975 87.2751 163.185C87.9471 163.365 88.5923 163.631 89.1945 163.975C90.0314 164.504 90.6341 165.318 91.3436 165.99C92.0531 166.661 92.9696 167.272 93.9589 167.19C94.482 167.112 94.9861 166.941 95.4462 166.684L96.3127 166.272Z" fill="black"/>
<path d="M92.586 134.464C92.6452 134.667 92.6398 134.883 92.5708 135.083C92.5017 135.283 92.3721 135.458 92.1994 135.583C91.9015 135.765 91.5172 135.74 91.2215 135.937C90.8554 136.19 90.8031 136.691 90.7394 137.126C90.512 138.618 89.7592 139.973 89.1156 141.345C88.4721 142.717 87.9285 144.214 88.165 145.705C88.3265 146.716 88.8314 147.795 88.3583 148.706C88.2424 148.93 88.0695 149.129 87.9376 149.346C87.2895 150.412 87.6579 151.761 87.6329 153.001C87.6423 153.139 87.6116 153.277 87.5442 153.398C87.4448 153.512 87.3224 153.605 87.1849 153.671C86.954 153.838 86.7643 154.054 86.6301 154.303C86.4958 154.552 86.4204 154.828 86.4094 155.11C86.3902 155.673 86.4592 156.237 86.6141 156.78C86.6391 156.999 86.7375 157.203 86.8938 157.361C87.0748 157.479 87.2886 157.539 87.5055 157.532C88.9343 157.646 90.3358 157.981 91.6582 158.525C92.5201 158.879 93.357 159.322 94.2735 159.492C94.3621 159.519 94.4554 159.528 94.5477 159.519C94.64 159.509 94.7293 159.481 94.8102 159.436C94.9254 159.334 95.005 159.198 95.0376 159.049C95.3901 157.908 95.7471 156.73 95.6266 155.544C95.5743 155.034 95.4356 154.535 95.3992 154.024C95.24 152.01 96.625 150.192 97.0639 148.205C97.2617 147.31 97.2617 146.383 97.4027 145.479C97.7848 143.001 99.1721 140.778 99.7065 138.328C99.7809 137.871 99.8966 137.421 100.052 136.985C100.45 136.036 101.371 135.266 101.392 134.238C101.404 134.012 101.344 133.788 101.219 133.598C101.004 133.367 100.72 133.209 100.407 133.15C99.1653 132.817 97.9016 132.568 96.625 132.407C96.0426 132.295 95.4482 132.254 94.8557 132.287C94.0861 132.376 93.3465 132.632 92.6906 133.039C91.831 133.567 92.395 133.694 92.586 134.464Z" fill="#454B69"/>
<path opacity="0.05" d="M92.586 134.464C92.6452 134.667 92.6398 134.883 92.5708 135.083C92.5017 135.283 92.3721 135.458 92.1994 135.583C91.9015 135.765 91.5172 135.74 91.2215 135.937C90.8554 136.19 90.8031 136.691 90.7394 137.126C90.512 138.618 89.7592 139.973 89.1156 141.345C88.4721 142.717 87.9285 144.214 88.165 145.705C88.3265 146.716 88.8314 147.795 88.3583 148.706C88.2424 148.93 88.0695 149.129 87.9376 149.346C87.2895 150.412 87.6579 151.761 87.6329 153.001C87.6423 153.139 87.6116 153.277 87.5442 153.398C87.4448 153.512 87.3224 153.605 87.1849 153.671C86.954 153.838 86.7643 154.054 86.6301 154.303C86.4958 154.552 86.4204 154.828 86.4094 155.11C86.3902 155.673 86.4592 156.237 86.6141 156.78C86.6391 156.999 86.7375 157.203 86.8938 157.361C87.0748 157.479 87.2886 157.539 87.5055 157.532C88.9343 157.646 90.3358 157.981 91.6582 158.525C92.5201 158.879 93.357 159.322 94.2735 159.492C94.3621 159.519 94.4554 159.528 94.5477 159.519C94.64 159.509 94.7293 159.481 94.8102 159.436C94.9254 159.334 95.005 159.198 95.0376 159.049C95.3901 157.908 95.7471 156.73 95.6266 155.544C95.5743 155.034 95.4356 154.535 95.3992 154.024C95.24 152.01 96.625 150.192 97.0639 148.205C97.2617 147.31 97.2617 146.383 97.4027 145.479C97.7848 143.001 99.1721 140.778 99.7065 138.328C99.7809 137.871 99.8966 137.421 100.052 136.985C100.45 136.036 101.371 135.266 101.392 134.238C101.404 134.012 101.344 133.788 101.219 133.598C101.004 133.367 100.72 133.209 100.407 133.15C99.1653 132.817 97.9016 132.568 96.625 132.407C96.0426 132.295 95.4482 132.254 94.8557 132.287C94.0861 132.376 93.3465 132.632 92.6906 133.039C91.831 133.567 92.395 133.694 92.586 134.464Z" fill="black"/>
<path d="M88.1354 168.197H86.1956L84.9266 142.538L84.8379 141.078L86.4867 140.508L86.5981 142.059L88.1354 168.197Z" fill="#565661"/>
<path opacity="0.1" d="M86.5981 142.059L84.9266 142.538L84.8379 141.078L86.4867 140.508L86.5981 142.059Z" fill="black"/>
<path d="M112.475 173.624L109.276 174.005L94.5344 141.078L90.5591 140.792L83.5774 142.797L82.2197 182H79.0199L80.2798 141.365L72.6181 141.557L58.9458 175.055H56.0371L70.4167 135.906L70.9716 134.397L92.4012 133.674L97.7432 136.622L97.8114 136.792L112.475 173.624Z" fill="#565661"/>
<path opacity="0.1" d="M97.8127 136.792C93.2075 138.157 88.4272 139.648 88.4272 139.648C88.4272 139.648 84.0676 141.145 82.2209 139.648C81.9881 139.469 81.7279 139.328 81.45 139.23C81.6896 139.398 81.9483 139.538 82.2209 139.648L70.418 135.903L70.9706 134.397L92.4024 133.674L97.7445 136.622L97.8127 136.792Z" fill="black"/>
<path d="M76.0143 130.294L84.7403 128.379C84.7403 128.379 105.59 132.197 107.141 133.723C107.141 133.723 90.4621 137.063 88.6201 138.2C86.778 139.337 75.8187 140.602 76.0143 130.294Z" fill="white"/>
<path d="M72.2623 108.832C71.5801 110.961 69.7175 112.879 67.4502 112.971C67.2852 112.99 67.1182 112.96 66.9703 112.886C66.6861 112.711 66.6792 112.301 66.7952 111.99C66.9112 111.679 67.1136 111.399 67.1454 111.073C67.1522 111.006 67.1476 110.939 67.1318 110.873C67.0727 110.607 66.8521 110.37 66.5928 110.426C66.7693 110.287 66.8869 110.088 66.9227 109.868C66.9584 109.648 66.9097 109.424 66.7861 109.237C66.6832 109.123 66.5904 109 66.5087 108.87C66.3199 108.49 66.6133 108.062 66.7361 107.655C66.9885 106.759 66.3472 105.864 66.2949 104.931C66.2494 104.096 66.6792 103.31 66.7861 102.482C66.9567 101.139 66.279 99.8523 66.1994 98.5116C66.1448 97.576 66.379 96.6493 66.6406 95.7473C66.868 94.9416 67.125 94.1268 67.1409 93.2853C67.1409 92.6742 67.034 92.0699 67.0044 91.4611C66.9573 90.9046 67.06 90.3456 67.3024 89.8406C67.4598 89.5437 67.7279 89.3183 68.0506 89.2117C68.7965 88.9655 69.2854 89.3482 69.3946 90.0443C69.5765 91.2283 69.4719 92.437 69.7107 93.6255C69.9315 94.7369 70.266 95.8235 70.7091 96.8687C71.1116 97.8132 71.6005 98.7264 71.9098 99.7045C72.1427 100.511 72.3092 101.334 72.4079 102.167C72.7126 104.403 72.9514 106.703 72.2623 108.832Z" fill="#4D9BD5"/>
<path d="M124.058 163.006C123.77 163.405 123.4 163.74 122.972 163.989C122.543 164.237 122.067 164.393 121.572 164.448C120.585 164.569 119.56 164.325 118.602 164.591C118.454 164.615 118.314 164.675 118.195 164.765C118.076 164.855 117.982 164.973 117.92 165.108C117.896 165.29 117.882 165.473 117.877 165.656C117.765 166.254 116.967 166.388 116.346 166.384L113.786 166.368C113.253 166.368 112.664 166.339 112.282 165.976C112.101 165.778 111.998 165.522 111.994 165.255C111.99 164.989 112.084 164.73 112.26 164.526C112.386 164.483 112.491 164.393 112.549 164.274C112.608 164.156 112.617 164.02 112.574 163.895C112.53 163.77 112.438 163.668 112.318 163.61C112.198 163.552 112.059 163.543 111.932 163.586C111.886 163.257 111.902 162.922 111.98 162.599C111.98 161.663 112.207 160.097 112.876 159.365C113.697 158.454 115.121 157.276 116.36 157.032C116.779 156.954 117.211 156.974 117.621 157.09C118.031 157.206 118.407 157.414 118.721 157.699C119.307 158.237 119.735 159.078 120.54 159.172C120.979 159.226 121.402 159.022 121.836 158.948C122.33 158.886 122.831 158.975 123.271 159.204C123.711 159.433 124.069 159.79 124.295 160.226C124.405 160.448 124.481 160.684 124.522 160.927C124.64 161.653 124.474 162.396 124.058 163.006Z" fill="#A26565"/>
<path opacity="0.1" d="M124.058 163.006C123.771 163.405 123.4 163.74 122.972 163.989C122.544 164.237 122.067 164.393 121.573 164.448C120.586 164.569 119.56 164.325 118.602 164.591C118.454 164.615 118.314 164.675 118.195 164.765C118.076 164.855 117.982 164.973 117.92 165.108C117.897 165.29 117.882 165.473 117.877 165.656C117.766 166.254 116.967 166.388 116.347 166.384L113.786 166.368C113.254 166.368 112.665 166.339 112.283 165.976C112.101 165.778 111.998 165.522 111.994 165.255C111.99 164.989 112.084 164.73 112.26 164.526C113.738 164.466 115.191 164.526 116.665 164.226C117.263 164.108 117.852 163.951 118.457 163.868C119.767 163.685 121.161 163.841 122.364 163.295C123.367 162.847 124.086 161.936 124.511 160.92C124.634 161.647 124.472 162.392 124.058 163.006Z" fill="black"/>
<path d="M117.303 159.468C116.393 160.161 115.326 160.703 114.18 160.761C113.034 160.82 111.817 160.314 111.256 159.333C110.435 157.894 111.162 155.893 110.157 154.573C109.843 154.159 109.391 153.865 109.059 153.465C108.727 153.064 108.536 152.462 108.831 152.037C108.474 152.171 108.097 151.831 107.992 151.468C107.888 151.106 107.954 150.716 107.89 150.349C107.724 149.375 106.753 148.751 106.287 147.887C105.82 147.023 105.884 145.902 105.832 144.879C105.715 142.387 104.773 140.001 103.148 138.086C102.839 137.723 102.443 137.354 101.961 137.372C102.045 136.553 101.49 135.769 100.772 135.357C100.053 134.946 99.1979 134.807 98.3656 134.726C89.9671 133.911 81.216 136.985 73.1973 134.399C70.9663 133.681 68.8149 132.479 67.4504 130.594C66.9189 129.877 66.5387 129.062 66.3321 128.198C66.1254 127.334 66.0967 126.438 66.2474 125.563V125.531C66.5635 123.942 67.4163 123.551 68.8286 122.825C70.4589 121.977 72.163 121.274 73.9205 120.724C77.3317 119.674 81.0045 119.296 84.525 120.066C86.1692 120.428 87.7543 121.028 89.4008 121.38C90.0489 121.518 90.7016 121.617 91.3589 121.7C92.38 121.825 93.4056 121.908 94.4335 122.024C97.7203 122.397 100.957 123.113 104.09 124.162C105.256 124.551 106.423 124.997 107.426 125.702C108.221 126.269 108.893 126.987 109.403 127.813C109.913 128.64 110.251 129.558 110.396 130.514C110.492 131.172 110.494 131.857 110.639 132.495C110.777 133.031 110.96 133.555 111.185 134.061C113.128 138.79 114.716 143.653 115.936 148.61C116.005 148.978 116.133 149.333 116.316 149.662C116.607 150.125 117.107 150.436 117.4 150.9C118.083 151.992 117.425 153.516 118.03 154.653C118.24 155.047 118.588 155.358 118.797 155.752C119.474 157.028 118.467 158.579 117.303 159.468Z" fill="#454B69"/>
<path opacity="0.1" d="M105.68 133.75C106.003 133.499 106.282 133.196 106.506 132.855C106.73 132.512 106.819 132.101 106.756 131.698C106.844 132.207 106.811 132.73 106.657 133.225C106.503 133.719 106.234 134.171 105.871 134.545C105.3 135.12 104.229 135.684 103.395 135.487C103.513 134.829 105.15 134.198 105.68 133.75Z" fill="black"/>
<path opacity="0.1" d="M91.4722 122.595C91.4036 122.835 91.2753 123.054 91.099 123.233C90.9228 123.412 90.704 123.545 90.4625 123.62C89.9776 123.766 89.4698 123.824 88.9638 123.792H88.509C82.5415 123.663 76.5104 122.36 70.6817 123.602C69.9792 123.745 69.2901 123.945 68.6213 124.2C67.7693 124.53 66.9716 124.983 66.2539 125.543V125.511C66.57 123.922 67.4228 123.531 68.8351 122.805C70.464 121.964 72.1657 121.268 73.9201 120.724C77.3314 119.674 81.0042 119.296 84.5246 120.066C86.1689 120.428 87.754 121.028 89.4005 121.38C90.0486 121.518 90.7013 121.617 91.3585 121.7C91.486 121.98 91.5256 122.292 91.4722 122.595Z" fill="black"/>
<path d="M91.4714 122.275C91.4033 122.515 91.2753 122.735 91.0989 122.915C90.9226 123.094 90.7036 123.227 90.4617 123.302C89.9769 123.448 89.4689 123.506 88.963 123.472H88.5082C82.5407 123.343 76.5096 122.04 70.6809 123.282C69.9788 123.425 69.2897 123.624 68.6205 123.877C67.7283 124.228 66.8961 124.711 66.153 125.31C65.9787 124.838 65.8051 124.366 65.6323 123.893C65.423 123.329 66.0871 123.204 66.2144 122.698C66.2986 122.355 66.1553 121.966 66.0825 121.601C66.0639 121.512 66.0517 121.421 66.0462 121.33C66.0052 120.522 66.2986 120.057 66.9717 119.62C68.9685 118.322 71.4041 117.431 73.6828 116.762C74.8943 116.385 76.1457 116.146 77.4125 116.05C79.2045 115.947 80.9943 116.274 82.7386 116.688C84.8831 117.21 87.0049 117.899 88.9062 119.003C89.8408 119.544 90.7482 120.218 91.2463 121.169C91.4469 121.502 91.5263 121.892 91.4714 122.275Z" fill="#A26565"/>
<path opacity="0.1" d="M72.2623 108.832C71.58 110.961 69.7175 112.879 67.4501 112.971C67.2851 112.99 67.1181 112.96 66.9703 112.885C66.686 112.711 66.6792 112.301 66.7951 111.99C66.9111 111.679 67.1135 111.399 67.1454 111.073C67.1522 111.006 67.1475 110.938 67.1317 110.873C68.3348 109.204 69.5014 107.516 69.9631 105.54C70.0565 105.199 70.0851 104.845 70.0472 104.494C69.9858 104.091 69.7789 103.727 69.6652 103.337C69.465 102.648 69.5583 101.918 69.6151 101.204C69.8538 98.0564 69.3203 94.8984 68.0596 91.996C67.7526 91.2977 67.4023 90.5904 67.2955 89.8451C67.4529 89.5482 67.7211 89.3228 68.0437 89.2161C68.7896 88.9699 69.2786 89.3527 69.3877 90.0488C69.5696 91.2328 69.465 92.4414 69.7038 93.6299C69.9246 94.7414 70.2591 95.828 70.7022 96.8731C71.1047 97.8177 71.5937 98.7309 71.903 99.709C72.1358 100.515 72.3024 101.339 72.401 102.171C72.7126 104.403 72.9513 106.703 72.2623 108.832Z" fill="black"/>
<path opacity="0.1" d="M91.471 122.275C91.4029 122.515 91.2749 122.735 91.0985 122.915C90.9222 123.094 90.7032 123.227 90.4613 123.302C89.9765 123.448 89.4685 123.506 88.9626 123.472H88.5078C86.5652 122.203 84.2299 121.648 81.9127 121.906C81.1713 121.993 80.4299 122.163 79.6885 122.096C78.1898 121.962 76.9754 120.901 75.6405 120.222C74.1214 119.484 72.4129 119.21 70.7341 119.434C69.0554 119.658 67.4829 120.371 66.2186 121.48L66.089 121.592C66.0703 121.503 66.0581 121.412 66.0526 121.321C66.0116 120.513 66.305 120.048 66.9782 119.611C68.9749 118.313 71.4105 117.422 73.6893 116.753C74.9007 116.376 76.1521 116.137 77.4189 116.041C79.211 115.938 81.0007 116.265 82.745 116.679C84.8896 117.201 87.0114 117.89 88.9126 118.994C89.8473 119.535 90.7547 120.209 91.2527 121.16C91.453 121.496 91.5301 121.89 91.471 122.275Z" fill="black"/>
<path d="M96.5738 97.7573L96.542 97.8378C96.0325 99.1382 95.0956 100.237 94.4952 101.504C93.7379 103.109 93.5514 104.908 93.3831 106.672C93.2376 108.183 93.0943 109.703 93.2103 111.218C93.5014 114.951 95.3548 118.492 95.8506 122.154C95.9728 123 96.004 123.856 95.9438 124.708C95.9029 125.247 95.8028 125.827 95.439 126.225C95.0751 126.624 94.3678 126.78 93.9767 126.398C94.1518 126.069 94.3292 125.742 94.5066 125.413C93.4673 124.618 91.9026 125.189 90.6882 124.692C90.1538 124.468 89.7263 124.065 89.2782 123.705C88.2557 122.887 87.0774 122.278 85.8124 121.915C84.5475 121.551 83.2214 121.44 81.9122 121.588C81.1708 121.677 80.4294 121.847 79.688 121.78C78.1894 121.644 76.975 120.585 75.64 119.907C74.121 119.169 72.4128 118.894 70.7341 119.118C69.0555 119.342 67.483 120.054 66.2181 121.163C65.8997 121.453 65.4722 121.794 65.081 121.61C64.9298 121.519 64.8077 121.388 64.7285 121.232C63.2389 118.727 64.3351 115.498 65.927 113.058C67.5189 110.618 69.6271 108.369 70.2821 105.549C70.3766 105.208 70.4052 104.854 70.3662 104.503C70.3048 104.1 70.0978 103.736 69.9841 103.346C69.784 102.657 69.8773 101.927 69.9341 101.213C70.1728 98.0654 69.6393 94.9073 68.3786 92.005C68.0147 91.1701 67.5826 90.3241 67.5826 89.4176C67.5826 87.9896 68.6219 86.8056 69.4815 85.6574C70.4708 84.3368 71.3009 82.8752 72.554 81.7897C73.7411 80.7578 75.4604 80.1267 76.9295 80.6504C79.4261 80.0562 81.9956 79.8121 84.5616 79.9252C85.4485 79.9655 86.365 80.0573 87.1428 80.4803C87.9751 80.928 88.5732 81.7248 89.392 82.2015C89.9901 82.5529 90.6791 82.7185 91.3295 82.9648C93.1267 83.6568 94.6094 84.9643 95.5049 86.6466C96.4146 88.3813 96.642 90.3756 96.8422 92.3183C97.0377 94.1336 97.2197 96.0361 96.5738 97.7573Z" fill="#4D9BD5"/>
<path opacity="0.1" d="M93.2084 111.218C93.4995 114.951 95.3529 118.492 95.8487 122.154C94.8572 121.321 93.4813 120.498 93.2925 119.538C93.0879 118.499 92.4329 117.138 92.3237 116.088C92.2146 115.039 92.9628 113.756 92.1782 113.035C91.7961 112.684 92.8127 112.783 92.4397 112.422C91.6006 111.619 91.3936 110.381 91.3413 109.233C91.2526 107.2 91.5141 105.146 91.1343 103.147C90.9069 101.914 90.4316 100.739 90.0518 99.5411C89.6107 98.1467 89.2923 96.7187 88.9739 95.2885C88.6605 94.0169 88.4326 92.7264 88.2916 91.4253C88.1938 90.3062 88.2393 89.1199 88.7465 88.0993C89.2536 87.0786 90.2793 86.2505 91.43 86.2661C95.2779 86.3154 94.6138 91.4499 95.4598 93.8224C95.7987 94.767 96.2558 95.6802 96.44 96.665C96.5072 97.0511 96.5437 97.4417 96.5491 97.8334C96.0397 99.1338 95.1028 100.233 94.5024 101.5C93.7451 103.104 93.5586 104.904 93.3903 106.668C93.2357 108.183 93.0924 109.703 93.2084 111.218Z" fill="black"/>
<path d="M95.7105 93.7642C96.0494 94.7087 96.5065 95.6219 96.6907 96.6068C96.9977 98.2563 96.5224 100.009 97.0386 101.607C97.173 101.948 97.2854 102.297 97.3752 102.652C97.4639 103.16 97.3616 103.68 97.3616 104.197C97.3616 105.029 97.6277 105.835 97.8642 106.634C98.6639 109.349 99.1932 112.134 99.4447 114.949C99.4823 115.706 99.6035 116.456 99.8063 117.187C99.9018 117.435 99.9838 117.688 100.052 117.944C100.113 118.286 100.128 118.634 100.095 118.98C100.034 120.077 99.9086 121.178 100.034 122.27C100.159 123.363 100.564 124.471 101.398 125.202C100.652 125.361 99.8632 125.52 99.1354 125.285C98.1121 124.956 97.498 123.942 96.9772 123.02C96.3177 121.843 93.8116 120.782 93.5523 119.459C93.3499 118.423 92.695 117.062 92.5858 116.01C92.4766 114.958 93.2226 113.68 92.438 112.959C92.0582 112.608 93.0748 112.704 92.6995 112.346C91.8626 111.543 91.6557 110.305 91.6034 109.154C91.5147 107.124 91.7739 105.07 91.3964 103.071C91.169 101.838 90.6937 100.662 90.3139 99.4628C89.8727 98.0706 89.5543 96.6426 89.236 95.2101C88.9217 93.9387 88.6938 92.6481 88.5537 91.3469C88.4559 90.2278 88.4991 89.0393 89.0085 88.0186C89.518 86.998 90.5436 86.1721 91.6921 86.1855C95.524 86.2549 94.8645 91.3917 95.7105 93.7642Z" fill="#4D9BD5"/>
<path opacity="0.1" d="M84.7444 94.6393C85.1037 95.0534 85.5653 95.5078 86.1089 95.4272C86.0676 95.4916 86.0023 95.5375 85.9271 95.555C85.8518 95.5726 85.7726 95.5605 85.7063 95.5212C85.5759 95.4361 85.4713 95.3178 85.4039 95.1788L84.6261 93.8873C84.5238 93.7194 83.8188 92.7413 83.6459 93.3054C83.5777 93.5448 84.5693 94.4379 84.7444 94.6393Z" fill="black"/>
<path opacity="0.1" d="M84.3263 97.8602C84.304 97.4382 84.1232 97.0394 83.8192 96.7411C83.5458 96.4971 83.2268 96.3078 82.8799 96.1838C82.0271 95.8391 81.0174 95.5615 80.0918 95.6063C80.4284 96.0898 81.5086 96.3785 82.0499 96.6516C82.817 97.041 83.5758 97.4439 84.3263 97.8602Z" fill="black"/>
<path opacity="0.1" d="M86.7482 107.028C86.5912 108.174 85.6384 109.042 84.6741 109.714C83.7099 110.385 82.6273 110.963 81.9974 111.934C81.5608 112.606 81.3652 113.385 80.9945 114.085C80.5851 114.857 79.9734 115.506 79.4844 116.232C78.9955 116.957 78.6134 117.823 78.7635 118.683C78.7657 118.722 78.7761 118.761 78.7941 118.796C78.8121 118.832 78.8373 118.863 78.8681 118.888C78.915 118.908 78.9661 118.915 79.0167 118.91C79.0673 118.904 79.1155 118.886 79.157 118.857C80.1485 118.347 80.5397 117.181 80.9558 116.171C81.3927 115.152 81.8847 114.157 82.4295 113.19C82.6751 112.742 82.9457 112.254 83.4028 112.006C83.7158 111.878 84.0363 111.768 84.3625 111.677C84.8253 111.468 85.2313 111.154 85.5474 110.761C86.7889 109.304 87.4371 107.445 87.3667 105.544C87.3531 105.143 87.3303 103.214 86.7186 103.809C86.1068 104.405 86.8528 106.249 86.7482 107.028Z" fill="black"/>
<path d="M88.2468 63.0758C90.2026 63.9151 91.8855 65.7617 91.8241 67.8544C91.7718 70.0524 89.9024 72.1227 90.546 74.2289C90.919 75.451 92.0424 76.2702 92.9316 77.1991C96.3179 80.7265 96.311 86.8839 92.9134 90.4047C91.6126 91.7476 89.9411 92.7033 88.5652 93.9858C83.7144 98.4847 83.5074 106.267 86.1045 112.308C84.1147 112.732 82.0864 112.957 80.0507 112.98C79.0978 112.991 77.9312 112.821 77.5855 111.945C77.2671 111.137 77.8129 110.045 77.1852 109.448C76.8896 109.168 76.4461 109.13 76.0481 109.065C73.4874 108.657 71.3861 106.645 70.4264 104.275C69.4667 101.905 69.5167 99.2367 70.0671 96.7433C70.4582 94.9416 71.07 92.9585 70.1626 91.347C69.0255 89.3191 65.7552 88.4641 65.8053 86.1453C65.8462 84.245 68.1226 83.3206 69.4144 81.9083C71.7977 79.3075 70.6629 75.2719 70.6583 71.7669C70.6583 68.6826 71.7545 65.4998 74.0878 63.4451C77.5582 60.363 84.242 61.3635 88.2468 63.0758Z" fill="#A26565"/>
<g opacity="0.1">
<path opacity="0.1" d="M70.5362 89.0483C69.5378 87.2756 66.9157 86.3982 66.3062 84.6546C66.0013 85.0615 65.83 85.5504 65.815 86.0557C65.765 88.3746 69.0307 89.2296 70.1723 91.2596C70.5472 91.9783 70.7051 92.7877 70.6272 93.5919C70.9865 92.0341 71.3026 90.4091 70.5362 89.0483Z" fill="black"/>
<path opacity="0.1" d="M90.8083 71.3595C91.2177 70.1844 91.8112 68.9981 91.8408 67.7783C91.8449 67.6461 91.8411 67.5139 91.8294 67.3821C91.3723 68.7228 90.6719 70.0367 90.8083 71.3595Z" fill="black"/>
<path opacity="0.1" d="M70.9275 77.6198C71.7099 75.1868 71.0344 72.1697 71.0322 69.4704C71.0322 69.1436 71.0458 68.8146 71.0708 68.4878C70.8014 69.531 70.6654 70.6032 70.666 71.6795C70.6706 73.6066 71.014 75.6972 70.9275 77.6198Z" fill="black"/>
<path opacity="0.1" d="M93.2947 88.1149C91.9939 89.4579 90.3224 90.4136 88.9465 91.6961C86.4904 93.9724 85.2282 97.0903 84.9121 100.396C85.4988 97.9341 86.6837 95.6667 88.5826 93.9052C89.9471 92.6294 91.63 91.6782 92.9309 90.3241C94.4782 88.6644 95.3768 86.5181 95.4666 84.2674C95.0738 85.7057 94.328 87.0269 93.2947 88.1149Z" fill="black"/>
<path opacity="0.1" d="M80.4319 110.683C79.479 110.683 78.3124 110.522 77.9667 109.647C77.6483 108.841 78.1941 107.749 77.5664 107.149C77.2708 106.869 76.8251 106.831 76.4294 106.766C73.8709 106.361 71.7696 104.347 70.8099 101.979C70.1026 100.228 69.9502 98.319 70.1276 96.4344C70.1094 96.5083 70.0935 96.5822 70.0776 96.6583C69.5363 99.1517 69.4795 101.822 70.4369 104.192C71.3943 106.562 73.498 108.575 76.0564 108.98C76.4612 109.045 76.9069 109.085 77.1935 109.363C77.828 109.962 77.2754 111.055 77.5937 111.86C77.9394 112.736 79.1061 112.908 80.0589 112.897C82.0947 112.874 84.1229 112.649 86.1128 112.225C85.8321 111.572 85.5869 110.905 85.3782 110.226C83.745 110.512 82.0906 110.665 80.4319 110.683Z" fill="black"/>
</g>
<path opacity="0.1" d="M87.8794 100.922C88.4412 101.338 89.0506 99.7515 88.7027 99.3553C88.6095 99.4583 87.793 100.864 87.8794 100.922Z" fill="black"/>
<path opacity="0.1" d="M90.2734 129.648C90.9352 129.424 91.6379 129.2 92.07 128.663C92.4271 128.231 92.7205 126.516 91.9654 127.338C91.3241 128.038 91.0216 128.972 90.2734 129.648Z" fill="black"/>
<path opacity="0.1" d="M97.0113 127.85C96.9317 128.379 96.7839 128.927 96.4041 129.307C96.3336 129.379 96.1767 129.424 96.1562 129.328C96.5805 129.105 96.9747 128.832 97.3297 128.513C98.0984 127.763 98.203 125.917 97.0318 125.426C97.0204 126.237 97.1364 127.036 97.0113 127.85Z" fill="black"/>
<path d="M105.101 124.522C105.101 124.522 98.6474 122.026 96.3141 122.284C93.9808 122.541 98.9567 126.16 98.9567 126.16L101.931 128.135C101.931 128.135 103.751 127.463 103.871 127.412C103.992 127.36 105.101 124.522 105.101 124.522Z" fill="#454B69"/>
<path d="M60.6934 97.7483C60.6934 97.7483 65.5419 94.9818 71.9414 98.4198C78.341 101.858 79.4076 122.089 79.4076 122.089C79.4076 122.089 76.79 142.703 86.8828 138.119C86.8828 138.119 105.304 132.49 107.148 133.73C107.148 133.73 108.895 133.73 105.404 134.493C101.913 135.257 88.4338 139.456 88.4338 139.456C88.4338 139.456 84.0742 140.955 82.2275 139.456C80.3809 137.956 75.148 139.648 74.468 129.339C74.018 122.842 73.2088 116.375 72.0438 109.965L70.2449 104.716L60.6934 97.7483Z" fill="#565661"/>
<path d="M60.1107 129.625C60.1107 129.625 62.2439 108.725 58.7462 101.184C55.7033 94.6125 67.4699 97.6856 70.5401 98.5809C71.0152 98.7207 71.4296 99.0121 71.7181 99.4091C73.5374 101.927 80.0643 112.019 78.1403 125.523C78.1403 125.523 77.3648 137.549 82.2134 139.456L67.2743 134.72C66.0622 134.335 64.8319 134.014 63.5902 133.737C62.0073 133.383 59.4284 132.378 60.1107 129.625Z" fill="white"/>
<path d="M151.665 92.2333C151.665 92.2333 150.621 97.0186 155.267 97.5849L155.556 97.0544C155.556 97.0544 151.954 93.7217 151.665 92.2333Z" fill="#4D9BD5"/>
<path d="M157.031 97.0164L155.951 97.2402L155.844 97.2648C155.844 97.2648 152.96 94.9617 152.996 89.8204C153.38 90.577 153.837 91.2951 154.361 91.9647C155.516 93.462 156.815 95.4384 157.031 97.0164Z" fill="#4D9BD5"/>
<path d="M157.399 97.511C157.313 97.5652 157.217 97.6 157.116 97.6127C157.015 97.6255 156.913 97.616 156.816 97.5849C154.042 96.947 154.981 88.0522 154.981 88.0522C155.134 88.1216 155.302 89.2519 155.939 90.7135C157.06 93.2808 158.292 96.8664 157.399 97.511Z" fill="#4D9BD5"/>
<path d="M163.55 92.2333C163.55 92.2333 163.73 97.0186 159.083 97.5849L158.797 97.0544C158.797 97.0544 163.261 93.7217 163.55 92.2333Z" fill="#4D9BD5"/>
<path d="M162.217 89.8227C162.253 94.9639 158.519 97.2671 158.519 97.2671L158.412 97.2424L157.332 97.0186C157.546 95.4407 158.847 93.4553 159.986 91.9692C160.629 91.1589 161.379 90.437 162.217 89.8227Z" fill="#4D9BD5"/>
<path d="M158.383 97.0432C158.216 97.2429 158.004 97.4021 157.764 97.5088C157.691 97.5412 157.615 97.566 157.537 97.5826C156.855 97.7393 156.627 97.2559 156.655 96.4322C156.718 94.9661 157.655 92.4257 158.494 90.5255C159.099 89.1557 160.086 88.1171 160.236 88.05C160.236 88.0522 160.195 94.9773 158.383 97.0432Z" fill="#4D9BD5"/>
<path d="M157.61 84.9321C157.61 84.9321 154.512 95.7428 157.178 97.3722C159.843 99.0017 158.292 85.8879 157.61 84.9321Z" fill="#4D9BD5"/>
<path opacity="0.1" d="M151.665 92.2333C151.665 92.2333 150.621 97.0186 155.267 97.5849L155.556 97.0544C155.556 97.0544 151.954 93.7217 151.665 92.2333Z" fill="black"/>
<path opacity="0.1" d="M157.031 97.0164L155.951 97.2402L155.844 97.2648C155.844 97.2648 152.96 94.9617 152.996 89.8204C153.38 90.577 153.837 91.2951 154.361 91.9647C155.516 93.462 156.815 95.4384 157.031 97.0164Z" fill="black"/>
<path opacity="0.1" d="M157.399 97.511C157.313 97.5652 157.217 97.6 157.116 97.6127C157.015 97.6255 156.913 97.616 156.816 97.5849C154.042 96.947 154.981 88.0522 154.981 88.0522C155.134 88.1216 155.302 89.2519 155.939 90.7135C157.06 93.2808 158.292 96.8664 157.399 97.511Z" fill="black"/>
<path opacity="0.1" d="M163.55 92.2333C163.55 92.2333 163.73 97.0186 159.083 97.5849L158.797 97.0544C158.797 97.0544 163.261 93.7217 163.55 92.2333Z" fill="black"/>
<path opacity="0.1" d="M162.217 89.8227C162.253 94.9639 158.519 97.2671 158.519 97.2671L158.412 97.2424L157.332 97.0186C157.546 95.4407 158.847 93.4553 159.986 91.9692C160.629 91.1589 161.379 90.437 162.217 89.8227Z" fill="black"/>
<path opacity="0.1" d="M158.383 97.0432C158.216 97.2429 158.004 97.4021 157.764 97.5088C157.691 97.5412 157.615 97.566 157.537 97.5826C156.855 97.7393 156.627 97.2559 156.655 96.4322C156.718 94.9661 157.655 92.4257 158.494 90.5255C159.099 89.1557 160.086 88.1171 160.236 88.05C160.236 88.0522 160.195 94.9773 158.383 97.0432Z" fill="black"/>
<path opacity="0.1" d="M157.61 84.9321C157.61 84.9321 154.512 95.7428 157.178 97.3722C159.843 99.0017 158.292 85.8879 157.61 84.9321Z" fill="black"/>
<path d="M151.665 92.2333C151.665 92.2333 151.053 97.0186 155.7 97.5849L155.988 97.0544C155.988 97.0544 151.954 93.7217 151.665 92.2333Z" fill="#4D9BD5"/>
<path d="M157.465 97.0164L156.385 97.2402L156.278 97.2648C156.278 97.2648 152.962 94.9617 152.998 89.8204C152.998 89.8204 153.849 90.7157 154.806 91.9647C155.95 93.462 157.249 95.4384 157.465 97.0164Z" fill="#4D9BD5"/>
<path opacity="0.1" d="M157.463 97.0164L156.383 97.2402C155.36 96.3561 154.953 94.0462 154.805 91.9647C155.949 93.462 157.247 95.4384 157.463 97.0164Z" fill="black"/>
<path d="M157.837 97.511C157.751 97.5652 157.655 97.6 157.554 97.6127C157.453 97.6255 157.351 97.616 157.255 97.5849C154.48 96.947 154.98 88.0522 154.98 88.0522C155.133 88.1216 155.733 89.2519 156.37 90.7135C157.491 93.2808 158.719 96.8664 157.837 97.511Z" fill="#4D9BD5"/>
<path d="M163.549 92.2333C163.549 92.2333 164.161 97.0186 159.515 97.5849L159.229 97.0544C159.229 97.0544 163.261 93.7217 163.549 92.2333Z" fill="#4D9BD5"/>
<path d="M162.216 89.8227C162.253 94.9706 158.939 97.2671 158.939 97.2671L158.832 97.2424L157.752 97.0186C157.966 95.4407 159.267 93.4553 160.406 91.9692C161.368 90.718 162.216 89.8227 162.216 89.8227Z" fill="#4D9BD5"/>
<path opacity="0.1" d="M160.406 91.9669C160.268 93.9075 159.908 96.045 159.042 97.0455C158.98 97.1155 158.914 97.1813 158.844 97.2425L157.764 97.0186C157.966 95.4384 159.267 93.4621 160.406 91.9669Z" fill="black"/>
<path d="M158.814 97.0432C158.647 97.2429 158.435 97.4021 158.196 97.5088C158.123 97.5412 158.047 97.566 157.968 97.5826C157.286 97.7393 157.047 97.2559 157.086 96.4322C157.15 94.9661 158.087 92.4257 158.926 90.5255C159.531 89.1557 160.09 88.1171 160.236 88.05C160.236 88.0522 160.627 94.9773 158.814 97.0432Z" fill="#4D9BD5"/>
<path opacity="0.1" d="M157.836 97.511C157.679 97.5105 157.525 97.462 157.397 97.3723C156.092 96.5732 156.067 93.5673 156.376 90.7135C157.49 93.2808 158.718 96.8664 157.836 97.511Z" fill="black"/>
<path opacity="0.1" d="M158.814 97.0433C158.664 97.3611 158.461 97.5312 158.195 97.5088C158.063 97.4905 157.936 97.4431 157.825 97.37C157.486 97.1407 157.228 96.8128 157.088 96.4322C157.152 94.9662 158.089 92.4258 158.928 90.5255C159.226 93.1666 159.326 95.9622 158.814 97.0433Z" fill="black"/>
<path d="M157.61 84.9321C157.61 84.9321 154.945 95.7428 157.61 97.3722C160.276 99.0017 158.293 85.8879 157.61 84.9321Z" fill="#4D9BD5"/>
<path d="M161.787 97.905L161.601 98.8607L160.923 102.37H154.474L153.796 98.8607L153.609 97.905H161.787Z" fill="#565661"/>
<path opacity="0.1" d="M161.787 97.905L161.601 98.8607H153.796L153.609 97.905H161.787Z" fill="black"/>
<path d="M163.154 96.8418H152.062V98.6503H163.154V96.8418Z" fill="#565661"/>
<path d="M125.71 100.313L119.631 100.795L110.969 100.239L111.119 100.226L119.142 99.465C120.98 98.7935 119.706 94.8878 119.706 94.8878L125.846 95.1967L126.335 95.2213C128.521 100.239 125.71 100.313 125.71 100.313Z" fill="#D1D9EC"/>
<path opacity="0.1" d="M125.71 100.313L119.631 100.795L110.969 100.239L111.119 100.226L119.874 100.535L125.742 99.9082C127.407 99.4762 126.454 96.6314 125.853 95.1967L126.342 95.2213C128.521 100.239 125.71 100.313 125.71 100.313Z" fill="black"/>
<path d="M136.345 64.7701L134.487 91L134.244 94.4447C134.217 94.8239 134.044 95.1786 133.76 95.4368C133.477 95.695 133.104 95.8373 132.718 95.8346H132.154L104.182 95.6667C104.073 95.666 103.965 95.6429 103.865 95.5989C103.766 95.5549 103.677 95.4909 103.604 95.4111C103.531 95.3312 103.475 95.2373 103.441 95.1353C103.407 95.0332 103.395 94.9253 103.406 94.8184L103.647 92.4929L105.614 73.4545C105.646 73.1533 105.764 72.867 105.954 72.6292C106.145 72.3914 106.4 72.2119 106.69 72.1115L133.35 63.0265C134.26 62.7177 135.17 62.8273 135.759 63.2996C135.972 63.4783 136.137 63.7059 136.239 63.9625C136.342 64.219 136.378 64.4964 136.345 64.7701Z" fill="#4C4C56"/>
<path d="M134.487 91L134.244 94.4447C134.217 94.8238 134.044 95.1786 133.76 95.4368C133.477 95.695 133.104 95.8373 132.718 95.8346H132.154L104.182 95.6667C104.073 95.666 103.965 95.6429 103.865 95.5989C103.766 95.5548 103.677 95.4909 103.604 95.411C103.531 95.3312 103.475 95.2373 103.441 95.1352C103.407 95.0332 103.395 94.9253 103.406 94.8184L103.647 92.4929L134.487 91Z" fill="#DFE6F5"/>
<path d="M115.735 94.5946C115.942 94.5946 116.11 94.2639 116.11 93.856C116.11 93.4481 115.942 93.1174 115.735 93.1174C115.527 93.1174 115.359 93.4481 115.359 93.856C115.359 94.2639 115.527 94.5946 115.735 94.5946Z" fill="white"/>
<path d="M129.428 101.177C129.428 101.177 137.078 98.3347 139.141 100.403C139.141 100.403 139.477 101.03 138.09 101.177L132.484 101.625C132.484 101.625 130.178 101.842 129.428 101.177Z" fill="#D1D9EC"/>
<path d="M129.637 100.439C131.14 99.8343 135.664 98.2698 138.559 99.991C138.559 99.991 135.354 99.6418 133.597 100.642C131.839 101.643 129.433 101.168 129.433 101.168L129.398 101.106C129.366 101.047 129.347 100.982 129.341 100.916C129.336 100.85 129.345 100.783 129.367 100.72C129.39 100.657 129.426 100.6 129.472 100.551C129.518 100.503 129.575 100.464 129.637 100.439Z" fill="#DFE6F5"/>
<path d="M136.346 64.7701L134.244 94.4491C134.217 94.8283 134.044 95.1831 133.761 95.4413C133.477 95.6995 133.105 95.8417 132.718 95.8391H132.154C132.542 95.4749 132.871 95.0554 133.132 94.5946C133.132 94.5946 135.195 64.7768 135.345 64.0382C135.412 63.7616 135.556 63.5089 135.761 63.3085C135.973 63.4865 136.136 63.7129 136.238 63.9677C136.34 64.2225 136.377 64.498 136.346 64.7701Z" fill="#DFE6F5"/>
<path opacity="0.1" d="M136.346 64.7701L134.244 94.4491C134.217 94.8283 134.044 95.1831 133.761 95.4413C133.477 95.6995 133.105 95.8417 132.718 95.8391H132.154C132.542 95.4749 132.871 95.0554 133.132 94.5946C133.132 94.5946 135.195 64.7768 135.345 64.0382C135.412 63.7616 135.556 63.5089 135.761 63.3085C135.973 63.4865 136.136 63.7129 136.238 63.9677C136.34 64.2225 136.377 64.498 136.346 64.7701Z" fill="black"/>
<path opacity="0.1" d="M33.8783 166.91C46.1167 166.91 56.0379 165.342 56.0379 163.407C56.0379 161.472 46.1167 159.904 33.8783 159.904C21.6399 159.904 11.7188 161.472 11.7188 163.407C11.7188 165.342 21.6399 166.91 33.8783 166.91Z" fill="#4D9BD5"/>
<path d="M34.59 96.3024H33.1641V127.9H34.59V96.3024Z" fill="#535461"/>
<path d="M43.5535 127.803L43.4648 129.227L43.3374 131.241L43.2851 132.078L43.16 134.093L43.1054 134.93L42.9781 136.944L41.5408 159.79C41.4783 160.773 41.0377 161.696 40.3084 162.37C39.5792 163.044 38.6163 163.42 37.6156 163.42H30.1404C29.1402 163.42 28.1777 163.044 27.4493 162.37C26.7208 161.695 26.2811 160.773 26.2197 159.79L24.7779 136.929L24.6528 134.914L24.6005 134.077L24.4709 132.063L24.4186 131.226L24.2935 129.211L24.2025 127.788C24.1868 127.515 24.2276 127.242 24.3225 126.985C24.4175 126.728 24.5645 126.493 24.7547 126.294C24.9449 126.095 25.1743 125.936 25.4289 125.827C25.6835 125.717 25.9579 125.661 26.2356 125.659H41.5226C41.8015 125.661 42.0772 125.718 42.3326 125.829C42.5881 125.939 42.818 126.099 43.0081 126.3C43.1983 126.501 43.3448 126.738 43.4386 126.996C43.5323 127.255 43.5714 127.529 43.5535 127.803Z" fill="#565661"/>
<path d="M43.4643 129.227L43.3369 131.235H24.4203L24.293 129.227H43.4643Z" fill="#9D9CB5"/>
<path d="M43.2846 132.074L43.1596 134.084H24.6L24.4727 132.074H43.2846Z" fill="#9D9CB5"/>
<path d="M43.105 134.921L42.9776 136.929H24.7774L24.6523 134.921H43.105Z" fill="#9D9CB5"/>
<path d="M22.1144 108.145C30.4197 114.058 33.8787 123.307 33.8787 123.307C33.8787 123.307 23.8723 122.969 15.5648 117.055C7.25721 111.142 3.80273 101.896 3.80273 101.896C3.80273 101.896 13.8114 102.234 22.1144 108.145Z" fill="#4D9BD5"/>
<path d="M3.80273 101.896C3.80273 101.896 14.1889 107.563 17.5206 112.263C20.8522 116.964 33.8764 123.302 33.8764 123.302" stroke="#535461" stroke-width="2" stroke-miterlimit="10"/>
<path d="M27.4736 96.233C31.9947 99.4493 33.8777 104.485 33.8777 104.485C33.8777 104.485 28.4197 104.3 23.91 101.083C19.4003 97.8669 17.5195 92.8309 17.5195 92.8309C17.5195 92.8309 22.9548 93.0144 27.4736 96.233Z" fill="#4D9BD5"/>
<path d="M17.5195 92.8309C17.5195 92.8309 23.1731 95.9196 24.9856 98.4757C26.7982 101.032 33.889 104.485 33.889 104.485" stroke="#535461" stroke-width="2" stroke-miterlimit="10"/>
<path d="M40.4466 104.228C35.2592 109.844 34.1562 117.187 34.1562 117.187C34.1562 117.187 41.4768 115.419 46.6642 109.801C51.8516 104.183 52.9546 96.8463 52.9546 96.8463C52.9546 96.8463 45.6386 98.61 40.4466 104.228Z" fill="#4D9BD5"/>
<path d="M52.9591 96.844C52.9591 96.844 46.1957 102.601 44.4765 106.567C42.7572 110.533 34.1562 117.187 34.1562 117.187" stroke="#535461" stroke-width="2" stroke-miterlimit="10"/>
<g opacity="0.87">
<path opacity="0.87" d="M186.232 35.147C185.359 34.2718 184.435 33.2982 184.263 32.0313C184.128 31.051 184.49 30.0595 184.981 29.2224C185.472 28.3853 186.118 27.6556 186.662 26.8498C187.344 25.8135 187.863 24.6474 188.636 23.6805C189.83 22.1876 191.57 21.2878 193.357 20.829C195.145 20.3701 196.996 20.3142 198.838 20.2605C200.311 20.2179 201.81 20.1799 203.234 20.585C204.275 20.8804 205.246 21.4064 206.204 21.9279C207.548 22.6643 208.908 23.4253 209.993 24.5489C211.062 25.6701 211.806 27.0528 212.149 28.5531C212.535 30.2027 212.424 32.0269 211.628 33.4996C211.272 34.1099 210.859 34.6855 210.393 35.2186L208.992 36.9219C208.7 37.3127 208.352 37.6602 207.959 37.9537C207.458 38.2487 206.904 38.4448 206.327 38.5312C202.403 39.3509 198.403 39.7694 194.392 39.7801C192.943 39.7801 191.772 38.9967 190.437 38.4372C188.809 37.7299 187.494 36.4093 186.232 35.147Z" fill="#454B69"/>
<path opacity="0.1" d="M187.579 35.147C186.752 34.2718 185.876 33.2982 185.71 32.0313C185.585 31.051 185.919 30.0595 186.392 29.2224C186.865 28.3853 187.477 27.6556 187.984 26.8498C188.637 25.8135 189.121 24.6474 189.856 23.6805C190.993 22.1876 192.639 21.2878 194.336 20.829C196.032 20.3701 197.79 20.3142 199.532 20.2605C200.931 20.2179 202.35 20.1799 203.701 20.585C204.69 20.8804 205.609 21.4064 206.519 21.9279C207.792 22.6643 209.084 23.4253 210.112 24.5489C211.133 25.6828 211.838 27.0577 212.159 28.5397C212.525 30.1893 212.418 32.0134 211.665 33.4862C211.33 34.0936 210.937 34.669 210.494 35.2052L209.164 36.9085C208.89 37.2979 208.561 37.6463 208.186 37.9425C207.714 38.2359 207.188 38.4323 206.637 38.52C202.921 39.3391 199.126 39.7579 195.318 39.7689C193.954 39.7689 192.835 38.9855 191.568 38.426C190.024 37.7299 188.776 36.4093 187.579 35.147Z" fill="black"/>
<path opacity="0.87" d="M187.658 21.2856C188.674 20.2243 189.748 19.2179 190.874 18.2707C192.541 16.8651 194.545 15.4998 196.921 15.408C198.354 15.3917 199.766 15.7468 201.015 16.4376C202.24 17.0844 203.289 17.9283 204.335 18.7654L208.467 22.0914C208.813 22.3689 209.174 22.6711 209.265 23.0605C209.286 23.164 209.283 23.2707 209.257 23.3729C209.231 23.4752 209.182 23.5704 209.114 23.6518C209.046 23.7332 208.96 23.7987 208.863 23.8435C208.767 23.8884 208.661 23.9114 208.553 23.9111C208.341 23.8829 208.137 23.8063 207.96 23.6872C205.216 22.2327 202.165 21.431 199.049 21.3462C195.934 21.2615 192.842 21.8961 190.021 23.1993C189.323 23.5261 187.974 24.7079 187.263 24.2289C186.246 23.5373 187.04 21.9302 187.658 21.2856Z" fill="#454B69"/>
<path opacity="0.1" d="M204.407 34.2853C201.678 33.6429 198.742 33.663 195.866 33.6899C193.917 33.7078 191.886 33.7391 190.151 34.3479C188.961 34.7665 187.897 35.6014 188.122 36.5034C188.347 37.4054 189.646 37.9179 190.815 38.3253C193.316 39.1982 196.004 40.0935 198.774 39.8406C201.644 39.5809 211.03 35.8498 204.407 34.2853Z" fill="black"/>
<path opacity="0.87" d="M189.766 34.912C188.644 34.912 188.353 36.4519 188.54 37.5374C188.726 38.623 188.836 40.0733 187.801 40.4941C187.446 40.6 187.074 40.638 186.705 40.606C184.203 40.6172 181.974 42.0833 179.918 43.4911C179.566 43.7351 179.195 43.997 179.027 44.3864C178.904 44.6707 178.893 45.0064 178.69 45.2392C178.475 45.4321 178.207 45.5588 177.919 45.604C176.732 45.9696 175.694 46.699 174.958 47.6859C174.222 48.6728 173.825 49.8655 173.826 51.09C171.233 51.9517 169.46 54.745 169.812 57.4152C168.887 57.7119 168.091 58.3081 167.554 59.1068C167.018 59.9054 166.771 60.8594 166.856 61.8134C164.638 62.8094 163.629 65.7952 164.809 67.8991C165.22 68.6377 165.823 69.6293 165.182 70.1866C165.971 71.2386 166.831 72.3443 168.079 72.7897C169.328 73.2351 171.036 72.6419 171.24 71.3505C171.837 71.6686 172.51 71.8202 173.188 71.7887C173.866 71.7573 174.522 71.544 175.086 71.172C175.649 70.7999 176.098 70.2833 176.385 69.6781C176.672 69.0728 176.785 68.4019 176.712 67.738C178.613 67.4448 179.896 65.1819 179.173 63.4294L181.071 62.6012C180.564 63.2161 180.259 63.9686 180.198 64.7584C180.136 65.5481 180.32 66.3376 180.726 67.0217C180.921 67.271 181.062 67.5576 181.14 67.8633C181.212 68.4027 180.78 68.8638 180.457 69.3159C180.055 69.9237 179.835 70.631 179.823 71.3565C179.811 72.0819 180.007 72.7959 180.389 73.4164C180.617 73.7834 180.93 74.1371 180.951 74.5691C180.974 75.0839 180.585 75.5136 180.33 75.9635C179.193 77.9667 180.764 80.3572 182.247 82.1186C180.378 83.9428 181.169 87.3203 183.243 88.9162C185.317 90.512 188.153 90.7224 190.78 90.5434C193.407 90.3643 196.049 89.8719 198.649 90.277C200.013 90.5008 201.318 90.9619 202.683 91.1387C205.025 91.4431 207.4 90.8791 209.624 90.0957C210.829 89.6705 212.125 89.0773 212.633 87.9224C213.206 86.6242 212.582 85.1425 212.555 83.7279C212.514 81.6061 213.826 79.679 214.102 77.5728C214.27 76.2836 214.045 74.9831 213.874 73.6962C213.392 70.0527 213.353 66.3657 213.758 62.7131L214.44 63.7338C214.519 63.7449 214.598 63.7391 214.674 63.7167C214.749 63.6944 214.819 63.6561 214.878 63.6045C214.937 63.5529 214.983 63.4893 215.015 63.4181C215.046 63.3468 215.061 63.2697 215.059 63.1921C215.193 64.5843 214.181 66.4174 215.4 67.1381C215.759 67.3619 216.203 67.3619 216.61 67.4537C217.381 67.6753 218.042 68.1695 218.466 68.8414C219.103 69.777 219.375 70.9319 220.117 71.8004C220.858 72.6688 222.371 73.0896 223.089 72.21C225.304 72.2435 227.452 71.4576 229.107 70.0075C228.919 69.785 228.78 69.5264 228.699 69.2482C228.618 68.97 228.596 68.6783 228.636 68.3915C230.021 68.4094 230.603 66.5114 230.091 65.2423C229.58 63.9733 228.465 63.0041 227.963 61.7373C227.508 60.589 227.56 59.2192 226.776 58.2568C226.405 57.798 225.866 57.4824 225.523 57.0079C225.093 56.4282 224.981 55.6873 224.777 54.9934C224.214 53.1249 222.934 51.5456 221.208 50.5908C221.711 48.2832 220.071 45.9621 217.738 45.3847C217.471 45.3377 217.209 45.2626 216.958 45.1609C216.11 44.7445 215.951 43.6433 215.441 42.8555C214.629 41.5976 212.971 41.2193 211.482 40.9507L206.983 40.1315C206.72 40.108 206.469 40.0127 206.258 39.8562C206.08 39.6672 205.972 39.4241 205.953 39.1669C205.767 37.8844 206.408 36.6018 206.308 35.3104C206.274 34.9232 206.099 34.4666 205.71 34.4017C205.499 34.3897 205.29 34.4388 205.107 34.5427C203.533 35.2025 201.903 35.7268 200.236 36.1094C199.015 36.446 197.762 36.662 196.497 36.754C194.073 36.8704 191.721 36.3288 189.766 34.912Z" fill="#454B69"/>
<path opacity="0.87" d="M207.347 23.1948C208 22.7471 208.671 22.2637 209.123 21.5251C209.576 20.7864 209.751 19.7076 209.351 18.9354C209.89 19.8486 210.372 20.8961 210.351 22.0287C210.331 23.1612 209.628 24.3318 208.712 24.3139C209.394 24.258 210.131 24.1751 210.647 23.6201C211.163 23.065 211.257 21.8608 210.647 21.4646C210.929 21.7783 211.137 22.1488 211.258 22.5501C211.378 22.9515 211.408 23.374 211.345 23.7879C211.22 24.6407 210.702 25.3883 210.038 25.668C210.62 24.1729 212.312 23.5462 213.472 24.4034C212.389 24.8807 211.509 25.7151 210.984 26.7625C211.686 26.2455 212.664 25.7643 213.237 26.4828C212.13 26.7066 211.109 27.5213 210.508 28.6919C211.652 28.5465 212.808 28.5173 213.958 28.6046C212.683 28.9149 211.562 29.6624 210.797 30.713C211.638 30.9481 212.462 31.239 213.262 31.5837C212.608 31.9185 211.874 32.0731 211.138 32.0313C212.503 33.0027 213.476 34.7575 213.717 36.6757C213.246 36.2175 212.717 35.8203 212.144 35.4939C211.689 35.241 211.157 35.0463 210.727 35.3417C210.297 35.6371 210.261 36.6265 210.745 36.7451L208.771 36.6041C209.106 36.8375 209.387 37.1373 209.597 37.4842C209.807 37.8312 209.941 38.2176 209.99 38.6185C209.608 38.5892 209.239 38.4719 208.912 38.276C209.762 39.0343 210.408 39.9878 210.793 41.0514C209.983 40.4292 209.11 39.7846 208.157 39.8092C207.459 39.8271 206.792 40.2054 206.11 40.3218C204.882 40.5299 203.581 39.8294 202.867 38.576C203.701 38.4514 204.551 38.4925 205.369 38.6968C205.232 37.8047 204.994 36.9307 204.657 36.0915C205.125 36.3934 205.53 36.7791 205.853 37.2285C205.987 36.051 205.963 34.8612 205.78 33.6899L206.817 34.7486C206.717 33.9612 206.533 33.1863 206.269 32.4365C206.781 33.389 207.463 34.2422 208.284 34.9545L206.754 32.3492L209.28 34.1487C209.542 33.9406 209.344 33.437 209.123 33.1661C208.446 32.33 207.656 31.5889 206.774 30.9637C207.469 31.0685 208.145 31.2665 208.785 31.5524C208.509 30.1512 207.313 29.1239 206.153 29.294C207.007 28.7915 207.96 28.4726 208.948 28.3584C207.959 27.5996 206.674 26.8431 205.708 27.6645C206.632 27.449 207.525 27.1196 208.366 26.6842C208.122 26.3886 207.784 26.1816 207.407 26.096C207.03 26.0105 206.634 26.0513 206.283 26.2119C205.601 26.5499 205.082 27.3982 205.023 28.3136C204.989 26.9976 205.789 25.7195 206.842 25.4263C206.435 25.2226 206.012 25.0145 205.573 25.048C205.331 25.0737 205.104 25.1795 204.931 25.3482C204.757 25.5169 204.647 25.7386 204.618 25.9769C204.741 25.1551 205.021 24.3637 205.444 23.6447C204.866 23.347 204.168 23.779 203.852 24.4437C203.536 25.1085 203.524 25.9322 203.624 26.6954C203.723 25.0507 203.647 23.4003 203.397 21.7713C203.132 23.055 203.049 24.3687 203.151 25.6748" fill="#4D9BD5"/>
<path opacity="0.2" d="M198.036 36.7541H196.494V90.1965H198.036V36.7541Z" fill="white"/>
<path opacity="0.1" d="M211.002 173.472C230.978 173.472 247.171 169.976 247.171 165.663C247.171 161.35 230.978 157.854 211.002 157.854C191.027 157.854 174.834 161.35 174.834 165.663C174.834 169.976 191.027 173.472 211.002 173.472Z" fill="#4D9BD5"/>
<path opacity="0.87" d="M217.335 20.4753H214.672V171.957H217.335V20.4753Z" fill="#565661"/>
<path opacity="0.87" d="M216.005 31.5502C222.621 31.5502 227.984 30.6974 227.984 29.6455C227.984 28.5935 222.621 27.7407 216.005 27.7407C209.39 27.7407 204.027 28.5935 204.027 29.6455C204.027 30.6974 209.39 31.5502 216.005 31.5502Z" stroke="#565661" stroke-width="9" stroke-miterlimit="10"/>
<path opacity="0.87" d="M200.214 19.6674C199.368 19.8738 198.593 20.2963 197.967 20.8921C197.34 21.4879 196.885 22.2359 196.646 23.0605C196.408 23.8851 196.394 24.7571 196.608 25.5883C196.822 26.4195 197.254 27.1805 197.862 27.7944C199.256 29.2022 201.342 29.6454 203.286 30.0931C207.018 30.9525 211.018 32.3 213.038 35.5029C213.677 36.5331 214.073 37.6915 214.196 38.8924C214.319 40.0934 214.167 41.3063 213.75 42.4414C213.56 43.0057 213.245 43.5217 212.829 43.9522C212.303 44.4033 211.681 44.7329 211.009 44.9169C207.986 45.9026 204.735 45.9882 201.663 45.1631" stroke="#565661" stroke-width="9" stroke-miterlimit="10"/>
<path opacity="0.87" d="M231.371 19.6674C232.216 19.8744 232.991 20.2972 233.617 20.8931C234.243 21.489 234.698 22.2368 234.937 23.0611C235.175 23.8855 235.189 24.7571 234.975 25.5882C234.762 26.4192 234.33 27.1802 233.723 27.7944C232.329 29.2022 230.243 29.6454 228.299 30.0931C224.567 30.9525 220.567 32.3 218.547 35.5029C217.908 36.5331 217.512 37.6915 217.389 38.8924C217.266 40.0934 217.418 41.3063 217.835 42.4414C218.022 43.0047 218.333 43.5206 218.745 43.9522C219.271 44.4033 219.892 44.7329 220.564 44.9169C223.587 45.9026 226.839 45.9882 229.911 45.1631" stroke="#565661" stroke-width="9" stroke-miterlimit="10"/>
<path opacity="0.87" d="M216.005 121.104C222.153 121.104 227.137 119.718 227.137 118.009C227.137 116.299 222.153 114.913 216.005 114.913C209.857 114.913 204.873 116.299 204.873 118.009C204.873 119.718 209.857 121.104 216.005 121.104Z" stroke="#565661" stroke-width="9" stroke-miterlimit="10"/>
<path opacity="0.87" d="M216.005 160.005C222.153 160.005 227.137 158.619 227.137 156.909C227.137 155.2 222.153 153.814 216.005 153.814C209.857 153.814 204.873 155.2 204.873 156.909C204.873 158.619 209.857 160.005 216.005 160.005Z" stroke="#565661" stroke-width="9" stroke-miterlimit="10"/>
<path opacity="0.87" d="M205.211 118.951C209.563 123.008 212.58 128.253 213.876 134.012C214.126 135.066 214.278 136.141 214.331 137.222C214.417 139.684 213.783 142.128 212.966 144.462C211.427 148.881 209.139 153.174 205.55 156.227C202.33 158.966 198.273 160.54 194.236 161.869" stroke="#565661" stroke-width="9" stroke-miterlimit="10"/>
<path opacity="0.87" d="M226.795 118.951C222.444 123.008 219.427 128.253 218.131 134.012C217.882 135.066 217.729 136.141 217.676 137.222C217.589 139.684 218.224 142.128 219.04 144.462C220.578 148.881 222.866 153.174 226.456 156.227C229.674 158.966 233.734 160.54 237.768 161.869" stroke="#565661" stroke-width="9" stroke-miterlimit="10"/>
<path opacity="0.87" d="M197.1 18.4609H191.201V20.8357H197.1V18.4609Z" fill="#454B69"/>
<path opacity="0.87" d="M204.058 25.686L202.864 22.407C202.756 22.0231 202.56 21.6686 202.291 21.3707C202.009 21.1133 201.552 21.0528 201.304 21.355C201.716 21.9013 202.042 22.5048 202.273 23.1456C202.48 23.817 202.48 24.596 202.123 25.16C201.931 23.2806 201.112 21.5167 199.794 20.1441C200.27 21.1039 200.661 22.1021 200.963 23.1277L199.337 21.2453C198.987 22.6709 198.995 24.1588 199.36 25.5808C198.467 24.4923 197.97 23.141 197.948 21.7422C197.935 22.3358 197.813 22.9221 197.586 23.4724C197.136 22.9575 196.893 22.2982 196.904 21.6191C196.485 22.2482 196.21 22.9591 196.097 23.703C195.985 24.4468 196.037 25.2058 196.251 25.9277C195.471 24.6755 195.049 23.2398 195.027 21.7713C194.536 23.2461 194.4 24.813 194.63 26.3485C193.699 25.3333 193.129 24.0484 193.003 22.6867C193.035 24.0834 193.265 25.4688 193.686 26.8029C192.933 26.5947 192.512 25.7173 192.112 24.963C191.712 24.2087 191.08 23.4164 190.313 23.5529C191.024 24.321 191.454 25.3011 191.534 26.3373C191.164 26.2881 190.884 25.912 190.52 25.8247C190.006 25.7039 189.488 26.3082 189.569 26.8946C189.651 27.481 190.263 27.875 190.761 27.6937C190.41 27.5516 190.024 27.5152 189.652 27.5889C189.28 27.6626 188.939 27.8431 188.671 28.1077C188.382 28.4068 188.168 28.7679 188.045 29.1626C187.922 29.5573 187.894 29.9747 187.964 30.3818C188.26 29.5357 189.153 29.0232 189.929 29.2627C188.739 29.4328 187.736 30.6526 187.655 32.009C187.946 31.8098 188.084 31.4226 188.323 31.1495C188.562 30.8764 189.042 30.778 189.185 31.1271C189.234 31.2991 189.229 31.4815 189.171 31.6509L188.564 34.2607L191.653 32.9334C191.457 34.1681 191.068 35.3656 190.5 36.4832L192.246 35.9192C191.512 36.6732 191.017 37.6225 190.825 38.6498C191.004 37.7322 192.208 36.9868 192.958 37.0294C193.104 38.4596 192.36 39.5048 191.139 39.5899C189.394 39.713 187.827 39.4153 186.099 40.0174C186.44 39.5384 186.908 39.1602 187.451 38.9235C187.995 38.6869 188.593 38.6008 189.183 38.6745C188.303 37.4636 186.727 36.9756 185.426 37.5151C185.667 37.1665 185.994 36.883 186.375 36.6907C186.756 36.4983 187.181 36.4031 187.609 36.4138C187.013 35.438 185.747 35.091 184.823 35.6506C185.186 34.9724 185.776 34.4381 186.493 34.1376C185.833 33.5646 184.901 33.5198 184.114 33.7884C183.327 34.057 182.62 34.5986 181.937 35.1313C181.82 34.799 181.792 34.4424 181.856 34.0961C181.919 33.7499 182.073 33.4257 182.301 33.155C182.514 32.9159 182.802 32.7538 183.12 32.6946C183.437 32.6354 183.765 32.6824 184.052 32.8282C183.77 32 182.963 31.4472 182.188 31.5479C182.418 31.2206 182.753 30.9773 183.138 30.8559C183.524 30.7345 183.94 30.7417 184.321 30.8764C184.336 30.3564 184.232 29.8397 184.017 29.3645C183.802 28.8892 183.481 28.4674 183.079 28.1301C183.664 28.2956 184.179 28.6435 184.546 29.1217C184.632 28.7394 184.639 28.3438 184.565 27.959C184.491 27.5742 184.338 27.2083 184.116 26.8834C183.681 26.2835 183.153 25.7548 182.551 25.3167C183.748 24.96 185.026 24.9662 186.22 25.3346L185.173 21.6728L187.282 24.2826C187.043 22.9533 186.973 21.6001 187.072 20.2538C187.346 21.2106 187.763 22.122 188.31 22.9576C188.152 21.73 188.062 20.4949 188.041 19.2578C188.041 18.9422 188.064 18.5639 188.307 18.4095C188.551 18.255 188.821 18.4095 188.99 18.6333C189.13 18.8798 189.231 19.1464 189.287 19.4234C189.534 20.2933 190.02 21.079 190.693 21.693C190.704 21.0531 190.851 20.4227 191.126 19.8424C191.4 19.2622 191.795 18.745 192.285 18.3244C192.3 19.321 192.437 20.3122 192.692 21.2767C192.01 21.2341 191.63 20.265 191.832 19.5308C192.035 18.7967 192.617 18.2886 193.197 17.8902C193.777 17.4918 194.402 17.1292 194.811 16.5182C194.673 17.9508 194.772 19.396 195.103 20.7977C195.316 19.8308 195.303 18.8079 195.578 17.8611C195.853 16.9143 196.553 16.0078 197.429 16.0369C197.066 16.5409 196.783 17.0964 196.59 17.6843C196.419 18.2908 196.447 19.0071 196.799 19.504C196.924 18.6087 197.054 17.6888 197.406 16.8696C197.759 16.0504 198.368 15.3252 199.151 15.1193C198.705 16.6434 198.822 18.2736 199.48 19.7211C199.48 18.4184 199.849 16.9501 200.874 16.3637C200.639 16.7446 200.491 17.1718 200.442 17.6151C200.393 18.0584 200.444 18.5068 200.59 18.9287C200.561 17.7216 200.876 16.5307 201.5 15.4908C201.499 17.0015 201.755 18.5017 202.257 19.9292C202.85 18.6733 203.673 17.5353 204.684 16.5719C204.455 18.0086 204.601 19.479 205.109 20.8447C205.048 20.2174 205.074 19.5849 205.186 18.9646C205.33 18.3558 205.68 17.7738 206.201 17.5567L206.298 21.787C207.397 21.1737 207.767 19.3249 207.015 18.2349C207.902 18.7542 208.834 19.3294 209.323 20.3187C209.812 21.308 209.58 22.8322 208.641 23.1926" fill="#4D9BD5"/>
<path opacity="0.87" d="M196.381 18.9354H195.021C193.763 18.9354 192.744 19.9385 192.744 21.1759C192.744 22.4133 193.763 23.4164 195.021 23.4164H196.381C197.638 23.4164 198.657 22.4133 198.657 21.1759C198.657 19.9385 197.638 18.9354 196.381 18.9354Z" fill="#4D9BD5"/>
</g>
</g>
<defs>
<linearGradient id="paint0_linear_2062_858" x1="68.3691" y1="41.2574" x2="68.6784" y2="41.2574" gradientUnits="userSpaceOnUse">
<stop stop-color="#808080" stop-opacity="0.25"/>
<stop offset="0.54" stop-color="#808080" stop-opacity="0.12"/>
<stop offset="1" stop-color="#808080" stop-opacity="0.1"/>
</linearGradient>
<linearGradient id="paint1_linear_2062_858" x1="659.493" y1="96.0194" x2="673.012" y2="96.0194" gradientUnits="userSpaceOnUse">
<stop stop-color="#808080" stop-opacity="0.25"/>
<stop offset="0.54" stop-color="#808080" stop-opacity="0.12"/>
<stop offset="1" stop-color="#808080" stop-opacity="0.1"/>
</linearGradient>
<linearGradient id="paint2_linear_2062_858" x1="338.175" y1="378.42" x2="339.399" y2="378.42" gradientUnits="userSpaceOnUse">
<stop stop-color="#808080" stop-opacity="0.25"/>
<stop offset="0.54" stop-color="#808080" stop-opacity="0.12"/>
<stop offset="1" stop-color="#808080" stop-opacity="0.1"/>
</linearGradient>
<clipPath id="clip0_2062_858">
<rect width="257" height="182" fill="white"/>
</clipPath>
</defs>
</svg>
