<svg width="257" height="182" viewBox="0 0 257 182" fill="none" xmlns="http://www.w3.org/2000/svg">
<g clip-path="url(#clip0_2062_647)">
<path d="M108.536 170.396C168.479 170.396 217.073 167.907 217.073 164.836C217.073 161.765 168.479 159.276 108.536 159.276C48.5933 159.276 0 161.765 0 164.836C0 167.907 48.5933 170.396 108.536 170.396Z" fill="#3F3D56"/>
<path d="M214.529 176.473C237.985 176.473 257 175.499 257 174.298C257 173.096 237.985 172.122 214.529 172.122C191.073 172.122 172.059 173.096 172.059 174.298C172.059 175.499 191.073 176.473 214.529 176.473Z" fill="#3F3D56"/>
<path d="M94.4766 182C117.933 182 136.947 181.026 136.947 179.824C136.947 178.623 117.933 177.649 94.4766 177.649C71.0206 177.649 52.0059 178.623 52.0059 179.824C52.0059 181.026 71.0206 182 94.4766 182Z" fill="#3F3D56"/>
<path d="M198.725 114.45L202.535 111.765L210.433 101.463C210.659 101.169 210.759 100.796 210.714 100.427C210.668 100.058 210.479 99.7224 210.189 99.4941C209.899 99.2659 209.532 99.1637 209.168 99.21C208.803 99.2564 208.472 99.4475 208.247 99.7413L200.349 110.044L198.725 114.45Z" fill="#2F2E41"/>
<path d="M232.739 16.5082C232.739 16.5082 227.947 12.1538 221.502 20.3602C215.057 28.5667 204.976 32.5862 202.662 35.7682C202.662 35.7682 212.247 31.7488 215.552 30.074C218.858 28.3992 218.692 28.7342 218.692 28.7342C218.692 28.7342 214.23 31.9163 213.404 35.0983C212.578 38.2804 213.239 40.9601 211.751 44.1422C210.264 47.3243 240.176 46.3194 240.176 46.3194C240.176 46.3194 243.151 41.1276 242.324 35.7682C241.498 30.4089 241.994 17.1782 232.739 16.5082Z" fill="#2F2E41"/>
<path d="M223.319 29.4041C223.319 29.4041 224.476 37.6105 219.518 39.4528C214.56 41.295 216.378 43.8072 216.378 43.8072L223.815 47.4917L231.747 44.9795L234.391 40.9601C234.391 40.9601 230.095 39.9552 231.251 36.9406C232.408 33.926 232.739 32.9211 232.739 32.9211L223.319 29.4041Z" fill="#FFB9B9"/>
<path opacity="0.1" d="M223.319 29.4041C223.319 29.4041 224.476 37.6105 219.518 39.4528C214.56 41.295 216.378 43.8072 216.378 43.8072L223.815 47.4917L231.747 44.9795L234.391 40.9601C234.391 40.9601 230.095 39.9552 231.251 36.9406C232.408 33.926 232.739 32.9211 232.739 32.9211L223.319 29.4041Z" fill="black"/>
<path d="M244.143 52.851C244.143 52.851 242.986 68.259 243.317 68.9289C243.647 69.5988 243.317 92.8783 243.317 92.8783C243.317 92.8783 245.63 105.439 242.655 106.109C239.681 106.779 240.342 92.0409 240.342 92.0409L237.367 72.6134L237.698 53.3534L244.143 52.851Z" fill="#FFB9B9"/>
<path opacity="0.1" d="M244.143 52.851C244.143 52.851 242.986 68.259 243.317 68.9289C243.647 69.5988 243.317 92.8783 243.317 92.8783C243.317 92.8783 245.63 105.439 242.655 106.109C239.681 106.779 240.342 92.0409 240.342 92.0409L237.367 72.6134L237.698 53.3534L244.143 52.851Z" fill="black"/>
<path d="M211.917 99.2424C211.917 99.2424 206.463 120.177 206.629 130.393C206.794 140.61 208.942 154.845 208.942 154.845C208.942 154.845 209.273 161.042 208.777 161.712C208.281 162.382 211.256 165.229 211.256 165.229L214.396 163.387L215.553 162.047V160.874C215.553 160.874 213.735 155.18 215.222 150.658C216.71 146.136 217.536 134.748 216.048 131.231L226.295 100.415L211.917 99.2424Z" fill="#FFB9B9"/>
<path d="M211.586 162.549C211.586 162.549 209.603 160.037 208.281 160.874C206.959 161.712 204.811 167.406 204.811 167.406C204.811 167.406 197.374 174.608 202.662 174.943C207.951 175.278 210.264 173.435 210.925 172.096C211.586 170.756 217.701 167.239 217.701 167.239C217.701 167.239 217.04 160.874 216.048 160.707C215.057 160.54 213.569 163.219 213.569 163.219L211.586 162.549Z" fill="#2F2E41"/>
<path d="M229.931 100.582V121.35C229.95 123.869 230.116 126.386 230.427 128.886C230.922 132.571 227.617 160.037 227.617 160.037L227.948 164.894L232.079 164.559L232.575 160.372L238.524 141.949C238.524 141.949 240.507 130.728 239.516 126.541C238.524 122.355 244.639 95.558 244.639 95.558L229.931 100.582Z" fill="#FFB9B9"/>
<path d="M226.625 163.722L227.849 163.452C227.849 163.452 228.773 161.377 229.93 161.879C230.744 162.26 231.516 162.728 232.231 163.276L232.74 164.224C232.74 164.224 233.897 166.736 235.384 168.411C236.871 170.086 238.524 173.77 236.045 174.105C233.566 174.44 230.261 174.608 229.269 173.77C228.278 172.933 228.939 171.593 227.947 171.258C226.956 170.923 226.129 169.918 226.295 169.583C226.46 169.248 226.625 163.722 226.625 163.722Z" fill="#2F2E41"/>
<path d="M229.931 35.7682C234.311 35.7682 237.863 32.1691 237.863 27.7293C237.863 23.2895 234.311 19.6903 229.931 19.6903C225.55 19.6903 221.998 23.2895 221.998 27.7293C221.998 32.1691 225.55 35.7682 229.931 35.7682Z" fill="#FFB9B9"/>
<path d="M216.049 40.7926L218.232 40.0203C218.232 40.0203 217.371 41.4625 221.998 42.2999C226.625 43.1373 231.417 43.4338 233.566 40.6896C233.566 40.6896 234.393 40.2902 235.549 41.4625C236.706 42.6349 237.367 42.2999 237.367 42.2999L236.541 46.6544L234.888 54.6933L232.74 60.7226L226.625 59.3827L220.015 54.5259L217.536 47.9942V41.9649L216.049 40.7926Z" fill="#4D9BD5"/>
<path d="M236.21 43.1372L237.862 41.9649C237.862 41.9649 243.481 42.9698 243.812 45.6494L239.515 54.0233C240.391 56.3534 240.332 58.9386 239.35 61.2249C237.697 65.0769 237.862 65.9143 237.862 65.9143L236.706 70.9386L215.718 72.6134C215.718 72.6134 214.891 70.6037 214.561 70.2687C214.23 69.9338 214.23 68.7614 214.561 68.7614C214.891 68.7614 214.561 68.259 214.23 67.7565C213.9 67.2541 213.734 67.0866 214.23 66.4167C214.726 65.7468 213.404 59.7176 213.404 59.7176V53.1859L207.785 45.6494C207.785 45.6494 209.768 42.6348 210.76 42.2998C211.751 41.9649 216.468 40.6439 216.468 40.6439L217.535 42.2365L219.023 54.3583L221.171 61.7273L230.217 60.1697L233.731 54.1908L236.044 47.1567L236.21 43.1372Z" fill="#4D9BD5"/>
<path d="M242.49 44.6445L243.812 45.6494C243.812 45.6494 244.968 55.0282 244.638 55.6981C244.307 56.368 238.523 57.0379 238.358 56.703C238.193 56.368 242.49 44.6445 242.49 44.6445Z" fill="#4D9BD5"/>
<path d="M206.629 54.8607C206.629 54.8607 207.785 70.2687 207.455 70.9386C207.124 71.6086 207.455 94.888 207.455 94.888C207.455 94.888 205.141 107.449 208.116 108.119C211.091 108.789 210.43 94.0506 210.43 94.0506L213.404 74.6232L213.074 55.3631L206.629 54.8607Z" fill="#FFB9B9"/>
<path d="M215.222 39.9552L216.874 51.0087C216.874 51.0087 215.387 67.4216 215.718 70.7712L216.048 71.7761C216.048 71.7761 215.387 71.4411 215.222 72.111C215.056 72.7809 215.222 74.9581 215.222 74.9581C215.222 74.9581 214.23 75.963 213.9 81.4898C213.569 87.0166 209.603 100.247 211.09 100.75C212.578 101.252 221.502 103.764 226.294 103.262C231.087 102.76 248.274 96.8978 248.108 95.3905C247.943 93.8832 239.68 72.6135 239.68 72.6135C239.68 72.6135 238.193 70.1013 238.193 69.7663C238.193 69.4314 240.176 68.0915 239.68 66.7517C239.184 65.4119 236.54 51.3437 236.54 51.3437L238.358 41.295L235.879 40.6251L234.061 50.3388C234.061 50.3388 226.955 53.8559 219.518 50.6738L217.866 39.2853L215.222 39.9552Z" fill="#2F2E41"/>
<path d="M209.107 45.147L207.785 45.6494C207.785 45.6494 205.307 56.2005 205.968 56.2005C206.629 56.2005 214.561 57.2054 214.561 56.8704C214.561 56.5355 213.074 48.3291 213.074 48.3291L209.107 45.147Z" fill="#4D9BD5"/>
<path d="M223.65 20.6952C223.65 20.6952 235.88 29.2365 239.185 25.3845C242.49 21.5325 233.401 18.183 233.401 18.183L225.799 17.3456L223.65 20.6952Z" fill="#2F2E41"/>
<path d="M33.3027 0V163.419H171.895V0H33.3027ZM40.6975 149.882C40.2257 149.882 39.7645 149.74 39.3723 149.474C38.98 149.208 38.6742 148.831 38.4937 148.389C38.3131 147.947 38.2659 147.461 38.3579 146.992C38.45 146.524 38.6772 146.093 39.0108 145.755C39.3444 145.417 39.7694 145.186 40.2321 145.093C40.6949 145 41.1745 145.048 41.6104 145.231C42.0463 145.414 42.4188 145.723 42.6809 146.121C42.943 146.519 43.0829 146.986 43.0829 147.464C43.0829 148.105 42.8316 148.72 42.3843 149.173C41.9369 149.627 41.3302 149.882 40.6975 149.882ZM40.6975 138.036C40.2257 138.036 39.7645 137.894 39.3723 137.629C38.98 137.363 38.6742 136.985 38.4937 136.544C38.3131 136.102 38.2659 135.616 38.3579 135.147C38.45 134.678 38.6772 134.247 39.0108 133.909C39.3444 133.571 39.7694 133.341 40.2321 133.248C40.6949 133.154 41.1745 133.202 41.6104 133.385C42.0463 133.568 42.4188 133.878 42.6809 134.276C42.943 134.673 43.0829 135.14 43.0829 135.619C43.0829 136.26 42.8316 136.875 42.3843 137.328C41.9369 137.781 41.3302 138.036 40.6975 138.036ZM40.6975 126.432C40.2257 126.432 39.7645 126.291 39.3723 126.025C38.98 125.759 38.6742 125.382 38.4937 124.94C38.3131 124.498 38.2659 124.012 38.3579 123.543C38.45 123.074 38.6772 122.644 39.0108 122.305C39.3444 121.967 39.7694 121.737 40.2321 121.644C40.6949 121.551 41.1745 121.598 41.6104 121.781C42.0463 121.964 42.4188 122.274 42.6809 122.672C42.943 123.069 43.0829 123.537 43.0829 124.015C43.0829 124.656 42.8316 125.271 42.3843 125.724C41.9369 126.178 41.3302 126.432 40.6975 126.432ZM40.6975 114.587C40.2257 114.587 39.7645 114.445 39.3723 114.179C38.98 113.914 38.6742 113.536 38.4937 113.095C38.3131 112.653 38.2659 112.167 38.3579 111.698C38.45 111.229 38.6772 110.798 39.0108 110.46C39.3444 110.122 39.7694 109.892 40.2321 109.798C40.6949 109.705 41.1745 109.753 41.6104 109.936C42.0463 110.119 42.4188 110.429 42.6809 110.826C42.943 111.224 43.0829 111.691 43.0829 112.169C43.0829 112.811 42.8316 113.425 42.3843 113.879C41.9369 114.332 41.3302 114.587 40.6975 114.587ZM40.6975 102.741C40.2257 102.741 39.7645 102.6 39.3723 102.334C38.98 102.068 38.6742 101.691 38.4937 101.249C38.3131 100.807 38.2659 100.321 38.3579 99.8523C38.45 99.3834 38.6772 98.9526 39.0108 98.6145C39.3444 98.2764 39.7694 98.0462 40.2321 97.9529C40.6949 97.8596 41.1745 97.9075 41.6104 98.0905C42.0463 98.2735 42.4188 98.5833 42.6809 98.9809C42.943 99.3784 43.0829 99.8458 43.0829 100.324C43.0829 100.965 42.8316 101.58 42.3843 102.033C41.9369 102.487 41.3302 102.741 40.6975 102.741ZM40.6975 91.1376C40.2257 91.1376 39.7645 90.9958 39.3723 90.7302C38.98 90.4646 38.6742 90.087 38.4937 89.6453C38.3131 89.2036 38.2659 88.7175 38.3579 88.2486C38.45 87.7796 38.6772 87.3489 39.0108 87.0108C39.3444 86.6727 39.7694 86.4425 40.2321 86.3492C40.6949 86.2559 41.1745 86.3038 41.6104 86.4868C42.0463 86.6697 42.4188 86.9796 42.6809 87.3771C42.943 87.7747 43.0829 88.2421 43.0829 88.7202C43.0829 89.3613 42.8316 89.9762 42.3843 90.4296C41.9369 90.8829 41.3302 91.1376 40.6975 91.1376ZM40.6975 79.2922C40.2257 79.2922 39.7645 79.1504 39.3723 78.8847C38.98 78.6191 38.6742 78.2416 38.4937 77.7998C38.3131 77.3581 38.2659 76.872 38.3579 76.4031C38.45 75.9342 38.6772 75.5034 39.0108 75.1653C39.3444 74.8272 39.7694 74.597 40.2321 74.5037C40.6949 74.4104 41.1745 74.4583 41.6104 74.6413C42.0463 74.8243 42.4188 75.1341 42.6809 75.5317C42.943 75.9292 43.0829 76.3966 43.0829 76.8747C43.0829 77.5159 42.8316 78.1307 42.3843 78.5841C41.9369 79.0375 41.3302 79.2922 40.6975 79.2922ZM40.6975 67.4467C40.2257 67.4467 39.7645 67.3049 39.3723 67.0393C38.98 66.7736 38.6742 66.3961 38.4937 65.9544C38.3131 65.5126 38.2659 65.0266 38.3579 64.5576C38.45 64.0887 38.6772 63.6579 39.0108 63.3198C39.3444 62.9818 39.7694 62.7515 40.2321 62.6582C40.6949 62.565 41.1745 62.6128 41.6104 62.7958C42.0463 62.9788 42.4188 63.2886 42.6809 63.6862C42.943 64.0837 43.0829 64.5511 43.0829 65.0292C43.0829 65.6704 42.8316 66.2853 42.3843 66.7386C41.9369 67.192 41.3302 67.4467 40.6975 67.4467ZM40.6975 55.843C40.2257 55.843 39.7645 55.7012 39.3723 55.4355C38.98 55.1699 38.6742 54.7924 38.4937 54.3506C38.3131 53.9089 38.2659 53.4228 38.3579 52.9539C38.45 52.485 38.6772 52.0542 39.0108 51.7161C39.3444 51.378 39.7694 51.1478 40.2321 51.0545C40.6949 50.9612 41.1745 51.0091 41.6104 51.1921C42.0463 51.375 42.4188 51.6849 42.6809 52.0825C42.943 52.48 43.0829 52.9474 43.0829 53.4255C43.0829 54.0667 42.8316 54.6815 42.3843 55.1349C41.9369 55.5883 41.3302 55.843 40.6975 55.843ZM40.6975 43.9975C40.2257 43.9975 39.7645 43.8557 39.3723 43.5901C38.98 43.3244 38.6742 42.9469 38.4937 42.5052C38.3131 42.0634 38.2659 41.5774 38.3579 41.1084C38.45 40.6395 38.6772 40.2087 39.0108 39.8706C39.3444 39.5326 39.7694 39.3023 40.2321 39.209C40.6949 39.1158 41.1745 39.1636 41.6104 39.3466C42.0463 39.5296 42.4188 39.8394 42.6809 40.237C42.943 40.6345 43.0829 41.1019 43.0829 41.58C43.0829 42.2212 42.8316 42.8361 42.3843 43.2894C41.9369 43.7428 41.3302 43.9975 40.6975 43.9975ZM40.6975 32.152C40.2257 32.152 39.7645 32.0102 39.3723 31.7446C38.98 31.479 38.6742 31.1014 38.4937 30.6597C38.3131 30.2179 38.2659 29.7319 38.3579 29.2629C38.45 28.794 38.6772 28.3633 39.0108 28.0252C39.3444 27.6871 39.7694 27.4568 40.2321 27.3636C40.6949 27.2703 41.1745 27.3182 41.6104 27.5011C42.0463 27.6841 42.4188 27.994 42.6809 28.3915C42.943 28.789 43.0829 29.2564 43.0829 29.7346C43.0829 30.3757 42.8316 30.9906 42.3843 31.444C41.9369 31.8973 41.3302 32.152 40.6975 32.152ZM40.6975 20.79C40.2257 20.79 39.7645 20.6482 39.3723 20.3826C38.98 20.117 38.6742 19.7394 38.4937 19.2977C38.3131 18.856 38.2659 18.3699 38.3579 17.901C38.45 17.432 38.6772 17.0013 39.0108 16.6632C39.3444 16.3251 39.7694 16.0949 40.2321 16.0016C40.6949 15.9083 41.1745 15.9562 41.6104 16.1391C42.0463 16.3221 42.4188 16.632 42.6809 17.0295C42.943 17.4271 43.0829 17.8944 43.0829 18.3726C43.0829 19.0137 42.8316 19.6286 42.3843 20.082C41.9369 20.5353 41.3302 20.79 40.6975 20.79Z" fill="#F2F2F2"/>
<path opacity="0.3" d="M171.895 12.4107V11.9272H49.7039V0H49.2268V11.9272H33.3027V12.4107H49.2268V23.691H33.3027V24.1744H49.2268V35.4547H33.3027V35.9382H49.2268V47.2182H33.3027V47.7017H49.2268V58.9818H33.3027V59.4652H49.2268V70.7455H33.3027V71.229H49.2268V82.509H33.3027V82.9925H49.2268V94.2728H33.3027V94.7563H49.2268V106.036H33.3027V106.52H49.2268V117.8H33.3027V118.283H49.2268V129.564H33.3027V130.047H49.2268V141.327H33.3027V141.811H49.2268V153.091H33.3027V153.574H49.2268V163.419H49.7039V153.574H171.895V153.091H49.7039V141.811H171.895V141.327H49.7039V130.047H171.895V129.564H49.7039V118.283H171.895V117.8H49.7039V106.52H171.895V106.036H49.7039V94.7563H171.895V94.2728H49.7039V82.9925H171.895V82.509H49.7039V71.229H171.895V70.7455H49.7039V59.4652H171.895V58.9818H49.7039V47.7017H171.895V47.2182H49.7039V35.9382H171.895V35.4547H49.7039V24.1744H171.895V23.691H49.7039V12.4107H171.895Z" fill="#3F3D56"/>
<path d="M64.263 41.865C62.8218 42.9963 61.2734 43.9799 59.6405 44.8013C58.5853 45.332 57.4145 45.8044 56.2571 45.5818C55.0997 45.3592 54.0605 44.1606 54.4139 43.0217C54.5365 42.6892 54.7431 42.3953 55.0132 42.1693C55.2833 41.9433 55.6072 41.7933 55.9526 41.7342C56.6474 41.6258 57.3583 41.7298 57.9945 42.0328C59.1595 42.5386 60.1317 43.4128 60.7659 44.5249C61.0893 45.0956 61.3427 45.7501 61.8797 46.1202C62.3124 46.3692 62.797 46.5114 63.2941 46.535C64.4638 46.6832 65.6642 46.8299 66.8102 46.5496C67.9562 46.2694 69.0541 45.4659 69.3464 44.3085" stroke="#3F3D56" stroke-width="2" stroke-miterlimit="10"/>
<path d="M73.1041 36.3496C73.1947 39.9002 73.1457 43.4507 72.957 47.0011L75.4431 46.5251C76.3595 46.3496 77.4021 46.0816 77.8162 45.2348C78.2023 44.4452 77.8348 43.4486 77.192 42.8552C76.5492 42.2619 75.6927 41.9787 74.8642 41.7115L73.507 41.2738" stroke="#3F3D56" stroke-width="2" stroke-miterlimit="10"/>
<path d="M86.5039 40.2641C85.5962 40.1365 84.6701 40.0145 83.7681 40.1784C82.8661 40.3422 81.9762 40.8399 81.5603 41.6674C80.7922 43.196 81.969 45.0783 83.4604 45.8895C84.7018 46.5594 86.1323 46.7777 87.5133 46.5079" stroke="#3F3D56" stroke-width="2" stroke-miterlimit="10"/>
<path d="M66.5446 28.1032C64.2619 30.2783 61.9792 30.2783 59.6965 28.1032C58.7704 27.2026 58.0358 26.1197 57.5376 24.9211C57.0393 23.7224 56.7881 22.4332 56.7992 21.1325V0H69.4419V21.1325C69.453 22.4332 69.2017 23.7224 68.7035 24.9211C68.2053 26.1197 67.4706 27.2026 66.5446 28.1032Z" fill="#4D9BD5"/>
<path d="M137.235 103.16C137.235 122.942 125.633 129.848 111.318 129.848C110.986 129.848 110.655 129.843 110.326 129.836C109.662 129.822 109.004 129.79 108.355 129.744C95.4358 128.818 85.4004 121.556 85.4004 103.16C85.4004 84.1246 109.402 60.1025 111.211 58.3208C111.211 58.3205 111.211 58.3202 111.211 58.3199C111.211 58.3196 111.211 58.3193 111.211 58.3191C111.211 58.3189 111.212 58.3187 111.212 58.3186C111.212 58.3185 111.213 58.3184 111.213 58.3184C111.282 58.2483 111.318 58.2145 111.318 58.2145C111.318 58.2145 137.235 83.3801 137.235 103.16Z" fill="#4D9BD5"/>
<path d="M110.374 126.822L119.854 113.4L110.35 128.296L110.326 129.836C109.663 129.822 109.005 129.79 108.356 129.744L109.377 109.955L109.37 109.8L109.387 109.774L109.484 107.903L99.957 92.9701L109.513 106.501L109.537 106.897L110.307 91.9451L102.152 76.5145L110.408 89.3222L111.211 58.3208L111.214 58.2145V58.3184L111.08 82.7636L119.2 73.0721L111.047 84.8692L110.832 98.257L118.415 85.4083L110.801 100.227L110.682 107.671L121.686 89.7863L110.639 110.267L110.374 126.822Z" fill="#3F3D56"/>
</g>
<defs>
<clipPath id="clip0_2062_647">
<rect width="257" height="182" fill="white"/>
</clipPath>
</defs>
</svg>
