<svg width="257" height="182" viewBox="0 0 257 182" fill="none" xmlns="http://www.w3.org/2000/svg">
<path d="M58.485 93.3218C66.966 93.3218 73.8411 87.1603 73.8411 79.5596C73.8411 71.9589 66.966 65.7974 58.485 65.7974C50.0041 65.7974 43.1289 71.9589 43.1289 79.5596C43.1289 87.1603 50.0041 93.3218 58.485 93.3218Z" fill="#FF6584"/>
<path d="M153.617 95.1422C153.617 122.237 135.644 131.697 113.474 131.697C91.303 131.697 73.3301 122.237 73.3301 95.1422C73.3301 68.0474 113.474 33.5786 113.474 33.5786C113.474 33.5786 153.617 68.0474 153.617 95.1422Z" fill="#4D9BD5"/>
<path d="M112.011 127.553L112.422 104.877L129.532 76.8235L112.487 101.32L112.672 91.1237L124.464 70.8275L112.72 88.4256L113.053 70.0876L125.68 53.9292L113.105 67.204L113.313 33.5787L112.008 78.0925L112.115 76.2562L99.2765 58.6446L111.909 79.7812L110.713 100.262L110.677 99.7181L95.877 81.1844L110.633 101.638L110.483 104.2L110.456 104.238L110.468 104.449L107.433 156.409H111.488L111.975 129.57L126.694 109.166L112.011 127.553Z" fill="#3F3D56"/>
<path d="M192.352 120.733C192.352 147.828 174.379 157.289 152.208 157.289C130.037 157.289 112.064 147.828 112.064 120.733C112.064 93.6386 152.208 59.1698 152.208 59.1698C152.208 59.1698 192.352 93.6386 192.352 120.733Z" fill="#3F3D56"/>
<path d="M150.746 153.144L151.157 130.468L168.267 102.415L151.221 126.911L151.406 116.715L163.198 96.4187L151.455 114.017V114.017L151.787 95.6786L164.415 79.5204L151.84 92.7952L152.047 59.1697L150.742 103.684L150.849 101.847L138.011 84.2358L150.644 105.372L149.447 125.853L149.412 125.309L134.611 106.776L149.367 127.23L149.217 129.791L149.19 129.829L149.203 130.04L146.168 182H150.223L150.709 155.161L165.428 134.758L150.746 153.144Z" fill="#F2F2F2"/>
<path d="M116.863 120.733C116.863 147.828 98.8904 157.289 76.7197 157.289C54.5491 157.289 36.5762 147.828 36.5762 120.733C36.5762 93.6386 76.7197 59.1698 76.7197 59.1698C76.7197 59.1698 116.863 93.6386 116.863 120.733Z" fill="#3F3D56"/>
<path d="M75.2574 153.144L75.6686 130.468L92.7789 102.415L75.7331 126.911L75.9178 116.715L87.7102 96.4187L75.9669 114.017V114.017L76.2991 95.6786L88.9266 79.5204L76.3513 92.7952L76.5592 59.1697L75.254 103.684L75.3612 101.847L62.5228 84.2358L75.1553 105.372L73.959 125.853L73.9235 125.309L59.123 106.776L73.8786 127.23L73.7291 129.791L73.7023 129.829L73.7146 130.04L70.6794 182H74.7343L75.2208 155.161L89.9404 134.758L75.2574 153.144Z" fill="#F2F2F2"/>
<path d="M114.497 181.771C95.2973 181.771 76.6913 175.805 61.8495 164.889C47.0077 153.973 36.8484 138.782 33.1026 121.906C29.3568 105.029 32.2563 87.511 41.3071 72.3357C50.3579 57.1603 64.9999 45.267 82.7383 38.6821C100.477 32.0971 120.214 31.2281 138.587 36.2231C156.961 41.218 172.833 51.7679 183.5 66.075C194.167 80.3822 198.968 97.5615 197.086 114.686C195.204 131.81 186.755 147.82 173.179 159.987C165.491 166.915 156.346 172.408 146.273 176.147C136.2 179.886 125.4 181.798 114.497 181.771ZM114.497 33.5886C69.0865 33.5886 32.142 66.6983 32.142 107.396C32.142 148.093 69.0865 181.203 114.497 181.203C159.908 181.203 196.852 148.093 196.852 107.396C196.852 66.6983 159.908 33.5886 114.497 33.5886Z" fill="#2F2E41"/>
<path d="M182.355 149.829V181.501H46.6484V149.829L114.502 118.156L114.643 118.222L182.355 149.829Z" fill="#F2F2F2"/>
<path opacity="0.1" d="M182.357 149.829V181.501H114.645V118.222L182.357 149.829Z" fill="black"/>
<path d="M108.706 137.54L103.617 139.262V132.472L108.706 130.473V137.54Z" fill="#3F3D56"/>
<path d="M52.4443 156.543L50.748 157.118V152.996L52.4443 152.324V156.543Z" fill="#3F3D56"/>
<path d="M58.3815 154.769L56.4023 155.434V150.969L58.3815 150.19V154.769Z" fill="#3F3D56"/>
<path d="M64.8848 152.489L62.623 153.251V148.435L64.8848 147.543V152.489Z" fill="#3F3D56"/>
<path d="M72.8019 149.702L69.9746 150.658V145.648L72.8019 144.536V149.702Z" fill="#3F3D56"/>
<path d="M82.414 146.408L79.0215 147.557V142.101L82.414 140.767V146.408Z" fill="#3F3D56"/>
<path d="M94.0049 142.607L90.0469 143.944V137.793L94.0049 136.238V142.607Z" fill="#3F3D56"/>
<path d="M52.4443 164.904L50.748 165.287V161.104L52.4443 160.623V164.904Z" fill="#3F3D56"/>
<path d="M58.3815 163.638L56.4023 164.082V159.584L58.3815 159.025V163.638Z" fill="#3F3D56"/>
<path d="M64.8848 162.117L62.623 162.627V157.81L64.8848 157.171V162.117Z" fill="#3F3D56"/>
<path d="M72.8019 160.344L69.9746 160.98V155.783L72.8019 154.986V160.344Z" fill="#3F3D56"/>
<path d="M82.414 158.063L79.0215 158.831V153.249L82.414 152.293V158.063Z" fill="#3F3D56"/>
<path d="M94.0046 155.53L89.7637 156.485V150.209L94.0046 149.013V155.53Z" fill="#3F3D56"/>
<path d="M108.706 152.236L103.617 153.382V146.408L108.706 144.977V152.236Z" fill="#3F3D56"/>
<path d="M108.706 166.678L103.617 167.259V160.344L108.706 159.481V166.678Z" fill="#3F3D56"/>
<path d="M52.4443 173.012L50.748 173.208V169.212L52.4443 168.922V173.012Z" fill="#3F3D56"/>
<path d="M58.3815 172.506L56.4023 172.729V168.452L58.3815 168.119V172.506Z" fill="#3F3D56"/>
<path d="M64.8848 171.746L62.623 172.002V167.185L64.8848 166.799V171.746Z" fill="#3F3D56"/>
<path d="M72.8019 170.732L69.9746 171.056V165.918L72.8019 165.435V170.732Z" fill="#3F3D56"/>
<path d="M82.414 169.719L79.0215 170.104V164.398L82.414 163.819V169.719Z" fill="#3F3D56"/>
<path d="M94.0046 168.452L89.7637 168.932V162.624L94.0046 161.903V168.452Z" fill="#3F3D56"/>
<path d="M176.844 156.543L178.54 157.118V152.996L176.844 152.324V156.543Z" fill="#3F3D56"/>
<path d="M170.906 154.769L172.885 155.434V150.969L170.906 150.19V154.769Z" fill="#3F3D56"/>
<path d="M164.402 152.489L166.664 153.251V148.435L164.402 147.543V152.489Z" fill="#3F3D56"/>
<path d="M156.486 149.702L159.314 150.658V145.648L156.486 144.536V149.702Z" fill="#3F3D56"/>
<path d="M146.875 146.408L150.268 147.557V142.101L146.875 140.767V146.408Z" fill="#3F3D56"/>
<path d="M135.283 142.607L139.242 143.944V137.793L135.283 136.238V142.607Z" fill="#3F3D56"/>
<path d="M176.844 164.904L178.54 165.287V161.104L176.844 160.623V164.904Z" fill="#3F3D56"/>
<path d="M170.906 163.638L172.885 164.082V159.584L170.906 159.025V163.638Z" fill="#3F3D56"/>
<path d="M164.402 162.117L166.664 162.627V157.81L164.402 157.171V162.117Z" fill="#3F3D56"/>
<path d="M156.486 160.344L159.314 160.98V155.783L156.486 154.986V160.344Z" fill="#3F3D56"/>
<path d="M146.875 158.063L150.268 158.831V153.249L146.875 152.293V158.063Z" fill="#3F3D56"/>
<path d="M135.283 155.53L139.524 156.485V150.209L135.283 149.013V155.53Z" fill="#3F3D56"/>
<path d="M120.582 152.236L125.671 153.382V146.408L120.582 144.977V152.236Z" fill="#3F3D56"/>
<path d="M120.582 166.678L125.671 167.259V160.344L120.582 159.481V166.678Z" fill="#3F3D56"/>
<path d="M176.844 173.012L178.54 173.208V169.212L176.844 168.922V173.012Z" fill="#3F3D56"/>
<path d="M170.906 172.506L172.885 172.729V168.452L170.906 168.119V172.506Z" fill="#3F3D56"/>
<path d="M164.402 171.746L166.664 172.002V167.185L164.402 166.799V171.746Z" fill="#3F3D56"/>
<path d="M156.486 170.732L159.314 171.056V165.918L156.486 165.435V170.732Z" fill="#3F3D56"/>
<path d="M146.875 169.719L150.268 170.104V164.398L146.875 163.819V169.719Z" fill="#3F3D56"/>
<path d="M135.283 168.452L139.524 168.932V162.624L135.283 161.903V168.452Z" fill="#3F3D56"/>
<path d="M125.388 139.313L120.299 137.594V130.445L125.388 132.445V139.313Z" fill="#3F3D56"/>
<path d="M173.173 175.861H172.758V181.809H173.173V175.861Z" fill="#2F2E41"/>
<path d="M178.06 177.48H177.766V181.695H178.06V177.48Z" fill="#2F2E41"/>
<path d="M182.403 177.995H182.145V181.699H182.403V177.995Z" fill="#2F2E41"/>
<path d="M161.01 173.975V181.627L155.498 181.62L149.984 181.612V173.012L155.498 173.494L161.01 173.975Z" fill="#3F3D56"/>
<path d="M68.2773 181.627L79.3034 181.612V173.012L68.2773 173.974V181.627Z" fill="#3F3D56"/>
<path d="M247.047 181.374H0V181.881H247.047V181.374Z" fill="#2F2E41"/>
<path opacity="0.1" d="M161.011 173.975V181.627L155.498 181.62V173.494L161.011 173.975Z" fill="black"/>
<path d="M113.937 174.66H113.371V181.754H113.937V174.66Z" fill="#2F2E41"/>
<path d="M116.917 172.134C116.917 174.62 115.435 176.694 113.653 176.766C111.922 176.835 110.553 174.975 110.553 172.612C110.553 170.25 113.936 163.764 113.936 163.764C113.936 163.764 116.917 169.648 116.917 172.134Z" fill="#4D9BD5"/>
<path d="M47.4154 176.933H47.0781V181.165H47.4154V176.933Z" fill="#2F2E41"/>
<path d="M49.1942 175.427C49.1942 176.909 48.3104 178.147 47.2479 178.189C46.215 178.231 45.3984 177.121 45.3984 175.712C45.3984 174.303 47.4166 170.434 47.4166 170.434C47.4166 170.434 49.1942 173.944 49.1942 175.427Z" fill="#4D9BD5"/>
<path d="M175.247 176.096C175.247 177.506 174.255 178.607 172.965 178.553C171.596 178.496 170.422 177.172 170.422 175.599C170.422 174.027 172.965 170.099 172.965 170.099C172.965 170.099 175.247 174.685 175.247 176.096Z" fill="#4D9BD5"/>
<path d="M179.528 177.646C179.528 178.646 178.826 179.426 177.912 179.388C176.941 179.347 176.109 178.409 176.109 177.295C176.109 176.181 177.912 173.397 177.912 173.397C177.912 173.397 179.528 176.647 179.528 177.646Z" fill="#4D9BD5"/>
<path d="M183.694 178.141C183.694 179.019 183.077 179.705 182.274 179.671C181.421 179.636 180.689 178.811 180.689 177.832C180.689 176.853 182.274 174.406 182.274 174.406C182.274 174.406 183.694 177.263 183.694 178.141Z" fill="#4D9BD5"/>
<path d="M185.701 40.8181C185.701 40.8181 182.949 48.2169 184.478 49.861C186.006 51.5052 175.305 44.9285 175.305 44.9285L181.114 38.8999L185.701 40.8181Z" fill="#A0616A"/>
<path d="M179.426 40.8062C187.007 40.8062 193.154 35.2978 193.154 28.5028C193.154 21.7079 187.007 16.1995 179.426 16.1995C171.844 16.1995 165.697 21.7079 165.697 28.5028C165.697 35.2978 171.844 40.8062 179.426 40.8062Z" fill="#2F2E41"/>
<path d="M232.789 124.123L225.756 129.055L221.781 123.301L228.814 118.916L232.789 124.123Z" fill="#A0616A"/>
<path d="M222.852 161.254L224.686 169.2L229.884 175.503C229.884 175.503 243.95 179.339 234.471 181.258C224.992 183.176 222.852 179.888 222.852 179.888L216.125 174.681V181.806H211.844L210.927 171.667C210.927 171.667 210.316 168.652 213.067 165.364L213.679 160.432L222.852 161.254Z" fill="#2F2E41"/>
<path d="M187.383 62.8774L189.83 75.4827C189.83 75.4827 215.82 73.0164 217.654 77.6749C219.489 82.3334 220.1 83.7035 220.1 83.7035L214.902 85.3477L212.456 81.2373C211.711 81.0008 210.92 80.9032 210.131 80.9503C209.343 80.9974 208.573 81.1883 207.87 81.5113C205.424 82.6074 184.02 85.3477 182.491 81.7853C180.962 78.223 176.682 65.0696 176.682 65.0696L183.103 60.4111L187.383 62.8774Z" fill="#A0616A"/>
<path opacity="0.1" d="M187.383 62.8774L189.83 75.4827C189.83 75.4827 215.82 73.0164 217.654 77.6749C219.489 82.3334 220.1 83.7035 220.1 83.7035L214.902 85.3477L212.456 81.2373C211.711 81.0008 210.92 80.9032 210.131 80.9503C209.343 80.9974 208.573 81.1883 207.87 81.5113C205.424 82.6074 184.02 85.3477 182.491 81.7853C180.962 78.223 176.682 65.0696 176.682 65.0696L183.103 60.4111L187.383 62.8774Z" fill="black"/>
<path d="M201.754 99.3232L203.894 105.9L209.398 131.11C209.398 131.11 210.01 149.744 210.927 151.937C211.844 154.129 211.844 154.403 210.927 155.225C210.01 156.047 208.175 158.787 210.927 160.432C213.679 162.076 223.463 163.994 223.769 162.076C224.075 160.157 224.075 157.143 223.769 155.773C223.463 154.403 224.686 133.029 224.686 133.029L221.017 100.419L208.481 95.2128L201.754 99.3232Z" fill="#2F2E41"/>
<path opacity="0.1" d="M201.754 99.3232L203.894 105.9L209.398 131.11C209.398 131.11 210.01 149.744 210.927 151.937C211.844 154.129 211.844 154.403 210.927 155.225C210.01 156.047 208.175 158.787 210.927 160.432C213.679 162.076 223.463 163.994 223.769 162.076C224.075 160.157 224.075 157.143 223.769 155.773C223.463 154.403 224.686 133.029 224.686 133.029L221.017 100.419L208.481 95.2128L201.754 99.3232Z" fill="black"/>
<path d="M214.902 73.5646L221.629 85.0738C221.629 85.0738 260.155 100.419 256.792 106.722C253.429 113.025 234.777 124.808 234.777 124.808C234.777 124.808 233.86 129.466 231.108 128.096C228.356 126.726 221.629 119.601 222.241 118.779C222.852 117.957 224.993 116.039 225.91 116.313C226.827 116.587 237.529 109.188 237.529 109.188L219.183 105.078C219.183 105.078 197.168 104.53 195.945 95.2128C194.722 85.8958 195.945 84.2517 195.945 84.2517L194.416 81.2374L206.952 74.3867L214.902 73.5646Z" fill="#2F2E41"/>
<path d="M224.381 119.053L217.96 124.26C217.96 124.26 212.456 122.068 209.093 122.89C205.729 123.712 199.92 124.26 199.92 124.26L200.837 128.918L208.638 127.628L202.366 135.495C202.366 135.495 202.366 147.826 206.341 147.826C210.316 147.826 209.093 140.427 209.093 140.427L221.323 131.933C221.323 131.933 227.439 129.74 228.05 129.74C228.662 129.74 224.381 119.053 224.381 119.053Z" fill="#2F2E41"/>
<path d="M184.478 43.0104C190.22 43.0104 194.874 38.839 194.874 33.6934C194.874 28.5478 190.22 24.3765 184.478 24.3765C178.736 24.3765 174.082 28.5478 174.082 33.6934C174.082 38.839 178.736 43.0104 184.478 43.0104Z" fill="#A0616A"/>
<path d="M174.236 40.9552C174.236 40.9552 179.128 39.8591 180.657 40.9552C182.186 42.0513 182.492 44.5175 184.632 44.7916C186.772 45.0656 188.607 45.0656 188.913 45.3396C189.219 45.6137 196.251 53.2864 196.251 53.2864C196.251 53.2864 200.532 55.4787 201.449 58.493C202.366 61.5073 211.539 71.6463 212.762 72.7425C213.986 73.8386 204.813 79.3191 201.755 81.2373C198.697 83.1555 189.83 83.9776 187.078 79.5932C184.326 75.2087 169.344 46.7098 174.236 40.9552Z" fill="#575A89"/>
<path d="M185.854 58.767L188.3 71.3723C188.3 71.3723 214.29 68.9061 216.125 73.5645C217.959 78.223 218.571 79.5932 218.571 79.5932L213.373 81.2373L210.927 77.1269C210.182 76.8905 209.391 76.7928 208.602 76.8399C207.813 76.8871 207.044 77.0779 206.34 77.4009C203.894 78.497 182.491 81.2373 180.962 77.675C179.433 74.1126 175.152 60.9593 175.152 60.9593L181.573 56.3008L185.854 58.767Z" fill="#A0616A"/>
<path d="M180.011 42.1081C180.011 42.1081 187.383 56.0267 186.771 59.8631C186.159 63.6995 184.019 60.9593 184.019 60.9593C184.019 60.9593 181.267 57.1229 180.044 59.3151C178.821 61.5073 177.292 64.5216 176.069 64.2476C174.846 63.9736 168.119 43.6955 171.789 41.7773C175.458 39.8591 180.011 42.1081 180.011 42.1081Z" fill="#575A89"/>
<path d="M164.554 24.6067C172.136 24.6067 178.283 19.0983 178.283 12.3034C178.283 5.5084 172.136 0 164.554 0C156.973 0 150.826 5.5084 150.826 12.3034C150.826 19.0983 156.973 24.6067 164.554 24.6067Z" fill="#2F2E41"/>
<path d="M152.713 22.4913C154.49 23.6422 156.549 24.3951 158.717 24.6868C160.885 24.9786 163.099 24.8008 165.175 24.1683C167.251 23.5357 169.127 22.4669 170.647 21.0512C172.168 19.6355 173.288 17.9141 173.913 16.031C173.677 17.7185 173.052 19.3438 172.079 20.8041C171.106 22.2644 169.806 23.528 168.26 24.5152C166.715 25.5025 164.958 26.1918 163.1 26.5397C161.242 26.8877 159.324 26.8866 157.467 26.5367C155.61 26.1868 153.854 25.4956 152.31 24.5068C150.765 23.5179 149.467 22.2529 148.496 20.7915C147.525 19.3302 146.902 17.7043 146.668 16.0165C146.433 14.3287 146.592 12.6156 147.133 10.9855C146.826 13.1756 147.181 15.3995 148.163 17.4239C149.145 19.4484 150.717 21.1987 152.713 22.4913Z" fill="#2F2E41"/>
<path d="M176.603 39.5758C182.163 39.5758 186.67 35.5363 186.67 30.5533C186.67 25.5704 182.163 21.5309 176.603 21.5309C171.042 21.5309 166.535 25.5704 166.535 30.5533C166.535 35.5363 171.042 39.5758 176.603 39.5758Z" fill="#2F2E41"/>
<path d="M184.23 33.4241C189.158 33.4241 193.153 30.624 193.153 27.1699C193.153 23.7158 189.158 20.9156 184.23 20.9156C179.302 20.9156 175.307 23.7158 175.307 27.1699C175.307 30.624 179.302 33.4241 184.23 33.4241Z" fill="#2F2E41"/>
<path d="M184.632 37.8039C185.73 37.8039 186.619 36.393 186.619 34.6525C186.619 32.9121 185.73 31.5012 184.632 31.5012C183.534 31.5012 182.645 32.9121 182.645 34.6525C182.645 36.393 183.534 37.8039 184.632 37.8039Z" fill="#A0616A"/>
<path d="M211.913 81.1175C211.913 81.1175 217.326 78.3343 218.331 79.0322C219.336 79.7301 219.782 81.9139 219.782 81.9139L213.526 84.1145L211.691 81.1002L211.913 81.1175Z" fill="#2F2E41"/>
</svg>
