<svg width="257" height="182" viewBox="0 0 257 182" fill="none" xmlns="http://www.w3.org/2000/svg">
<g clip-path="url(#clip0_2062_706)">
<path d="M33.5281 80.0882C23.9616 76.4223 16.2927 69.559 12.0914 60.9034C9.74083 56.0002 8.59324 50.683 7.93983 45.3647C7.29877 40.147 7.16787 34.643 9.62926 29.897C10.9769 27.2985 13.0395 25.0628 15.616 23.4078C18.1924 21.7527 21.1949 20.7348 24.3308 20.4533C27.4667 20.1718 30.6291 20.6361 33.5098 21.8012C36.3904 22.9663 38.8912 24.7923 40.7682 27.1013C42.3838 29.0888 43.5197 31.4735 43.5487 33.9477C43.6095 39.1374 39.0354 43.3024 37.0287 48.1589C34.955 53.1775 35.7024 58.7382 36.0549 64.0919C36.4075 69.4457 36.184 75.2497 32.6233 79.5174" fill="#F2F2F2"/>
<path d="M205.104 145.712C215.207 143.553 224.023 137.953 229.748 130.058C232.962 125.581 235.065 120.513 236.682 115.368C238.268 110.321 239.403 104.914 237.844 99.8601C236.99 97.0929 235.365 94.5747 233.127 92.5508C230.889 90.5269 228.115 89.0665 225.075 88.3117C222.034 87.5569 218.831 87.5336 215.778 88.2441C212.724 88.9545 209.925 90.3744 207.652 92.3655C205.696 94.0793 204.14 96.2577 203.659 98.6929C202.65 103.801 206.399 108.603 207.489 113.697C208.617 118.961 206.863 124.33 205.537 129.555C204.21 134.78 203.37 140.537 206.1 145.287" fill="#F2F2F2"/>
<path d="M128.055 137.378C113.654 137.42 99.6437 133.111 88.209 125.126C77.0132 117.322 68.8338 106.467 64.8574 94.1357L65.4268 93.9846C73.4683 119.216 99.2218 136.837 128.055 136.837C136.676 136.852 145.213 135.298 153.168 132.266L153.396 132.765C145.369 135.824 136.754 137.393 128.055 137.378Z" fill="#E6E6E6"/>
<path d="M190.307 59.5609C181.753 34.6113 156.736 17.8483 128.056 17.8483C119.557 17.8342 111.138 19.3444 103.278 22.2929L103.053 21.7927C113.567 17.8642 125.017 16.4824 136.289 17.7814C147.562 19.0804 158.275 23.0162 167.388 29.2067C178.48 36.7873 186.692 47.3452 190.873 59.3995L190.307 59.5609Z" fill="#E6E6E6"/>
<path d="M208.09 156.308C181.121 156.308 159.18 136.291 159.18 111.687C159.18 87.0832 181.121 67.0664 208.09 67.0664C235.059 67.0664 257 87.0832 257 111.687C257 136.291 235.059 156.308 208.09 156.308ZM208.09 67.6073C181.448 67.6073 159.773 87.3815 159.773 111.687C159.773 135.993 181.448 155.767 208.09 155.767C234.732 155.767 256.407 135.993 256.407 111.687C256.407 87.3815 234.732 67.6073 208.09 67.6073Z" fill="#3F3D56"/>
<path d="M48.91 89.2416C21.9409 89.2416 0 69.2248 0 44.6208C0 20.0168 21.9409 0 48.91 0C75.8792 0 97.8201 20.0168 97.8201 44.6208C97.8201 69.2248 75.8792 89.2416 48.91 89.2416ZM48.91 0.540858C22.2679 0.540858 0.592849 20.3151 0.592849 44.6208C0.592849 68.9265 22.2679 88.7007 48.91 88.7007C75.5522 88.7007 97.2272 68.9265 97.2272 44.6208C97.2272 20.3151 75.5522 0.540858 48.91 0.540858Z" fill="#3F3D56"/>
<path d="M45.1081 44.8717L40.7891 52.5244L45.0537 54.7548C45.0537 54.7548 47.9792 46.1587 48.0654 45.8325C48.5065 45.668 48.8825 45.3853 49.1437 45.0216C49.4048 44.6579 49.5388 44.2305 49.5278 43.7958C49.5169 43.3612 49.3616 42.9398 49.0825 42.5874C48.8033 42.235 48.4135 41.9683 47.9645 41.8224C47.5156 41.6766 47.0287 41.6585 46.5683 41.7706C46.1078 41.8827 45.6955 42.1196 45.3859 42.4502C45.0763 42.7807 44.884 43.1891 44.8344 43.6215C44.7848 44.0539 44.8802 44.4899 45.1081 44.8717V44.8717Z" fill="#A0616A"/>
<path d="M22.9414 45.9126C24.868 52.4247 31.793 56.5607 37.5434 61.5193C38.2515 61.746 39.0037 61.8354 39.7518 61.7817C40.5 61.7281 41.2276 61.5327 41.8882 61.2079C42.5488 60.8831 43.1279 60.4362 43.5884 59.8956C44.0489 59.355 44.3807 58.7327 44.5625 58.0685L46.5007 51.1488L41.5746 51.0286L39.5359 53.0499L32.9396 48.7617L22.9414 45.9126Z" fill="#3F3D56"/>
<path d="M200.818 118.62C201.655 118.67 202.437 119.016 202.998 119.584C203.559 120.152 203.856 120.897 203.824 121.661C203.815 121.817 203.791 121.971 203.754 122.123L213.252 127.581L208.001 129.7L199.787 124.191C199.109 124.003 198.519 123.614 198.109 123.087C197.698 122.56 197.49 121.924 197.518 121.278C197.538 120.91 197.636 120.55 197.809 120.217C197.981 119.885 198.223 119.586 198.522 119.339C198.82 119.092 199.169 118.901 199.549 118.777C199.929 118.652 200.331 118.598 200.734 118.616C200.762 118.617 200.79 118.618 200.818 118.62Z" fill="#FFB6B6"/>
<path d="M209.977 125.1L207.623 129.531L216.93 134.995C217.593 135.387 218.354 135.618 219.141 135.667C219.929 135.715 220.717 135.578 221.431 135.27C222.299 134.891 223.008 134.266 223.452 133.487C223.895 132.708 224.05 131.819 223.891 130.954L220.871 115.224C220.669 114.124 220.011 113.136 219.034 112.463C218.058 111.791 216.836 111.486 215.62 111.611C214.424 111.73 213.329 112.278 212.576 113.134C211.822 113.99 211.473 115.084 211.604 116.175C211.609 116.218 211.615 116.26 211.621 116.303C211.644 116.454 211.676 116.604 211.716 116.752L215.013 127.938L209.977 125.1Z" fill="#4D9BD5"/>
<path d="M201.519 126.897L198.014 118.646C197.894 118.364 197.902 118.05 198.036 117.773C198.17 117.496 198.419 117.279 198.729 117.169L200.7 116.472C201.009 116.363 201.354 116.37 201.657 116.492C201.961 116.615 202.199 116.842 202.319 117.124L205.824 125.375C205.943 125.657 205.935 125.971 205.801 126.248C205.667 126.525 205.418 126.742 205.109 126.852L203.138 127.549C202.829 127.658 202.484 127.65 202.181 127.528C201.877 127.406 201.639 127.179 201.519 126.897Z" fill="#3F3D56"/>
<path d="M199.138 117.508C198.971 117.567 198.837 117.684 198.765 117.833C198.692 117.983 198.688 118.152 198.752 118.304L202.257 126.555C202.322 126.707 202.45 126.829 202.614 126.895C202.778 126.961 202.963 126.965 203.13 126.906L205.101 126.209C205.268 126.15 205.402 126.033 205.474 125.884C205.546 125.735 205.551 125.565 205.486 125.413L201.981 117.163C201.916 117.01 201.788 116.888 201.625 116.822C201.461 116.756 201.275 116.752 201.109 116.811L199.138 117.508Z" fill="#4D9BD5"/>
<path d="M209.316 144.112H222.627V131.969H209.316V144.112Z" fill="#FFB8B8"/>
<path d="M177.75 167.732L172.667 166.171L169.836 178.795L173.28 179.852L177.75 167.732Z" fill="#FFB6B6"/>
<path d="M186.766 165.33L181.547 166.456L186.455 178.538L189.992 177.775L186.766 165.33Z" fill="#FFB6B6"/>
<path d="M222.148 147.285C224.816 163.51 189.289 153.918 189.289 153.918L178.15 167.936L171.629 166.855C171.629 166.855 174.563 158.439 179.804 147.157C182.131 142.147 208.557 143.371 208.557 143.371L209.106 139.442L224.223 139.172L222.148 147.285Z" fill="#2F2E41"/>
<path d="M188.168 150.437L178.492 150.64C180.043 162.811 181.411 167.666 181.411 167.666L187.043 166.043L188.168 150.437Z" fill="#2F2E41"/>
<path d="M214.545 112.237L217.224 109.095L221.046 108.944L221.427 111.899L223.321 112.695C225.212 119.249 225.504 126.101 224.176 132.768C223.923 132.986 223.737 133.262 223.639 133.567C223.541 133.872 223.534 134.196 223.619 134.504L223.742 134.951L223.73 134.967C223.328 135.547 223.191 136.249 223.35 136.92L224.254 138.386C224.579 138.913 224.773 139.498 224.825 140.101C224.876 140.704 224.783 141.31 224.552 141.877C224.321 142.443 223.957 142.957 223.486 143.383C223.015 143.808 222.449 144.135 221.825 144.34C216.266 146.178 211.055 146.863 207.2 141.705L205.988 123.729L214.545 112.237Z" fill="#4D9BD5"/>
<path d="M217.351 109.929C221.254 109.929 224.417 107.043 224.417 103.483C224.417 99.9225 221.254 97.0364 217.351 97.0364C213.449 97.0364 210.285 99.9225 210.285 103.483C210.285 107.043 213.449 109.929 217.351 109.929Z" fill="#FFB8B8"/>
<path d="M220.899 95.7117C223.891 95.7642 226.264 98.296 226.199 101.367C228.413 103.474 227.681 106.053 225.831 108.811C222.447 109.17 221.657 109.319 218.689 110.423L218.298 108.756L217.412 110.927C216.658 111.244 215.909 111.592 215.166 111.971C214.633 109.738 214.765 107.566 216.2 105.675C217.474 103.995 214.372 102 212.154 102.282L212.187 100.739L211.629 102.273C210.765 102.852 209.808 102.642 208.827 102.224V102.223C207.236 94.6814 219.552 92.6189 220.899 95.7117Z" fill="#2F2E41"/>
<path d="M174.846 181.987L172.581 181.717L172.456 179.718L171.142 181.546L165.135 180.83C164.847 180.796 164.578 180.678 164.369 180.495C164.159 180.312 164.019 180.072 163.969 179.811C163.92 179.55 163.963 179.281 164.092 179.044C164.221 178.807 164.431 178.614 164.689 178.493L169.919 176.042L170.201 174.07L175.207 174.946L174.846 181.987Z" fill="#2F2E41"/>
<path d="M191.29 180.849L189.025 181.115L188.345 179.211L187.585 181.284L181.577 181.99C181.289 182.023 180.996 181.972 180.742 181.844C180.488 181.715 180.286 181.516 180.165 181.276C180.044 181.035 180.01 180.765 180.069 180.506C180.128 180.246 180.276 180.011 180.492 179.834L184.864 176.247L184.586 174.275L189.671 173.957L191.29 180.849Z" fill="#2F2E41"/>
<path d="M201.67 120.129C202.506 120.178 203.288 120.524 203.85 121.092C204.411 121.66 204.707 122.405 204.675 123.169C204.666 123.325 204.643 123.479 204.606 123.631L214.104 129.09L208.853 131.208L200.638 125.7C199.961 125.511 199.37 125.122 198.96 124.595C198.55 124.068 198.342 123.432 198.37 122.786C198.389 122.419 198.488 122.058 198.66 121.726C198.832 121.393 199.075 121.094 199.373 120.847C199.672 120.6 200.021 120.409 200.401 120.285C200.78 120.161 201.183 120.106 201.586 120.124C201.614 120.125 201.642 120.127 201.67 120.129Z" fill="#FFB6B6"/>
<path d="M210.83 126.608L208.477 131.039L217.784 136.503C218.446 136.896 219.207 137.127 219.995 137.175C220.783 137.223 221.571 137.086 222.284 136.778C223.152 136.4 223.861 135.774 224.305 134.995C224.749 134.216 224.903 133.327 224.745 132.462L221.725 116.732C221.522 115.632 220.865 114.644 219.888 113.972C218.911 113.3 217.689 112.995 216.473 113.119C215.881 113.178 215.308 113.343 214.785 113.605C214.263 113.866 213.802 114.218 213.429 114.642C213.056 115.066 212.778 115.553 212.612 116.074C212.445 116.596 212.392 117.143 212.457 117.683C212.462 117.726 212.468 117.768 212.475 117.811C212.497 117.962 212.529 118.112 212.57 118.26L215.867 129.446L210.83 126.608Z" fill="#4D9BD5"/>
<path d="M32.7305 125.754L35.7161 126.982L42.3317 117.061L37.9253 115.248L32.7305 125.754Z" fill="#A0616A"/>
<path d="M31.2188 128.552L40.3995 132.33L40.4519 132.224C40.8794 131.36 40.913 130.376 40.5452 129.488C40.1774 128.601 39.4384 127.884 38.4907 127.494L38.4905 127.493L37.3876 125.643L33.6846 125.516L32.8832 125.186L31.2188 128.552Z" fill="#2F2E41"/>
<path d="M69.7078 112.262L72.8608 111.454L70.9471 99.9735L66.293 101.166L69.7078 112.262Z" fill="#A0616A"/>
<path d="M70.5198 115.291L80.2168 112.808L80.1823 112.696C79.9013 111.783 79.2341 111.009 78.3277 110.544C77.4212 110.08 76.3496 109.963 75.3486 110.219L75.3483 110.219L73.1998 109.447L70.2723 111.519L69.4258 111.736L70.5198 115.291Z" fill="#2F2E41"/>
<path d="M21.9831 78.7155C22.0637 80.8438 27.0252 86.5858 29.6346 87.4091C30.0781 87.5492 30.3374 87.6263 30.3374 87.6263L31.2455 87.3758L42.2437 84.3401C44.1696 85.3736 49.9144 85.8991 54.6282 86.1619C58.38 86.3703 60.4713 88.1598 60.4713 88.1598C61.5782 95.8395 64.7691 101.438 68.4489 108.319L72.8651 107.618L68.6931 81.9876C68.603 81.4341 68.3366 80.917 67.927 80.5005C67.5175 80.0839 66.9828 79.7864 66.3894 79.6448L36.3779 72.4829C36.3779 72.4829 34.7228 72.2097 31.2321 73.7459C25.4853 76.2753 21.9255 77.167 21.9831 78.7155Z" fill="#2F2E41"/>
<path d="M27.7165 78.3037C26.71 80.2251 28.2015 87.409 30.0986 89.2391L30.6021 89.5516L30.7724 89.6325C31.9104 93.1442 44.1225 103.415 44.1225 103.415C39.9975 108.21 36.3214 114.058 34.6811 120.611L39.4509 122.201L52.8773 103.915C53.2289 103.436 53.4134 102.872 53.4065 102.295C53.3996 101.719 53.2016 101.158 52.8385 100.686L47.3611 93.5678L38.4359 77.7956C32.0583 77.6162 28.4497 76.9061 27.7165 78.3037Z" fill="#2F2E41"/>
<path d="M22.1626 79.5522C22.1478 79.5522 21.7982 78.7173 21.7911 78.7154C21.6723 78.6852 20.0631 78.5403 20.425 76.1097L20.888 73.4348L20.436 71.0728L19.6757 70.3792L20.8976 69.2645L20.1487 64.2086L19.8612 54.0858C19.1396 50.6086 19.3281 47.4284 22.8237 45.897L26.8313 42.5058L31.3915 42.4554L36.5652 45.2536L39.0718 49.8125L40.0441 62.1678L40.77 63.7132L40.7078 63.7645C40.703 63.7685 40.2194 64.1675 40.0021 64.3869C39.8969 64.5232 40.0943 65.5415 40.3382 66.406L40.6508 68.5402L39.8629 69.0539L40.8873 70.1578L43.68 74.4643L43.5127 74.4264C43.3242 74.3836 41.5679 76.7886 22.2917 79.463C22.2027 79.4753 22.1996 79.5522 22.1626 79.5522Z" fill="#3F3D56"/>
<path d="M44.2345 52.8127L42.6387 52.053C42.3884 51.9335 42.2002 51.7283 42.1155 51.4823C42.0308 51.2364 42.0565 50.9699 42.1869 50.7412L46.0075 44.0614C46.1385 43.833 46.3634 43.6614 46.633 43.5841C46.9026 43.5068 47.1947 43.5302 47.4454 43.6492L49.0411 44.4089C49.2915 44.5284 49.4797 44.7336 49.5644 44.9795C49.6491 45.2255 49.6234 45.492 49.493 45.7207L45.6724 52.4004C45.5414 52.6289 45.3164 52.8005 45.0469 52.8778C44.7773 52.9551 44.4851 52.9317 44.2345 52.8127Z" fill="#3F3D56"/>
<path d="M47.0647 43.901C46.9296 43.8369 46.7721 43.8243 46.6269 43.8659C46.4816 43.9076 46.3604 44.0001 46.2898 44.1232L42.4692 50.8029C42.3989 50.9262 42.3851 51.0698 42.4307 51.2023C42.4764 51.3348 42.5778 51.4454 42.7127 51.5098L44.3085 52.2695C44.4435 52.3336 44.601 52.3462 44.7462 52.3046C44.8915 52.263 45.0127 52.1704 45.0833 52.0474L48.9039 45.3676C48.9742 45.2443 48.988 45.1007 48.9424 44.9682C48.8967 44.8357 48.7953 44.7251 48.6604 44.6607L47.0647 43.901Z" fill="#4D9BD5"/>
<path d="M30.1373 41.5436C33.7382 41.5436 36.6574 38.8804 36.6574 35.5953C36.6574 32.3101 33.7382 29.647 30.1373 29.647C26.5363 29.647 23.6172 32.3101 23.6172 35.5953C23.6172 38.8804 26.5363 41.5436 30.1373 41.5436Z" fill="#A0616A"/>
<path d="M26.9306 39.4264C26.6447 39.219 26.2881 39.1098 25.923 39.1177C25.8097 39.1347 25.7017 39.1735 25.6061 39.2314C25.5104 39.2893 25.4294 39.3651 25.3683 39.4538C25.3343 39.4928 25.2902 39.5234 25.24 39.5429C25.1898 39.5624 25.1351 39.5701 25.0807 39.5654C24.385 39.5885 22.9021 38.4111 22.8007 36.1392C22.7525 35.0594 22.0444 33.2324 23.1717 32.2429C23.2473 31.8435 24.1275 27.7161 28.0955 27.6023C32.1578 27.4846 34.8621 28.229 35.5117 29.6415C35.9628 30.7629 36.3058 31.9181 36.5367 33.0939L36.6729 33.793L36.3546 33.1451C36.3486 33.1329 35.7681 31.9727 34.6915 31.5857C34.6741 31.7745 34.6214 31.9593 34.5359 32.1319C34.1846 32.8264 33.2991 33.2797 32.2799 33.2867C31.5756 33.2669 30.8812 33.1307 30.2303 32.8846C30.304 32.9816 30.3453 33.0961 30.3494 33.214C30.3535 33.332 30.32 33.4486 30.2531 33.5497C30.1862 33.6507 30.0887 33.732 29.9724 33.7836C29.856 33.8353 29.7258 33.8551 29.5973 33.8408L29.4089 33.8194C29.3495 33.8126 29.2894 33.825 29.239 33.8545C29.1886 33.8839 29.1511 33.9285 29.133 33.9805C29.1149 34.0326 29.1173 34.0887 29.1398 34.1393C29.1624 34.1899 29.2036 34.2317 29.2563 34.2574L29.4223 34.3383L29.2209 34.4272C28.4103 34.7571 27.7424 35.3227 27.3216 36.0357C26.9009 36.7487 26.7509 37.5687 26.8952 38.3677L27.13 39.5725L26.9306 39.4264Z" fill="#2F2E41"/>
<path d="M130.164 131.342C129.985 131.349 129.809 131.306 129.658 131.219C129.507 131.132 129.389 131.005 129.321 130.855C129.252 130.704 129.235 130.539 129.273 130.379C129.311 130.22 129.402 130.076 129.533 129.965L129.592 129.749C129.585 129.732 129.577 129.714 129.569 129.697C129.389 129.31 129.088 128.98 128.703 128.748C128.319 128.517 127.868 128.394 127.407 128.396C126.946 128.397 126.496 128.523 126.114 128.757C125.731 128.991 125.433 129.323 125.256 129.712C124.551 131.261 123.653 132.814 123.432 134.452C123.335 135.176 123.376 135.911 123.553 136.622C121.897 133.325 121.037 129.742 121.031 126.116C121.031 125.206 121.086 124.296 121.197 123.392C121.289 122.651 121.416 121.914 121.579 121.184C122.467 117.218 124.373 113.501 127.141 110.338C128.481 109.671 129.564 108.646 130.246 107.4C130.492 106.952 130.667 106.474 130.763 105.98C130.612 105.998 130.459 106.01 130.308 106.019C130.261 106.021 130.211 106.023 130.164 106.025L130.146 106.026C129.98 106.033 129.815 105.996 129.672 105.919C129.528 105.843 129.412 105.73 129.337 105.594C129.262 105.459 129.232 105.306 129.25 105.156C129.268 105.005 129.333 104.862 129.438 104.744C129.503 104.671 129.568 104.598 129.634 104.524C129.733 104.411 129.834 104.301 129.933 104.188C129.945 104.177 129.956 104.166 129.966 104.154C130.08 104.025 130.194 103.898 130.308 103.769C130.1 103.475 129.82 103.228 129.49 103.048C128.348 102.438 126.772 102.861 125.947 103.803C125.119 104.746 124.963 106.068 125.251 107.246C125.533 108.248 126.001 109.199 126.633 110.058C126.571 110.13 126.507 110.2 126.445 110.273C125.313 111.601 124.326 113.027 123.498 114.531C123.7 112.846 123.459 111.142 122.798 109.558C122.127 108.082 120.87 106.839 119.763 105.563C118.434 104.031 115.707 104.7 115.473 106.643C115.471 106.661 115.468 106.68 115.466 106.699C115.631 106.784 115.792 106.873 115.949 106.968C116.147 107.089 116.3 107.261 116.389 107.463C116.478 107.664 116.497 107.885 116.446 108.097C116.394 108.309 116.274 108.502 116.1 108.65C115.927 108.799 115.708 108.896 115.473 108.929L115.449 108.932C115.507 109.473 115.611 110.009 115.759 110.535C116.186 112.004 116.942 113.377 117.979 114.567C119.015 115.757 120.31 116.739 121.782 117.452C121.879 117.497 121.973 117.542 122.069 117.585C121.238 119.734 120.717 121.973 120.518 124.244C120.406 125.584 120.413 126.931 120.538 128.27L120.531 128.222C120.213 126.733 119.343 125.39 118.065 124.418C116.168 122.996 113.488 122.473 111.441 121.33C111.224 121.203 110.971 121.135 110.712 121.134C110.454 121.133 110.2 121.2 109.982 121.327C109.764 121.453 109.59 121.634 109.481 121.848C109.371 122.061 109.331 122.299 109.365 122.533C109.368 122.55 109.371 122.566 109.374 122.583C109.679 122.696 109.976 122.827 110.263 122.974C110.428 123.058 110.588 123.148 110.746 123.243C110.944 123.364 111.097 123.536 111.186 123.738C111.274 123.939 111.294 124.16 111.243 124.372C111.191 124.584 111.071 124.777 110.897 124.925C110.724 125.074 110.505 125.171 110.27 125.204L110.246 125.207C110.228 125.209 110.214 125.212 110.196 125.214C110.718 126.35 111.449 127.395 112.359 128.304C113.483 129.404 114.842 130.284 116.352 130.888C117.862 131.493 119.491 131.809 121.14 131.819H121.143C121.59 133.593 122.239 135.32 123.078 136.972H129.99C130.015 136.902 130.038 136.83 130.06 136.76C129.42 136.797 128.778 136.762 128.147 136.656C128.66 136.082 129.173 135.503 129.686 134.929C129.697 134.918 129.708 134.907 129.718 134.895C129.978 134.601 130.241 134.31 130.501 134.016L130.501 134.016C130.515 133.115 130.402 132.216 130.164 131.342L130.164 131.342Z" fill="#E6E6E6"/>
<path d="M163.392 33.5514C163.525 33.6596 163.619 33.8025 163.66 33.9609C163.702 34.1194 163.689 34.2855 163.623 34.437C163.557 34.5884 163.442 34.7178 163.293 34.8076C163.144 34.8973 162.969 34.9432 162.79 34.9389L162.582 35.0558C162.575 35.0732 162.567 35.0907 162.559 35.1081C162.392 35.4997 162.355 35.9277 162.453 36.3384C162.552 36.7491 162.781 37.1241 163.112 37.4163C163.443 37.7086 163.861 37.9051 164.315 37.9811C164.768 38.0571 165.235 38.0092 165.659 37.8435C167.35 37.1828 169.18 36.6429 170.592 35.6103C171.216 35.1536 171.748 34.6016 172.165 33.979C170.83 37.3947 168.704 40.5084 165.934 43.109C165.238 43.7609 164.502 44.3768 163.731 44.9539C163.098 45.4265 162.444 45.8726 161.768 46.2924C158.098 48.5669 153.89 50.0149 149.487 50.5173C148.018 50.1418 146.457 50.1863 145.016 50.6448C144.497 50.8084 144.006 51.0398 143.559 51.3317C143.681 51.415 143.8 51.5047 143.915 51.5944C143.95 51.6228 143.988 51.6527 144.023 51.6811L144.036 51.6919C144.161 51.7928 144.25 51.9243 144.294 52.0705C144.338 52.2168 144.335 52.3715 144.285 52.5162C144.235 52.6609 144.14 52.7892 144.012 52.8859C143.884 52.9826 143.728 53.0434 143.563 53.061C143.46 53.0719 143.357 53.0828 143.255 53.0936C143.097 53.1114 142.94 53.126 142.782 53.1439C142.766 53.1443 142.749 53.1455 142.733 53.1477C142.553 53.1673 142.375 53.1854 142.194 53.2051C142.118 53.5486 142.13 53.9034 142.228 54.2421C142.579 55.4065 144.031 56.1072 145.343 55.9575C146.657 55.8095 147.78 54.9619 148.476 53.9355C149.04 53.0379 149.432 52.0593 149.637 51.0415C149.736 51.0291 149.836 51.02 149.936 51.0076C151.763 50.7773 153.561 50.3843 155.304 49.834C153.871 50.9125 152.739 52.286 152.001 53.8414C151.352 55.3254 151.302 57.016 151.118 58.6346C150.898 60.5787 153.362 61.8358 155.016 60.5937C155.032 60.5817 155.048 60.5696 155.064 60.5575C155.011 60.3922 154.964 60.2254 154.924 60.0571C154.875 59.8448 154.897 59.6238 154.988 59.4231C155.078 59.2224 155.233 59.0514 155.432 58.9324C155.631 58.8134 155.865 58.752 156.103 58.7563C156.341 58.7605 156.571 58.8303 156.765 58.9563L156.785 58.9692C157.157 58.5448 157.492 58.0952 157.789 57.6243C158.607 56.2998 159.116 54.8355 159.284 53.3232C159.453 51.8108 159.277 50.283 158.768 48.8356C158.733 48.7417 158.7 48.6494 158.664 48.5571C160.903 47.5474 162.989 46.2763 164.869 44.7759C165.975 43.8877 167 42.9193 167.935 41.8803L167.904 41.919C166.992 43.1874 166.587 44.7042 166.759 46.2132C167.03 48.4394 168.549 50.5211 169.14 52.6428C169.198 52.8725 169.328 53.0823 169.512 53.2473C169.697 53.4123 169.929 53.5257 170.182 53.574C170.435 53.6224 170.698 53.6038 170.94 53.5204C171.182 53.4369 171.392 53.2922 171.547 53.1031C171.558 53.0895 171.568 53.0758 171.579 53.062C171.447 52.7866 171.335 52.5039 171.241 52.2156C171.188 52.0503 171.142 51.8835 171.102 51.7152C171.052 51.5029 171.074 51.2819 171.165 51.0812C171.256 50.8805 171.41 50.7095 171.609 50.5905C171.808 50.4715 172.042 50.4101 172.28 50.4144C172.518 50.4187 172.749 50.4884 172.942 50.6144L172.962 50.6274C172.976 50.6368 172.989 50.6446 173.003 50.654C173.498 49.5089 173.774 48.2944 173.818 47.0639C173.855 45.56 173.555 44.0651 172.936 42.6708C172.317 41.2765 171.392 40.0122 170.219 38.9555L170.217 38.9539C171.254 37.3982 172.111 35.7483 172.774 34.031L167.824 29.6293C167.752 29.6637 167.681 29.7013 167.611 29.7373C168.098 30.1184 168.531 30.5524 168.902 31.0297C168.095 31.1143 167.285 31.2021 166.479 31.2867C166.462 31.2871 166.446 31.2883 166.43 31.2904C166.019 31.3352 165.607 31.3768 165.196 31.4216L165.196 31.4218C164.497 32.058 163.89 32.7736 163.392 33.5511L163.392 33.5514Z" fill="#E6E6E6"/>
<path d="M44.2161 51.2039L37.9824 57.6652L41.5224 60.7767C41.5224 60.7767 46.6567 53.0906 46.8274 52.7934C47.2992 52.732 47.7394 52.5414 48.0898 52.2468C48.4403 51.9522 48.6844 51.5674 48.79 51.1434C48.8955 50.7195 48.8575 50.2763 48.6809 49.8724C48.5044 49.4686 48.1976 49.1232 47.8012 48.8819C47.4048 48.6406 46.9374 48.5148 46.4609 48.5211C45.9844 48.5274 45.5212 48.6655 45.1326 48.9172C44.744 49.1689 44.4483 49.5223 44.2847 49.9306C44.121 50.3389 44.0971 50.783 44.2161 51.2039Z" fill="#A0616A"/>
<path d="M22.4414 47.2839C22.5698 54.028 28.1806 59.5793 32.4326 65.6673C33.0587 66.0446 33.7643 66.2986 34.5042 66.413C35.2441 66.5273 36.002 66.4996 36.7295 66.3316C37.457 66.1635 38.138 65.8588 38.729 65.437C39.3201 65.0151 39.8081 64.4854 40.162 63.8817L43.8907 57.6017L39.1453 56.3897L36.6281 57.8966L31.3767 52.2707L22.4414 47.2839Z" fill="#3F3D56"/>
</g>
<defs>
<clipPath id="clip0_2062_706">
<rect width="257" height="182" fill="white"/>
</clipPath>
</defs>
</svg>
