<svg width="257" height="182" viewBox="0 0 257 182" fill="none" xmlns="http://www.w3.org/2000/svg">
<path d="M249.422 176.261H7.17773V176.812H249.422V176.261Z" fill="#3F3D56"/>
<path d="M26.2305 76.3816L26.0273 76.8887L249.143 176.491L249.346 175.983L26.2305 76.3816Z" fill="#3F3D56"/>
<path d="M249.422 76.3357H7.17773V76.8863H249.422V76.3357Z" fill="#3F3D56"/>
<path d="M216.567 88.3102C216.6 99.9587 214.459 111.5 210.265 122.274C206.072 133.049 199.908 142.845 192.126 151.104C191.268 152.015 190.391 152.905 189.495 153.774C188.415 154.825 187.308 155.845 186.173 156.832C185.956 157.022 185.74 157.209 185.521 157.394C181.037 161.23 176.18 164.555 171.033 167.312C170.728 167.474 170.423 167.637 170.115 167.796C169.628 168.05 169.135 168.297 168.642 168.54C150.398 177.502 129.651 178.988 110.428 172.71C76.7717 161.683 52.2891 128.068 52.2891 88.3102C52.2891 39.5835 89.0638 0.0839844 134.428 0.0839844C179.792 0.0839844 216.567 39.5835 216.567 88.3102Z" fill="#4D9BD5"/>
<path d="M152.715 69.8023L152.78 69.7996L152.523 69.2034C152.234 68.3588 151.881 67.5403 151.467 66.7558L143.922 49.2674C143.681 48.7092 143.291 48.2374 142.8 47.9099C142.309 47.5823 141.738 47.4133 141.157 47.4235L131.602 47.5916C130.984 47.6024 130.385 47.8156 129.886 48.2015C129.388 48.5874 129.016 49.127 128.821 49.746L122.814 68.7918C122.616 69.3252 122.444 69.8689 122.3 70.421L122.096 71.0676L122.144 71.0657C121.587 73.5774 121.588 76.1908 122.145 78.7023C122.702 81.2138 123.801 83.5555 125.357 85.5448C126.912 87.5342 128.882 89.1174 131.112 90.1711C133.343 91.2249 135.773 91.7206 138.215 91.6197C140.657 91.5188 143.043 90.824 145.188 89.5894C147.334 88.3549 149.18 86.614 150.584 84.5023C151.987 82.3907 152.91 79.9655 153.279 77.4157C153.649 74.8659 153.456 72.2604 152.715 69.8023H152.715Z" fill="#3F3D56"/>
<path d="M134.907 51.8684L131.9 69.2202L132.24 69.2857L135.246 51.9339L134.907 51.8684Z" fill="#4D9BD5"/>
<path d="M138.521 51.8046L138.184 51.882L141.733 69.1191L142.07 69.0417L138.521 51.8046Z" fill="#4D9BD5"/>
<path d="M130.562 39.0512L142.806 38.8359C142.897 38.8343 142.985 38.8711 143.051 38.9382C143.117 39.0054 143.155 39.0973 143.156 39.1939C143.158 39.2905 143.123 39.3837 143.059 39.4531C142.996 39.5226 142.909 39.5625 142.817 39.5641L130.573 39.7794C130.528 39.7802 130.483 39.7716 130.441 39.754C130.399 39.7364 130.36 39.7103 130.328 39.677C130.295 39.6438 130.269 39.6041 130.251 39.5602C130.233 39.5164 130.223 39.4692 130.223 39.4214C130.222 39.3735 130.23 39.326 130.247 39.2816C130.263 39.2371 130.288 39.1965 130.32 39.1621C130.351 39.1278 130.389 39.1003 130.43 39.0812C130.472 39.0622 130.517 39.052 130.562 39.0512Z" fill="#3F3D56"/>
<path d="M130.691 41.7804L142.935 41.5651C143.026 41.5635 143.114 41.6003 143.18 41.6675C143.246 41.7346 143.284 41.8266 143.285 41.9232C143.287 42.0197 143.252 42.113 143.188 42.1824C143.125 42.2518 143.038 42.2917 142.946 42.2933L130.702 42.5086C130.611 42.5103 130.522 42.4734 130.457 42.4063C130.391 42.3391 130.353 42.2472 130.352 42.1506C130.35 42.054 130.385 41.9608 130.449 41.8914C130.512 41.822 130.599 41.7821 130.691 41.7804Z" fill="#3F3D56"/>
<path d="M130.82 44.5097L143.064 44.2944C143.155 44.2928 143.243 44.3296 143.309 44.3967C143.375 44.4639 143.413 44.5558 143.414 44.6524C143.416 44.749 143.381 44.8422 143.317 44.9116C143.254 44.9811 143.166 45.021 143.075 45.0226L130.831 45.2379C130.74 45.2395 130.651 45.2027 130.586 45.1355C130.52 45.0684 130.482 44.9764 130.481 44.8799C130.479 44.7833 130.514 44.69 130.577 44.6206C130.641 44.5512 130.728 44.5113 130.82 44.5097Z" fill="#3F3D56"/>
<path d="M136.642 36.3464C134.214 36.3891 132.267 37.8527 132.295 39.6153L141.09 39.4607C141.062 37.698 139.071 36.3037 136.642 36.3464Z" fill="#3F3D56"/>
<path d="M137.995 71.7828C138.475 71.8171 138.929 72.0222 139.285 72.3646C139.376 72.4442 139.465 72.5276 139.555 72.6112C139.838 72.9238 140.186 73.1639 140.571 73.3132C141.413 73.5559 142.245 72.8525 142.948 72.1322L143.188 72.3933C142.416 73.1854 141.491 73.9555 140.48 73.6645C140.043 73.5022 139.648 73.2351 139.326 72.8841C139.239 72.803 139.152 72.7221 139.064 72.6448C138.776 72.3925 138.22 71.9998 137.725 72.2035C137.519 72.3092 137.337 72.458 137.188 72.6408C137.072 72.769 136.948 72.8874 136.815 72.9951C136.543 73.1987 136.22 73.3129 135.887 73.3234C135.554 73.3339 135.226 73.2401 134.943 73.0539C134.841 72.9823 134.743 72.9049 134.65 72.822C134.496 72.6613 134.305 72.5464 134.096 72.4891C133.803 72.4457 133.537 72.6666 133.254 72.9002C132.987 73.1742 132.646 73.3532 132.278 73.4121C132.266 73.4128 132.253 73.4133 132.241 73.4135C131.553 73.4256 131.117 72.6998 130.848 72.148L131.154 71.9811C131.521 72.7312 131.874 73.0732 132.26 73.0484C132.556 72.9886 132.828 72.8373 133.041 72.6138C133.368 72.3434 133.706 72.0639 134.144 72.1284C134.416 72.1911 134.667 72.3333 134.867 72.5389C134.951 72.6133 135.038 72.6829 135.129 72.7474C135.354 72.8925 135.614 72.9654 135.877 72.9571C136.14 72.9489 136.396 72.8598 136.612 72.7009C136.73 72.6042 136.841 72.4981 136.944 72.3834C137.125 72.1635 137.348 71.9866 137.599 71.8642C137.725 71.8124 137.859 71.7848 137.995 71.7828Z" fill="#4D9BD5"/>
<path d="M137.03 0H136.672V36.3316H137.03V0Z" fill="#3F3D56"/>
<path d="M245.222 62.9476C243.037 71.4772 235.55 76.7598 235.55 76.7598C235.55 76.7598 231.607 68.2132 233.793 59.6836C235.979 51.1539 243.465 45.8713 243.465 45.8713C243.465 45.8713 247.408 54.418 245.222 62.9476Z" fill="#4D9BD5"/>
<path d="M225.338 62.9476C227.524 71.4772 235.01 76.7598 235.01 76.7598C235.01 76.7598 238.953 68.2132 236.767 59.6836C234.582 51.1539 227.095 45.8713 227.095 45.8713C227.095 45.8713 223.152 54.418 225.338 62.9476Z" fill="#4D9BD5"/>
<path d="M228.55 61.1146C234.547 67.2781 235.28 76.7529 235.28 76.7529C235.28 76.7529 226.288 76.2347 220.291 70.0711C214.293 63.9075 213.561 54.4327 213.561 54.4327C213.561 54.4327 222.552 54.951 228.55 61.1146Z" fill="#3F3D56"/>
<path d="M242.011 61.1146C236.014 67.2781 235.281 76.7529 235.281 76.7529C235.281 76.7529 244.273 76.2347 250.27 70.0711C256.268 63.9075 257.001 54.4327 257.001 54.4327C257.001 54.4327 248.009 54.951 242.011 61.1146Z" fill="#3F3D56"/>
<path d="M31.6617 162.598C29.476 171.127 21.9894 176.41 21.9894 176.41C21.9894 176.41 18.0466 167.863 20.2323 159.334C22.418 150.804 29.9046 145.522 29.9046 145.522C29.9046 145.522 33.8475 154.068 31.6617 162.598Z" fill="#4D9BD5"/>
<path d="M11.7772 162.598C13.963 171.127 21.4496 176.41 21.4496 176.41C21.4496 176.41 25.3924 167.863 23.2067 159.334C21.0209 150.804 13.5344 145.522 13.5344 145.522C13.5344 145.522 9.59152 154.068 11.7772 162.598Z" fill="#4D9BD5"/>
<path d="M14.9892 160.765C20.9869 166.928 21.7194 176.403 21.7194 176.403C21.7194 176.403 12.7279 175.885 6.73023 169.721C0.732568 163.558 0 154.083 0 154.083C0 154.083 8.99156 154.601 14.9892 160.765Z" fill="#3F3D56"/>
<path d="M28.449 160.765C22.4513 166.928 21.7188 176.403 21.7188 176.403C21.7188 176.403 30.7103 175.885 36.708 169.721C42.7056 163.558 43.4382 154.083 43.4382 154.083C43.4382 154.083 34.4466 154.601 28.449 160.765Z" fill="#3F3D56"/>
<path d="M174.797 83.8006C177.567 83.8006 179.812 81.4301 179.812 78.5058C179.812 75.5816 177.567 73.2111 174.797 73.2111C172.027 73.2111 169.781 75.5816 169.781 78.5058C169.781 81.4301 172.027 83.8006 174.797 83.8006Z" fill="#2F2E41"/>
<path d="M169.424 76.2367C169.424 74.9308 169.881 73.671 170.708 72.6994C171.534 71.7279 172.672 71.1131 173.902 70.9732C173.202 70.8924 172.493 70.9684 171.822 71.1961C171.151 71.4237 170.533 71.7981 170.009 72.2947C169.484 72.7913 169.065 73.3989 168.777 74.0782C168.49 74.7574 168.342 75.4929 168.342 76.2367C168.342 76.9805 168.49 77.716 168.777 78.3952C169.065 79.0744 169.484 79.6821 170.009 80.1787C170.533 80.6753 171.151 81.0496 171.822 81.2773C172.493 81.505 173.202 81.5809 173.902 81.5002C172.672 81.3603 171.534 80.7455 170.708 79.7739C169.881 78.8024 169.424 77.5426 169.424 76.2367Z" fill="#2F2E41"/>
<path d="M169.782 78.5059C169.782 78.5059 169.003 82.2879 173.871 83.8007L169.782 78.5059Z" fill="#4D9BD5"/>
<path d="M176.871 114.47C186.17 114.47 193.709 106.512 193.709 96.6951C193.709 86.8781 186.17 78.9198 176.871 78.9198C167.572 78.9198 160.033 86.8781 160.033 96.6951C160.033 106.512 167.572 114.47 176.871 114.47Z" fill="#2F2E41"/>
<path d="M186.172 156.832C185.955 157.022 185.739 157.209 185.52 157.394C181.035 161.23 176.179 164.555 171.032 167.312C170.727 167.474 170.422 167.637 170.114 167.796C169.627 168.05 169.134 168.297 168.641 168.54L160.01 165.503L160.109 163.32V163.312L160.484 154.988L160.612 152.141L186.172 156.832Z" fill="#A0616A"/>
<path d="M170.115 167.796C169.627 168.05 169.134 168.297 168.641 168.54C165.27 170.204 161.792 171.618 158.234 172.771C158.216 172.716 158.206 172.658 158.203 172.6L160.01 163.276L160.109 163.32L170.115 167.796Z" fill="#2F2E41"/>
<path d="M172.668 115.554C178.826 115.554 183.819 110.284 183.819 103.783C183.819 97.2816 178.826 92.0114 172.668 92.0114C166.51 92.0114 161.518 97.2816 161.518 103.783C161.518 110.284 166.51 115.554 172.668 115.554Z" fill="#A0616A"/>
<path d="M181.709 104.419C181.709 104.419 183.517 113.963 186.832 116.19L168.449 139.097L161.518 132.097L166.641 122.553C166.641 122.553 172.367 119.054 170.559 114.281L181.709 104.419Z" fill="#A0616A"/>
<path d="M203.525 136.029C200.258 141.478 196.435 146.533 192.125 151.104C191.94 146.837 191.538 143.319 190.751 142.278C190.749 142.278 190.747 142.277 190.746 142.275L181.105 139.096C181.105 139.096 183.215 118.098 188.339 117.145C188.339 117.145 189.082 117.305 190.237 117.674C193.961 118.858 201.956 122.194 203.106 129.233C203.433 131.481 203.573 133.755 203.525 136.029Z" fill="#A0616A"/>
<path d="M166.641 122.553C166.641 122.553 157.6 122.235 151.875 129.87C146.149 137.506 132.286 143.233 132.286 143.233L97.629 157.549C97.629 157.549 91.3003 145.778 87.3826 149.914C83.4648 154.049 94.6153 164.548 99.7385 163.276C104.862 162.003 135.902 152.141 135.902 152.141L160.614 140.369L166.641 122.553Z" fill="#A0616A"/>
<path d="M190.752 142.278L189.495 153.774C188.416 154.825 187.308 155.845 186.173 156.832C185.957 157.022 185.74 157.209 185.521 157.394C176.82 154.578 163.185 154.891 160.486 154.988C160.178 154.996 160.011 155.004 160.011 155.004L159.711 148.323C156.819 147.308 155.87 145.086 155.844 142.642C155.8 138.21 158.806 133.051 158.806 133.051C159.346 132.481 163.38 124.407 164.215 122.734C164.311 122.538 164.366 122.431 164.366 122.431L167.983 121.478C167.983 121.478 167.972 121.509 167.951 121.564C167.628 122.519 164.817 131.16 169.657 131.46C174.418 131.757 184.775 117.641 186.202 115.662C186.309 115.513 186.366 115.433 186.366 115.433L190.285 117.66C190.27 117.666 190.254 117.668 190.238 117.674C187.844 118.376 185.628 124.462 185.628 124.462C179.378 136.09 190.473 142.13 190.747 142.275C190.748 142.277 190.75 142.278 190.752 142.278Z" fill="#D0CDE1"/>
<path d="M173.275 89.9655C167.339 89.9655 162.527 92.9286 162.527 96.5839C162.527 98.2195 163.495 99.7142 165.091 100.869L167.16 99.2864L166.597 101.766C166.831 101.88 167.069 101.991 167.318 102.093L170.409 98.2858V102.963C171.357 103.123 172.315 103.203 173.275 103.202C179.211 103.202 184.022 100.239 184.022 96.5839C184.022 92.9286 179.211 89.9655 173.275 89.9655Z" fill="#2F2E41"/>
<path d="M195.291 92.0725C198.061 92.0725 200.306 89.7019 200.306 86.7777C200.306 83.8535 198.061 81.4829 195.291 81.4829C192.521 81.4829 190.275 83.8535 190.275 86.7777C190.275 89.7019 192.521 92.0725 195.291 92.0725Z" fill="#2F2E41"/>
<path d="M189.916 84.5084C189.916 83.2025 190.373 81.9427 191.2 80.9712C192.027 79.9996 193.164 79.3848 194.394 79.2449C194.216 79.2245 194.036 79.214 193.857 79.2136C193.175 79.2126 192.5 79.3584 191.873 79.642C191.246 79.9257 190.681 80.3413 190.212 80.8635C189.742 81.3856 189.379 82.0034 189.143 82.6789C188.907 83.3545 188.805 84.0736 188.841 84.7925C188.878 85.5113 189.053 86.2148 189.356 86.8598C189.659 87.5048 190.083 88.0778 190.602 88.5439C191.122 89.0099 191.727 89.3592 192.378 89.5703C193.03 89.7815 193.716 89.8501 194.394 89.7719C193.164 89.632 192.027 89.0172 191.2 88.0456C190.373 87.0741 189.916 85.8143 189.916 84.5084Z" fill="#2F2E41"/>
<path d="M190.274 86.7776C190.274 86.7776 189.495 90.5596 194.363 92.0724L190.274 86.7776Z" fill="#4D9BD5"/>
<path d="M184.271 104.896C184.752 104.896 185.142 103.97 185.142 102.828C185.142 101.686 184.752 100.76 184.271 100.76C183.79 100.76 183.4 101.686 183.4 102.828C183.4 103.97 183.79 104.896 184.271 104.896Z" fill="#A0616A"/>
<path d="M88.1839 110.828L74.9694 114.208L74.9264 114.219L73.4899 115.592L73.0765 115.986L72.1901 115.817L70.6211 115.518L71.7145 111.622L71.9195 104.191L71.1678 99.6461L75.3364 96.6161C75.3364 96.6161 83.4686 96.1111 88.1839 110.828Z" fill="#D0CDE1"/>
<path opacity="0.1" d="M74.9694 114.208C74.7904 114.611 75.1656 114.345 74.9605 114.76L73.0471 115.409L72.1901 115.817L70.6211 115.518L71.7145 111.622L71.9195 104.191L71.1678 99.6461L75.3364 96.6161C75.3364 96.6161 79.8105 103.305 74.9694 114.208Z" fill="black"/>
<path d="M103.764 100.151C103.764 100.151 86.4059 108.664 79.3671 109.963C72.3283 111.261 72.9433 118.692 72.9433 118.692L112.374 112.199C112.374 112.199 111.007 105.49 103.764 100.151Z" fill="#D0CDE1"/>
<path d="M70.2792 98.7084C70.2792 98.7084 73.2861 106.428 69.9375 116.023L73.8328 117.898L75.3362 116.023L75.3703 115.842L71.2359 115.445C71.2359 115.445 74.6528 105.778 71.8509 99.0691C71.851 99.0691 71.2359 97.6262 70.2792 98.7084Z" fill="#4D9BD5"/>
<path d="M127.614 155.918C112.238 152.31 97.9209 159.777 97.9209 159.777L97.8819 159.74L92.1805 154.366L69.9023 115.986L75.3352 116.023C90.4379 106.5 111.691 107.798 111.691 107.798C120.848 118.764 127.614 155.918 127.614 155.918Z" fill="#3F3D56"/>
<path opacity="0.1" d="M97.8819 159.74L92.1805 154.366L69.9023 115.986L75.3352 116.023C75.3352 116.023 96.9887 146.214 97.8819 159.74Z" fill="black"/>
<path d="M100.384 129.794C105.039 128.287 108.077 124.533 107.169 121.41C106.262 118.286 101.753 116.976 97.098 118.483C92.4433 119.99 89.4056 123.744 90.3131 126.868C91.2207 129.991 95.7297 131.301 100.384 129.794Z" fill="#D0CDE1"/>
<path d="M7.24738 81.5239C9.98362 81.5239 12.2018 79.1822 12.2018 76.2936C12.2018 73.405 9.98362 71.0634 7.24738 71.0634C4.51113 71.0634 2.29297 73.405 2.29297 76.2936C2.29297 79.1822 4.51113 81.5239 7.24738 81.5239Z" fill="#3F3D56"/>
<path d="M249.232 182C251.968 182 254.186 179.658 254.186 176.77C254.186 173.881 251.968 171.539 249.232 171.539C246.496 171.539 244.277 173.881 244.277 176.77C244.277 179.658 246.496 182 249.232 182Z" fill="#3F3D56"/>
<path d="M28.8899 80.9734C31.0501 80.9734 32.8013 79.1247 32.8013 76.8442C32.8013 74.5638 31.0501 72.7151 28.8899 72.7151C26.7297 72.7151 24.9785 74.5638 24.9785 76.8442C24.9785 79.1247 26.7297 80.9734 28.8899 80.9734Z" fill="#4D9BD5"/>
<path d="M249.232 80.9734C251.392 80.9734 253.143 79.1247 253.143 76.8442C253.143 74.5638 251.392 72.7151 249.232 72.7151C247.071 72.7151 245.32 74.5638 245.32 76.8442C245.32 79.1247 247.071 80.9734 249.232 80.9734Z" fill="#4D9BD5"/>
<path d="M7.24731 180.348C9.40751 180.348 11.1587 178.5 11.1587 176.219C11.1587 173.939 9.40751 172.09 7.24731 172.09C5.08712 172.09 3.33594 173.939 3.33594 176.219C3.33594 178.5 5.08712 180.348 7.24731 180.348Z" fill="#4D9BD5"/>
</svg>
