<svg width="257" height="182" viewBox="0 0 257 182" fill="none" xmlns="http://www.w3.org/2000/svg">
<path d="M256.999 67.392H148.973V70.4377H256.999V67.392Z" fill="#E6E6E6"/>
<path d="M185.271 41.9185H157.904V68.2226H185.271V41.9185Z" fill="#E6E6E6"/>
<path d="M179.797 47.1793H163.377V62.9618H179.797V47.1793Z" fill="#CCCCCC"/>
<path d="M226.177 41.9185H219.264V68.2226H226.177V41.9185Z" fill="#E6E6E6"/>
<path d="M226.177 46.0718H219.264V49.1175H226.177V46.0718Z" fill="#CCCCCC"/>
<path d="M226.177 59.3623H219.264V62.4081H226.177V59.3623Z" fill="#CCCCCC"/>
<path d="M215.517 41.9185H208.604V68.2226H215.517V41.9185Z" fill="#E6E6E6"/>
<path d="M215.517 46.0718H208.604V49.1175H215.517V46.0718Z" fill="#CCCCCC"/>
<path d="M215.517 59.3623H208.604V62.4081H215.517V59.3623Z" fill="#CCCCCC"/>
<path d="M232.133 41.8097L225.938 44.7582L238.08 68.3314L244.276 65.383L232.133 41.8097Z" fill="#E6E6E6"/>
<path d="M234.051 45.5318L227.855 48.4803L229.261 51.2098L235.457 48.2614L234.051 45.5318Z" fill="#CCCCCC"/>
<path d="M240.186 57.4426L233.99 60.391L235.396 63.1205L241.592 60.1721L240.186 57.4426Z" fill="#CCCCCC"/>
<path d="M168.129 52.4771L171.611 58.2732L175.093 64.0694H168.129H161.166L164.648 58.2732L168.129 52.4771Z" fill="#E6E6E6"/>
<path d="M174.18 53.5846L177.661 59.3808L181.143 65.177H174.18H167.217L170.698 59.3808L174.18 53.5846Z" fill="#E6E6E6"/>
<path d="M176.628 51.8864C177.742 51.8864 178.644 51.0186 178.644 49.9482C178.644 48.8778 177.742 48.01 176.628 48.01C175.514 48.01 174.611 48.8778 174.611 49.9482C174.611 51.0186 175.514 51.8864 176.628 51.8864Z" fill="#E6E6E6"/>
<path d="M148.973 28.628L257 28.628V25.5822L148.973 25.5822V28.628Z" fill="#E6E6E6"/>
<path d="M220.704 26.413L248.07 26.413V0.108812L220.704 0.108812V26.413Z" fill="#E6E6E6"/>
<path d="M226.176 21.1521L242.596 21.1521V5.36962L226.176 5.36962V21.1521Z" fill="#CCCCCC"/>
<path d="M179.797 26.413H186.711V0.108812H179.797V26.413Z" fill="#E6E6E6"/>
<path d="M179.797 7.30774L186.711 7.30774V4.262L179.797 4.262V7.30774Z" fill="#CCCCCC"/>
<path d="M179.797 20.5983H186.711V17.5525H179.797V20.5983Z" fill="#CCCCCC"/>
<path d="M190.455 26.413H197.369V0.108812H190.455V26.413Z" fill="#E6E6E6"/>
<path d="M190.455 7.30774L197.369 7.30774V4.262L190.455 4.262V7.30774Z" fill="#CCCCCC"/>
<path d="M190.455 20.5983H197.369V17.5525H190.455V20.5983Z" fill="#CCCCCC"/>
<path d="M161.699 23.5733L167.895 26.5217L180.037 2.94848L173.841 4.63468e-05L161.699 23.5733Z" fill="#E6E6E6"/>
<path d="M170.517 6.45159L176.713 9.40002L178.119 6.67049L171.923 3.72206L170.517 6.45159Z" fill="#CCCCCC"/>
<path d="M164.382 18.3624L170.578 21.3108L171.984 18.5813L165.788 15.6328L164.382 18.3624Z" fill="#CCCCCC"/>
<path d="M237.844 10.6671L234.362 16.4633L230.881 22.2595H237.844H244.807L241.326 16.4633L237.844 10.6671Z" fill="#E6E6E6"/>
<path d="M231.793 11.7747L228.312 17.5708L224.83 23.367H231.793H238.757L235.275 17.5708L231.793 11.7747Z" fill="#E6E6E6"/>
<path d="M229.345 10.0767C230.458 10.0767 231.361 9.20895 231.361 8.13852C231.361 7.06808 230.458 6.20032 229.345 6.20032C228.231 6.20032 227.328 7.06808 227.328 8.13852C227.328 9.20895 228.231 10.0767 229.345 10.0767Z" fill="#E6E6E6"/>
<path d="M148.973 112.247L257 112.247V109.202L148.973 109.202V112.247Z" fill="#E6E6E6"/>
<path d="M220.704 110.032H248.07V83.7283H220.704V110.032Z" fill="#E6E6E6"/>
<path d="M226.176 104.772H242.596V88.9891H226.176V104.772Z" fill="#CCCCCC"/>
<path d="M179.797 110.032H186.711V83.7283H179.797V110.032Z" fill="#E6E6E6"/>
<path d="M179.797 90.9272H186.711V87.8815H179.797V90.9272Z" fill="#CCCCCC"/>
<path d="M179.797 104.218H186.711V101.172H179.797V104.218Z" fill="#CCCCCC"/>
<path d="M190.455 110.032H197.369V83.7283H190.455V110.032Z" fill="#E6E6E6"/>
<path d="M190.455 90.9272H197.369V87.8815H190.455V90.9272Z" fill="#CCCCCC"/>
<path d="M190.455 104.218H197.369V101.172H190.455V104.218Z" fill="#CCCCCC"/>
<path d="M161.699 107.193L167.895 110.141L180.037 86.5679L173.841 83.6195L161.699 107.193Z" fill="#E6E6E6"/>
<path d="M170.517 90.0711L176.713 93.0195L178.119 90.29L171.923 87.3416L170.517 90.0711Z" fill="#CCCCCC"/>
<path d="M164.382 101.982L170.578 104.93L171.984 102.201L165.788 99.2523L164.382 101.982Z" fill="#CCCCCC"/>
<path d="M237.844 94.2866L234.362 100.083L230.881 105.879H237.844H244.807L241.326 100.083L237.844 94.2866Z" fill="#E6E6E6"/>
<path d="M231.793 95.3942L228.312 101.19L224.83 106.987H231.793H238.757L235.275 101.19L231.793 95.3942Z" fill="#E6E6E6"/>
<path d="M229.345 93.6962C230.458 93.6962 231.361 92.8284 231.361 91.758C231.361 90.6875 230.458 89.8198 229.345 89.8198C228.231 89.8198 227.328 90.6875 227.328 91.758C227.328 92.8284 228.231 93.6962 229.345 93.6962Z" fill="#E6E6E6"/>
<path d="M127.255 182C197.537 182 254.511 178.111 254.511 173.313C254.511 168.515 197.537 164.626 127.255 164.626C56.9742 164.626 0 168.515 0 173.313C0 178.111 56.9742 182 127.255 182Z" fill="#E6E6E6"/>
<path d="M226.675 178.178C205.925 174.628 183.234 175.218 159.432 178.178C170.28 169.375 179.643 160.572 168.795 151.769C189.956 155.965 192.92 155.54 216.46 151.769C211 160.572 221.214 169.375 226.675 178.178Z" fill="#4D9BD5"/>
<path opacity="0.2" d="M226.675 178.178C205.925 174.628 183.234 175.218 159.432 178.178C170.28 169.375 179.643 160.572 168.795 151.769C189.956 155.965 192.92 155.54 216.46 151.769C211 160.572 221.214 169.375 226.675 178.178Z" fill="black"/>
<path d="M221.613 174.422C203.986 171.589 184.711 172.06 164.492 174.422C173.708 167.395 181.661 160.369 172.446 153.342C190.422 156.692 192.939 156.352 212.936 153.342C208.298 160.369 216.974 167.395 221.613 174.422Z" fill="#4D9BD5"/>
<path d="M214.9 163.1C220.086 163.1 224.291 159.059 224.291 154.073C224.291 149.088 220.086 145.046 214.9 145.046C209.713 145.046 205.508 149.088 205.508 154.073C205.508 159.059 209.713 163.1 214.9 163.1Z" fill="#2F2E41"/>
<path d="M172.265 143.603L178.773 144.645L182.027 153.68L172.627 159.24L161.781 143.603H171.904H172.265Z" fill="#A0616A"/>
<path d="M190.701 157.502C199.087 157.502 205.885 150.968 205.885 142.908C205.885 134.848 199.087 128.314 190.701 128.314C182.316 128.314 175.518 134.848 175.518 142.908C175.518 150.968 182.316 157.502 190.701 157.502Z" fill="#A0616A"/>
<path d="M106.83 89.743C106.83 89.743 69.9549 93.5653 63.4475 92.8703C56.9402 92.1754 54.048 91.4804 54.048 91.4804C54.048 91.4804 49.7097 97.0401 51.8788 99.4725C53.0937 100.874 54.5637 102.052 56.2171 102.947C56.2171 102.947 60.1938 101.905 63.086 102.947C65.9782 103.99 95.2614 108.507 100.323 104.337C105.384 100.168 106.83 89.743 106.83 89.743Z" fill="#2F2E41"/>
<path d="M109.361 167.232C109.361 167.232 85.139 160.63 80.8008 131.441V128.661C80.8008 128.661 76.0083 136.742 74.2934 138.391C72.3051 140.302 65.2554 157.502 65.6169 159.24C65.9784 160.977 65.6169 161.672 65.6169 161.672L55.1328 160.63V157.502C55.1328 157.502 60.7364 141.344 61.0979 137.522C61.4594 133.7 75.0165 107.117 75.0165 107.117C75.0165 107.117 80.0778 97.0401 88.7543 107.117C97.4308 117.194 98.1538 124.144 98.1538 124.144L109.361 144.993L109.361 167.232Z" fill="#2F2E41"/>
<path d="M55.1317 90.438L43.563 86.6156C43.563 86.6156 32.7174 78.971 35.248 86.6156C37.7787 94.2603 49.3473 110.94 52.601 109.202C55.8547 107.465 59.7678 103.152 58.8958 102.528C58.0239 101.905 52.2395 97.3876 55.1317 90.438Z" fill="#2F2E41"/>
<path d="M56.5293 155.451L47.1905 159.835C47.1905 159.835 35.8971 161.505 42.1954 164.636C48.4936 167.767 65.8681 171.107 66.7368 168.185C67.6056 165.262 67.2609 160.412 66.3473 160.541C65.4338 160.67 59.1355 161.296 56.5293 155.451Z" fill="#2F2E41"/>
<path d="M104.66 144.298C104.66 144.298 99.9604 163.757 107.914 167.927C115.867 172.097 171.542 172.792 175.88 165.147C180.218 157.502 178.049 157.502 178.049 157.502L166.48 144.993L175.88 144.298C175.88 144.298 175.88 141.518 172.626 141.171C169.372 140.823 159.25 137.348 150.573 139.781C141.897 142.213 136.836 134.916 136.836 134.916L104.66 144.298Z" fill="#575A89"/>
<path d="M98.5152 83.4883L92.3691 115.804L134.667 110.94L142.259 81.7509L98.5152 83.4883Z" fill="#3F3D56"/>
<path d="M99.7801 84.7045L94.7188 113.546L133.221 109.202L140.632 82.9671L99.7801 84.7045Z" fill="white"/>
<path d="M93.8155 116.152L92.3694 115.804L91.6465 117.194L103.215 148.12L104.303 147.721L104.661 145.688L93.8155 116.152Z" fill="#B3B3B3"/>
<path d="M92.3691 115.457L103.938 147.773L147.682 141.518L134.667 110.94L92.3691 115.457Z" fill="#D0CDE1"/>
<path d="M98.1523 114.414V116.152L130.328 112.677L129.966 110.94L98.1523 114.414Z" fill="#3F3D56"/>
<path d="M98.877 117.889L103.938 131.441L136.837 127.619L131.052 114.762L98.877 117.889Z" fill="#3F3D56"/>
<path d="M140.09 137.001L139.005 134.221C139.005 134.221 130.69 120.322 126.352 123.101C122.014 125.881 135.39 139.433 135.39 139.433H139.728L140.09 137.001Z" fill="#A0616A"/>
<path d="M112.614 139.086L111.53 134.916C111.53 134.916 108.638 122.059 113.699 122.754C118.76 123.449 120.206 135.611 120.206 135.611L119.845 138.391L112.614 139.086Z" fill="#A0616A"/>
<path d="M121.29 137.348C121.29 137.348 111.891 135.958 111.529 138.043C111.168 140.128 109.36 171.402 118.398 172.444C127.436 173.487 172.265 178.004 167.565 167.232C162.865 156.46 155.635 157.85 155.635 157.85L124.906 160.977L121.29 137.348Z" fill="#575A89"/>
<path d="M149.671 141.344L140.09 134.916L133.764 139.607L141.717 147.947L149.671 141.344Z" fill="#575A89"/>
<path opacity="0.2" d="M124.002 147.599L125.448 160.804L150.393 159.414L128.701 159.066L124.002 147.599Z" fill="black"/>
<path d="M198.197 162.934C208.18 162.934 216.273 155.155 216.273 145.56C216.273 135.964 208.18 128.186 198.197 128.186C188.214 128.186 180.121 135.964 180.121 145.56C180.121 155.155 188.214 162.934 198.197 162.934Z" fill="#2F2E41"/>
<path d="M105.203 94.7815L127.617 94.0315L129.787 86.0945L106.649 86.7656L105.203 94.7815Z" fill="#4D9BD5"/>
<path d="M99.418 99.2989L133.401 98.2563L133.762 96.8663L99.7794 98.0164L99.418 99.2989Z" fill="#E6E6E6"/>
<path d="M98.6953 102.774L132.678 101.731L133.04 100.341L99.0568 101.491L98.6953 102.774Z" fill="#E6E6E6"/>
<path d="M98.334 105.553L132.317 104.511L132.679 103.121L98.6954 104.271L98.334 105.553Z" fill="#E6E6E6"/>
</svg>
