<svg width="257" height="182" viewBox="0 0 257 182" fill="none" xmlns="http://www.w3.org/2000/svg">
<path d="M242.933 23.9862H27.7812V135.392H242.933V23.9862Z" fill="#F2F2F2"/>
<path opacity="0.3" d="M118.097 43.0844H48.5859V125.161H118.097V43.0844Z" fill="#4D9BD5"/>
<path d="M200.376 48.9957H144.814V51.9513H200.376V48.9957Z" fill="#3F3D56"/>
<path d="M225.674 54.4522H144.814V57.4079H225.674V54.4522Z" fill="#3F3D56"/>
<path d="M200.376 67.639H144.814V70.5946H200.376V67.639Z" fill="#3F3D56"/>
<path d="M200.376 89.4653H144.814V92.421H200.376V89.4653Z" fill="#3F3D56"/>
<path d="M225.674 73.0956H144.814V76.0512H225.674V73.0956Z" fill="#3F3D56"/>
<path d="M225.674 78.5521H144.814V81.5078H225.674V78.5521Z" fill="#3F3D56"/>
<path d="M225.674 84.0087H144.814V86.9644H225.674V84.0087Z" fill="#3F3D56"/>
<path d="M173.895 102.652H144.814V110.382H173.895V102.652Z" fill="#4D9BD5"/>
<path d="M122.589 38.6508H53.0781V120.727H122.589V38.6508Z" fill="#3F3D56"/>
<path d="M112.659 84.0332C112.659 99.9734 102.805 105.539 90.649 105.539C78.493 105.539 68.6387 99.9734 68.6387 84.0332C68.6387 68.0929 90.649 47.8145 90.649 47.8145C90.649 47.8145 112.659 68.0929 112.659 84.0332Z" fill="#4D9BD5"/>
<path d="M89.8463 103.101L90.0718 89.7602L99.4532 73.2561L90.1071 87.6676L90.2085 81.669L96.6742 69.7284L90.2352 80.0816V80.0818L90.4175 69.2932L97.3412 59.787L90.4461 67.5967L90.5601 47.8145L89.8444 74.0027L89.9033 72.9223L82.864 62.5612L89.7903 74.9961L89.1344 87.0451L89.115 86.7252L81 75.8216L89.0904 87.855L89.0084 89.3619L88.9937 89.3846L89.0003 89.5083L87.3364 120.077H89.5595L89.8264 104.288L97.8968 92.2839L89.8463 103.101Z" fill="#3F3D56"/>
<path d="M31.0915 182C48.1971 182 62.0639 180.27 62.0639 178.135C62.0639 176 48.1971 174.27 31.0915 174.27C13.986 174.27 0.119141 176 0.119141 178.135C0.119141 180.27 13.986 182 31.0915 182Z" fill="#3F3D56"/>
<path d="M16.4605 71.1348L15.4316 73.4845L16.5891 88.6958C16.5891 88.6958 15.9461 89.5615 16.5891 90.1798C17.2321 90.7982 17.1035 91.0455 17.1035 91.0455C17.1035 91.0455 16.0747 91.0455 16.5891 91.7875C17.1035 92.5295 17.1035 92.9005 17.1035 92.9005L16.8463 93.6425C16.8463 93.6425 17.3607 94.2609 17.3607 94.7556C17.3607 95.2502 20.7044 110.462 20.7044 110.462L23.9195 104.402L22.1191 80.2863L16.4605 71.1348Z" fill="#4D9BD5"/>
<path d="M50.2912 109.185C50.2912 109.185 55.9495 113.193 56.1487 116.397C56.348 119.602 48.8549 111.625 48.804 110.726C48.753 109.827 50.2912 109.185 50.2912 109.185Z" fill="#FFB9B9"/>
<path d="M14.7896 169.823L13.3749 174.275C13.3749 174.275 11.3173 178.603 14.1465 179.222C16.9758 179.84 19.6765 177.49 19.6765 177.49V174.522L20.7054 169.823H14.7896Z" fill="#2F2E41"/>
<path d="M37.9388 169.823C37.9388 169.823 37.2958 178.232 38.7104 178.727C40.125 179.222 45.1406 179.345 45.2692 178.727C45.3978 178.109 46.9411 177.49 45.7836 176.625C44.6262 175.759 43.8546 170.688 43.8546 170.688L37.9388 169.823Z" fill="#2F2E41"/>
<path d="M24.949 90.1798V93.8899C24.949 93.8899 20.705 102.423 19.1618 115.903C17.6185 129.383 12.3457 170.441 13.6318 171.183C14.9178 171.925 28.8071 172.42 29.1929 171.43C29.5787 170.441 29.9645 141.502 29.9645 141.502L34.7229 121.097C34.7229 121.097 35.6231 128.394 36.3947 129.63C37.1663 130.867 35.1087 171.059 36.3947 171.678C37.6808 172.296 55.0423 173.409 54.7851 171.43C54.5279 169.452 48.7407 115.779 48.7407 115.779C48.7407 115.779 45.7828 90.4271 44.8826 90.1798C43.9824 89.9325 35.7517 89.6851 34.4657 89.9325C33.1796 90.1798 24.949 90.1798 24.949 90.1798Z" fill="#2F2E41"/>
<path d="M34.723 59.5099C38.7715 59.5099 42.0534 56.3539 42.0534 52.4608C42.0534 48.5676 38.7715 45.4116 34.723 45.4116C30.6745 45.4116 27.3926 48.5676 27.3926 52.4608C27.3926 56.3539 30.6745 59.5099 34.723 59.5099Z" fill="#FFB9B9"/>
<path d="M36.2659 58.3969C36.2659 58.3969 32.5364 63.962 33.4366 65.446C34.3368 66.93 23.9199 63.962 23.9199 63.962C23.9199 63.962 30.2215 56.5418 30.0929 55.6761C29.9643 54.8105 36.2659 58.3969 36.2659 58.3969Z" fill="#FFB9B9"/>
<path d="M43.9817 66.6827C43.9817 66.6827 37.1657 64.5803 36.2655 63.7146C35.688 63.1474 35.171 62.5259 34.7223 61.8596C34.7223 61.8596 26.4916 60.7466 26.2344 60.7466C25.9772 60.7466 24.0481 62.9726 23.5337 63.4673C23.0193 63.962 16.4605 67.301 16.4605 68.1667C16.4605 69.0324 15.4316 73.4845 15.4316 73.4845C15.4316 73.4845 17.7465 78.0603 19.1612 79.0496C20.5758 80.039 20.9616 79.7916 21.0902 81.3993C21.2188 83.007 23.0193 85.6041 23.0193 85.6041C23.0193 85.6041 24.1767 88.4485 23.9195 89.3142C23.6623 90.1798 22.5049 90.9219 25.2056 90.6745C27.9062 90.4272 41.2811 91.1692 41.2811 89.8088C41.2811 88.4485 38.709 75.4632 38.709 75.4632L43.9817 66.6827Z" fill="#4D9BD5"/>
<path d="M41.5384 66.93L43.9819 66.6827C43.9819 66.6827 44.8821 67.1774 45.0107 72.0005C45.1393 76.8235 45.1393 88.4484 46.0396 89.4378C46.9398 90.4272 50.6693 105.762 50.6693 105.762C50.6693 105.762 51.6981 106.009 51.6981 106.875C51.6981 107.741 52.8556 108.483 52.3411 109.472C51.8267 110.462 52.8556 110.214 52.2126 110.833C51.5695 111.451 48.483 112.688 48.3544 111.946C48.2258 111.204 48.7402 111.08 48.2258 110.833C47.7114 110.585 47.7114 110.462 47.5828 109.596C47.4542 108.73 46.2968 107.864 46.4254 107.493C46.554 107.122 40.7668 96.3633 40.7668 95.9923C40.7668 95.6213 40.381 94.2609 39.8666 94.0136C39.3521 93.7662 38.5805 93.5189 38.9663 92.9005C39.3521 92.2822 37.9375 73.7318 37.9375 73.7318L41.5384 66.93Z" fill="#4D9BD5"/>
<path d="M40.9216 47.9903C38.6738 45.6439 35.1436 44.3984 31.9063 45.0964C28.669 45.7943 25.943 48.5582 25.6899 51.7393C25.6381 52.39 25.6812 53.0546 25.5061 53.6851C25.2116 54.7456 24.3353 55.5862 24.0264 56.6429C23.8195 57.3506 23.8808 58.1126 23.6615 58.8169C23.2563 60.1183 22.002 60.9668 21.0461 61.967C20.6589 62.3335 20.3714 62.786 20.2088 63.2845C20.1248 63.7265 20.1035 64.1775 20.1455 64.6251C20.1858 67.0377 19.2531 69.3715 17.543 71.1371C18.5485 70.4187 19.6349 69.8114 20.7816 69.3266C20.2132 71.0671 20.7328 73.1265 22.1629 74.3252C23.5931 75.5239 25.8836 75.7101 27.4299 74.6532C28.3485 74.0253 28.9452 73.0616 29.515 72.1266L31.6727 68.5864C32.0629 67.9461 32.4704 67.2871 33.094 66.8497C33.5895 66.5021 34.1916 66.3172 34.6905 65.974C35.9488 65.1082 36.2867 63.4136 36.0524 61.9429C35.8181 60.4722 35.1303 59.1066 34.7358 57.6679C34.4238 56.53 34.3259 55.2259 35.0278 54.2619C35.9594 52.9823 37.8741 52.819 39.1401 51.8402C39.6167 51.4717 39.8297 51.0233 40.171 50.562C40.4862 50.1361 40.5665 50.2888 41.0548 50.2693C42.3956 50.2159 41.4185 48.5089 40.9216 47.9903Z" fill="#2F2E41"/>
<path d="M34.5188 56.2711C34.8453 56.2711 35.1099 55.6603 35.1099 54.9069C35.1099 54.1535 34.8453 53.5428 34.5188 53.5428C34.1924 53.5428 33.9277 54.1535 33.9277 54.9069C33.9277 55.6603 34.1924 56.2711 34.5188 56.2711Z" fill="#FFB9B9"/>
<path d="M159.355 165.062C163.533 165.062 166.921 161.804 166.921 157.786C166.921 153.768 163.533 150.511 159.355 150.511C155.176 150.511 151.789 153.768 151.789 157.786C151.789 161.804 155.176 165.062 159.355 165.062Z" fill="#F2F2F2"/>
<path d="M7.56578 21.8264C11.7442 21.8264 15.1316 18.5691 15.1316 14.551C15.1316 10.5328 11.7442 7.27551 7.56578 7.27551C3.38731 7.27551 0 10.5328 0 14.551C0 18.5691 3.38731 21.8264 7.56578 21.8264Z" fill="#F2F2F2"/>
<path d="M249.435 14.5509C253.613 14.5509 257.001 11.2936 257.001 7.27545C257.001 3.25733 253.613 0 249.435 0C245.256 0 241.869 3.25733 241.869 7.27545C241.869 11.2936 245.256 14.5509 249.435 14.5509Z" fill="#F2F2F2"/>
</svg>
