<svg width="32" height="32" viewBox="0 0 32 32" fill="none" xmlns="http://www.w3.org/2000/svg">
<circle cx="16" cy="16" r="16" fill="#4D9BD5"/>
<path d="M16.5 13.2456C14.708 13.2456 13.2456 14.708 13.2456 16.5C13.2456 18.292 14.708 19.7544 16.5 19.7544C18.292 19.7544 19.7544 18.292 19.7544 16.5C19.7544 14.708 18.292 13.2456 16.5 13.2456ZM26.2608 16.5C26.2608 15.1523 26.273 13.8169 26.1973 12.4717C26.1216 10.9092 25.7652 9.52245 24.6226 8.37988C23.4776 7.23486 22.0933 6.88085 20.5308 6.80517C19.1831 6.72949 17.8477 6.74169 16.5025 6.74169C15.1548 6.74169 13.8194 6.72949 12.4741 6.80517C10.9116 6.88085 9.52493 7.2373 8.38235 8.37988C7.23733 9.5249 6.88333 10.9092 6.80764 12.4717C6.73196 13.8193 6.74416 15.1548 6.74416 16.5C6.74416 17.8452 6.73196 19.1831 6.80764 20.5283C6.88333 22.0908 7.23977 23.4775 8.38235 24.6201C9.52737 25.7651 10.9116 26.1191 12.4741 26.1948C13.8218 26.2705 15.1572 26.2583 16.5025 26.2583C17.8501 26.2583 19.1856 26.2705 20.5308 26.1948C22.0933 26.1191 23.48 25.7627 24.6226 24.6201C25.7676 23.4751 26.1216 22.0908 26.1973 20.5283C26.2754 19.1831 26.2608 17.8477 26.2608 16.5V16.5ZM16.5 21.5073C13.729 21.5073 11.4927 19.271 11.4927 16.5C11.4927 13.729 13.729 11.4927 16.5 11.4927C19.271 11.4927 21.5073 13.729 21.5073 16.5C21.5073 19.271 19.271 21.5073 16.5 21.5073ZM21.7124 12.457C21.0655 12.457 20.543 11.9346 20.543 11.2876C20.543 10.6406 21.0655 10.1182 21.7124 10.1182C22.3594 10.1182 22.8819 10.6406 22.8819 11.2876C22.8821 11.4412 22.8519 11.5934 22.7932 11.7353C22.7345 11.8773 22.6484 12.0063 22.5398 12.1149C22.4311 12.2236 22.3021 12.3097 22.1602 12.3684C22.0182 12.4271 21.8661 12.4572 21.7124 12.457V12.457Z" fill="#111F29"/>
</svg>
