<svg width="106" height="53" viewBox="0 0 106 53" fill="none" xmlns="http://www.w3.org/2000/svg">
<path d="M5.05652 33.5298V35.6037C5.05668 36.0441 5.16323 36.4779 5.36711 36.8683C5.57098 37.2589 5.86612 37.5941 6.22742 37.846L14.4472 29.626L12.1684 27.3471C12.1074 27.2862 12.035 27.2379 11.9554 27.2049C11.8758 27.1718 11.7904 27.1548 11.7041 27.1548C11.6179 27.1548 11.5326 27.1718 11.4529 27.2049C11.3733 27.2379 11.3009 27.2862 11.2399 27.3471L5.05652 33.5298Z" fill="url(#paint0_linear)"/>
<path d="M11.7034 24.6564C11.979 24.6557 12.252 24.7095 12.5065 24.8151C12.7611 24.9206 12.9922 25.0755 13.1864 25.2709L15.9935 28.0779L21.7568 22.3145C22.3546 21.7177 23.1647 21.3825 24.0095 21.3825C24.8541 21.3825 25.6644 21.7177 26.2621 22.3145L34.2758 30.3282L36.7526 27.8514C37.1462 27.4587 37.6793 27.2381 38.2355 27.2381C38.7915 27.2381 39.3249 27.4587 39.7183 27.8514L42.9626 31.0983V16.8765C42.9626 16.3963 42.8362 15.9245 42.5958 15.5086C42.3557 15.0927 42.0104 14.7474 41.5945 14.5073L25.3773 5.14414C24.9615 4.90399 24.4895 4.77756 24.0092 4.77756C23.5289 4.77756 23.0571 4.90399 22.6411 5.14414L6.42366 14.5073C6.00778 14.7474 5.6624 15.0927 5.42225 15.5086C5.18209 15.9245 5.05564 16.3963 5.05554 16.8765V30.4346L10.2195 25.2706C10.4139 25.0751 10.6452 24.9201 10.8999 24.8149C11.1546 24.7095 11.4278 24.6554 11.7034 24.6564Z" fill="url(#paint1_linear)"/>
<path d="M35.8229 31.8768L41.7907 37.8458C42.1521 37.5938 42.4472 37.2584 42.651 36.868C42.8548 36.4777 42.9612 36.0439 42.9614 35.6035V34.1929L38.6978 29.9293C38.5747 29.8062 38.4077 29.7371 38.2336 29.7371C38.0593 29.7371 37.8923 29.8062 37.7691 29.9293L35.8229 31.8768Z" fill="url(#paint2_linear)"/>
<path d="M34.2753 33.4236L32.7281 31.8767L24.7145 23.8633C24.5274 23.6765 24.2741 23.5717 24.0098 23.5717C23.7455 23.5717 23.4921 23.6765 23.3051 23.8633L17.5418 29.6266L15.9944 31.174L8.18121 38.9862L22.6408 47.3351C23.0568 47.5752 23.5287 47.7016 24.009 47.7016C24.4892 47.7016 24.9612 47.5752 25.3771 47.3351L39.8367 38.9862L34.2753 33.4236Z" fill="url(#paint3_linear)"/>
<path d="M24.0097 2.26259C24.5461 2.26244 25.0733 2.4036 25.5377 2.67185L43.6557 13.1323C44.1203 13.4006 44.506 13.7864 44.7742 14.251C45.0424 14.7156 45.1837 15.2427 45.1837 15.7792V36.7001C45.1837 37.2365 45.0424 37.7634 44.7742 38.2281C44.506 38.6926 44.1203 39.0785 43.6557 39.3467L25.5377 49.8072C25.073 50.0754 24.5461 50.2167 24.0096 50.2167C23.4731 50.2167 22.946 50.0754 22.4814 49.8072L4.36345 39.3467C3.89886 39.0785 3.51305 38.6926 3.24483 38.2281C2.9766 37.7634 2.83539 37.2365 2.83541 36.7001V15.7792C2.8354 15.2427 2.9766 14.7156 3.24483 14.251C3.51307 13.7864 3.89886 13.4006 4.36345 13.1323L22.4814 2.67185C22.9461 2.40362 23.4732 2.26247 24.0097 2.26259ZM24.0097 0C23.0761 0.000364592 22.159 0.246108 21.3503 0.712602L3.23216 11.1731C2.42462 11.641 1.75401 12.3127 1.28734 13.1209C0.820681 13.9292 0.574298 14.8458 0.572815 15.7792V36.7001C0.574345 37.6335 0.820777 38.5501 1.28748 39.3582C1.75419 40.1666 2.42483 40.8382 3.23239 41.3062L21.3503 51.7666C22.1589 52.2334 23.0761 52.479 24.0097 52.479C24.9433 52.479 25.8604 52.2334 26.669 51.7666L44.7869 41.3062C45.5946 40.8384 46.2655 40.1666 46.7323 39.3585C47.1991 38.5501 47.4456 37.6335 47.4472 36.7001V15.7792C47.4458 14.8458 47.1993 13.9292 46.7327 13.121C46.2659 12.3127 45.5953 11.641 44.7879 11.1731L26.67 0.712602C25.8614 0.246139 24.9442 0.000397772 24.0106 0H24.0097Z" fill="url(#paint4_linear)"/>
<path d="M60.76 33C60.3733 33 60.0667 32.8933 59.84 32.68C59.6267 32.4667 59.52 32.1667 59.52 31.78V20.12C59.52 19.7333 59.6267 19.4333 59.84 19.22C60.0667 19.0067 60.3733 18.9 60.76 18.9H64.72C67.0267 18.9 68.8133 19.52 70.08 20.76C71.36 21.9867 72 23.7133 72 25.94C72 28.18 71.36 29.92 70.08 31.16C68.8133 32.3867 67.0267 33 64.72 33H60.76ZM64.56 30.9C67.8 30.9 69.42 29.2467 69.42 25.94C69.42 22.6467 67.8 21 64.56 21H62.1V30.9H64.56ZM89.4266 31.46C89.5066 31.6333 89.5466 31.8067 89.5466 31.98C89.5466 32.2867 89.4199 32.5467 89.1666 32.76C88.9266 32.9733 88.6466 33.08 88.3266 33.08C88.1132 33.08 87.9132 33.0267 87.7266 32.92C87.5399 32.8 87.3932 32.62 87.2866 32.38L86.0866 29.7H79.0466L77.8466 32.38C77.7399 32.62 77.5932 32.8 77.4066 32.92C77.2199 33.0267 77.0132 33.08 76.7866 33.08C76.4799 33.08 76.1999 32.9733 75.9466 32.76C75.6932 32.5467 75.5666 32.2867 75.5666 31.98C75.5666 31.8067 75.6066 31.6333 75.6866 31.46L81.2066 19.6C81.3266 19.3333 81.5066 19.1333 81.7466 19C81.9999 18.8533 82.2666 18.78 82.5466 18.78C82.8266 18.78 83.0866 18.8533 83.3266 19C83.5799 19.1333 83.7666 19.3333 83.8866 19.6L89.4266 31.46ZM79.9266 27.7H85.2066L82.5666 21.76L79.9266 27.7ZM95.1703 33.12C94.7836 33.12 94.4703 33.0067 94.2303 32.78C94.0036 32.54 93.8903 32.22 93.8903 31.82V20.12C93.8903 19.7333 93.997 19.4333 94.2103 19.22C94.437 19.0067 94.7436 18.9 95.1303 18.9H100.05C101.557 18.9 102.73 19.28 103.57 20.04C104.41 20.7867 104.83 21.84 104.83 23.2C104.83 24.56 104.41 25.62 103.57 26.38C102.73 27.14 101.557 27.52 100.05 27.52H96.4703V31.82C96.4703 32.22 96.3503 32.54 96.1103 32.78C95.8836 33.0067 95.5703 33.12 95.1703 33.12ZM99.7303 25.54C101.504 25.54 102.39 24.7667 102.39 23.22C102.39 21.6733 101.504 20.9 99.7303 20.9H96.4703V25.54H99.7303Z" fill="#50A9DB"/>
<defs>
<linearGradient id="paint0_linear" x1="9.75186" y1="5.10949" x2="9.75186" y2="47.8743" gradientUnits="userSpaceOnUse">
<stop offset="0.004" stop-color="#4C99D4"/>
<stop offset="0.5" stop-color="#56C3E6"/>
<stop offset="1" stop-color="#B0D8BC"/>
</linearGradient>
<linearGradient id="paint1_linear" x1="24.0091" y1="5.11973" x2="24.0091" y2="47.8911" gradientUnits="userSpaceOnUse">
<stop offset="0.004" stop-color="#4C99D4"/>
<stop offset="0.5" stop-color="#56C3E6"/>
<stop offset="1" stop-color="#B0D8BC"/>
</linearGradient>
<linearGradient id="paint2_linear" x1="39.3923" y1="5.11058" x2="39.3923" y2="47.8765" gradientUnits="userSpaceOnUse">
<stop offset="0.004" stop-color="#4C99D4"/>
<stop offset="0.5" stop-color="#56C3E6"/>
<stop offset="1" stop-color="#B0D8BC"/>
</linearGradient>
<linearGradient id="paint3_linear" x1="24.009" y1="5.1123" x2="24.009" y2="47.8705" gradientUnits="userSpaceOnUse">
<stop offset="0.004" stop-color="#4C99D4"/>
<stop offset="0.5" stop-color="#56C3E6"/>
<stop offset="1" stop-color="#B0D8BC"/>
</linearGradient>
<linearGradient id="paint4_linear" x1="24.01" y1="52.479" x2="24.01" y2="0" gradientUnits="userSpaceOnUse">
<stop stop-color="#B0D8BC"/>
<stop offset="0.5" stop-color="#56C3E6"/>
<stop offset="0.996" stop-color="#4C99D4"/>
</linearGradient>
</defs>
</svg>
