<svg width="148" height="148" viewBox="0 0 148 148" fill="none" xmlns="http://www.w3.org/2000/svg">
<circle cx="74" cy="74" r="74" fill="black" fill-opacity="0.51"/>
<path d="M60.5625 49.8125C62.7008 49.8125 64.7515 50.6619 66.2635 52.174C67.7756 53.686 68.625 55.7367 68.625 57.875V90.125C68.625 92.2633 67.7756 94.314 66.2635 95.826C64.7515 97.3381 62.7008 98.1875 60.5625 98.1875C58.4242 98.1875 56.3735 97.3381 54.8615 95.826C53.3494 94.314 52.5 92.2633 52.5 90.125V57.875C52.5 55.7367 53.3494 53.686 54.8615 52.174C56.3735 50.6619 58.4242 49.8125 60.5625 49.8125V49.8125ZM87.4375 49.8125C89.5758 49.8125 91.6265 50.6619 93.1385 52.174C94.6506 53.686 95.5 55.7367 95.5 57.875V90.125C95.5 92.2633 94.6506 94.314 93.1385 95.826C91.6265 97.3381 89.5758 98.1875 87.4375 98.1875C85.2992 98.1875 83.2485 97.3381 81.7365 95.826C80.2244 94.314 79.375 92.2633 79.375 90.125V57.875C79.375 55.7367 80.2244 53.686 81.7365 52.174C83.2485 50.6619 85.2992 49.8125 87.4375 49.8125Z" fill="white"/>
</svg>
