<svg width="40" height="40" viewBox="0 0 40 40" fill="none" xmlns="http://www.w3.org/2000/svg">
<path d="M20 20C24.6024 20 28.3334 16.269 28.3334 11.6667C28.3334 7.0643 24.6024 3.33334 20 3.33334C15.3976 3.33334 11.6667 7.0643 11.6667 11.6667C11.6667 16.269 15.3976 20 20 20Z" stroke="#343434" stroke-width="2"/>
<path d="M28.3334 36.6667H8.77669C8.30399 36.6668 7.83668 36.5663 7.40576 36.372C6.97485 36.1777 6.59019 35.894 6.27731 35.5397C5.96444 35.1853 5.7305 34.7685 5.59103 34.3169C5.45156 33.8652 5.40974 33.3891 5.46835 32.92L6.11835 27.7133C6.26951 26.5037 6.85738 25.391 7.77141 24.5844C8.68543 23.7778 9.86265 23.3329 11.0817 23.3333H11.6667" stroke="#343434" stroke-width="2" stroke-linecap="round" stroke-linejoin="round"/>
<path d="M26.6667 26.6667L30.4167 30L36.6667 23.3333" stroke="#343434" stroke-width="2" stroke-linecap="round" stroke-linejoin="round"/>
</svg>
