<svg width="32" height="32" viewBox="0 0 32 32" fill="none" xmlns="http://www.w3.org/2000/svg">
<circle cx="16" cy="16" r="16" fill="#EAF5FB"/>
<path d="M9.07583 11.2433C10.245 9.97575 12.0142 9.33325 14.3333 9.33325H15.1667V11.6824L14.4967 11.8166C13.355 12.0449 12.5608 12.4941 12.1358 13.1533C11.9141 13.5084 11.7883 13.915 11.7708 14.3333H14.3333C14.5543 14.3333 14.7663 14.421 14.9226 14.5773C15.0789 14.7336 15.1667 14.9456 15.1667 15.1666V20.9999C15.1667 21.9191 14.4192 22.6666 13.5 22.6666H8.5C8.27899 22.6666 8.06702 22.5788 7.91074 22.4225C7.75446 22.2662 7.66667 22.0543 7.66667 21.8333V17.6666L7.66917 15.2341C7.66167 15.1416 7.50333 12.9499 9.07583 11.2433ZM22.6667 22.6666H17.6667C17.4457 22.6666 17.2337 22.5788 17.0774 22.4225C16.9211 22.2662 16.8333 22.0543 16.8333 21.8333V17.6666L16.8358 15.2341C16.8283 15.1416 16.67 12.9499 18.2425 11.2433C19.4117 9.97575 21.1808 9.33325 23.5 9.33325H24.3333V11.6824L23.6633 11.8166C22.5217 12.0449 21.7275 12.4941 21.3025 13.1533C21.0807 13.5084 20.955 13.915 20.9375 14.3333H23.5C23.721 14.3333 23.933 14.421 24.0893 14.5773C24.2455 14.7336 24.3333 14.9456 24.3333 15.1666V20.9999C24.3333 21.9191 23.5858 22.6666 22.6667 22.6666Z" fill="#4C99D4"/>
</svg>
