<svg width="554" height="404" viewBox="0 0 554 404" fill="none" xmlns="http://www.w3.org/2000/svg">
<g clip-path="url(#clip0_825:198)">
<path d="M539.728 360.624C537.869 346.588 529.051 332.814 515.613 328.348C521.013 342.767 521.137 358.631 515.964 373.133C513.949 378.719 511.126 384.722 513.108 390.319C514.34 393.802 517.31 396.451 520.619 398.096C523.928 399.741 527.592 400.508 531.21 401.26L531.926 401.842C537.557 388.851 541.587 374.66 539.728 360.624Z" fill="#F0F0F0"/>
<path d="M515.482 328.615C523.356 337.296 528.293 348.237 529.593 359.884C529.918 362.386 529.846 364.924 529.38 367.404C528.848 369.805 527.682 372.019 526.005 373.818C524.474 375.526 522.711 377.096 521.622 379.147C521.081 380.205 520.769 381.365 520.707 382.552C520.646 383.739 520.836 384.925 521.265 386.034C522.262 388.823 524.203 391.087 526.177 393.236C528.37 395.622 530.685 398.065 531.634 401.243C531.749 401.628 532.34 401.427 532.225 401.043C530.574 395.513 525.168 392.408 522.562 387.436C521.346 385.116 520.822 382.416 521.925 379.948C522.89 377.79 524.707 376.17 526.271 374.453C527.934 372.723 529.147 370.612 529.805 368.305C530.396 365.856 530.566 363.326 530.307 360.821C529.815 355.172 528.438 349.635 526.226 344.414C523.734 338.441 520.239 332.938 515.891 328.143C515.622 327.847 515.214 328.32 515.482 328.615Z" fill="white"/>
<path d="M529.395 356.109C531.32 355.625 533.01 354.474 534.164 352.859C535.318 351.245 535.86 349.273 535.694 347.296C535.659 346.896 535.036 346.931 535.071 347.332C535.229 349.173 534.724 351.01 533.646 352.511C532.568 354.012 530.99 355.078 529.195 355.518C528.805 355.614 529.007 356.204 529.395 356.109Z" fill="white"/>
<path d="M526.894 373.054C523.395 371.002 520.797 367.707 519.62 363.825C519.503 363.441 518.913 363.641 519.029 364.026C520.262 368.063 522.972 371.486 526.618 373.613C526.966 373.816 527.24 373.255 526.894 373.054Z" fill="white"/>
<path d="M523.16 339.036C522.454 339.379 521.674 339.54 520.891 339.507C520.107 339.473 519.344 339.245 518.67 338.844C518.325 338.637 518.051 339.198 518.394 339.404C519.14 339.844 519.983 340.094 520.849 340.133C521.715 340.172 522.577 339.998 523.36 339.627C523.437 339.599 523.5 339.542 523.536 339.468C523.572 339.395 523.579 339.31 523.556 339.232C523.529 339.154 523.472 339.089 523.398 339.053C523.324 339.016 523.238 339.01 523.16 339.036L523.16 339.036Z" fill="white"/>
<path d="M474.961 353.766C475.173 353.901 475.384 354.036 475.596 354.177C478.434 356.01 481.117 358.071 483.62 360.338C483.817 360.511 484.013 360.688 484.204 360.866C490.177 366.394 495.071 372.982 498.638 380.296C500.055 383.208 501.248 386.223 502.208 389.316C503.532 393.587 504.628 398.324 507.211 401.806C507.476 402.172 507.764 402.522 508.072 402.852L531.159 402.67C531.211 402.643 531.264 402.621 531.316 402.595L532.238 402.629C532.2 402.466 532.157 402.298 532.119 402.135C532.097 402.041 532.07 401.946 532.048 401.851C532.032 401.788 532.015 401.725 532.004 401.667C531.999 401.646 531.993 401.625 531.988 401.61C531.977 401.552 531.961 401.499 531.95 401.447C531.711 400.506 531.464 399.565 531.211 398.624C531.211 398.619 531.211 398.619 531.206 398.614C529.345 391.427 526.637 384.487 523.141 377.938C523.034 377.744 522.927 377.544 522.809 377.35C521.191 374.452 519.339 371.691 517.271 369.094C516.134 367.676 514.926 366.316 513.651 365.02C510.352 361.677 506.547 358.874 502.376 356.714C494.061 352.408 484.461 350.81 475.633 353.55C475.408 353.62 475.187 353.69 474.961 353.766Z" fill="#F0F0F0"/>
<path d="M475.016 354.058C486.53 356.25 497.061 362.014 505.113 370.53C506.878 372.333 508.349 374.403 509.47 376.663C510.491 378.9 510.895 381.37 510.638 383.816C510.445 386.101 509.982 388.417 510.348 390.709C510.553 391.88 511.002 392.994 511.668 393.979C512.333 394.964 513.199 395.796 514.21 396.423C516.686 398.05 519.599 398.69 522.469 399.217C525.656 399.802 528.976 400.359 531.647 402.325C531.971 402.564 532.322 402.047 531.999 401.81C527.351 398.388 521.164 399.163 516.09 396.762C513.722 395.642 511.678 393.801 511.072 391.167C510.543 388.863 511.018 386.475 511.234 384.163C511.519 381.781 511.216 379.365 510.353 377.126C509.35 374.816 507.962 372.693 506.247 370.849C502.452 366.634 498.018 363.043 493.108 360.206C487.522 356.936 481.417 354.647 475.059 353.436C474.665 353.361 474.625 353.984 475.016 354.058Z" fill="white"/>
<path d="M502.681 367.635C503.927 366.091 504.583 364.154 504.532 362.17C504.481 360.186 503.727 358.286 502.403 356.807C502.135 356.508 501.658 356.912 501.927 357.211C503.162 358.585 503.865 360.356 503.908 362.203C503.952 364.051 503.334 365.853 502.165 367.284C501.911 367.595 502.429 367.945 502.681 367.635Z" fill="white"/>
<path d="M510.889 382.67C506.859 383.139 502.801 382.071 499.523 379.681C499.199 379.444 498.848 379.96 499.172 380.197C502.587 382.678 506.813 383.78 511.005 383.283C511.405 383.236 511.286 382.623 510.889 382.67Z" fill="white"/>
<path d="M487.422 357.758C487.065 358.456 486.54 359.054 485.894 359.499C485.248 359.944 484.502 360.222 483.722 360.307C483.322 360.349 483.441 360.962 483.838 360.92C484.699 360.822 485.523 360.514 486.238 360.024C486.953 359.534 487.536 358.877 487.938 358.109C487.982 358.04 487.998 357.957 487.983 357.876C487.968 357.795 487.922 357.724 487.856 357.675C487.788 357.629 487.704 357.612 487.622 357.627C487.541 357.643 487.469 357.69 487.423 357.758L487.422 357.758Z" fill="white"/>
<path d="M387.585 219.418C387.986 219.946 388.498 220.38 389.085 220.688C389.672 220.997 390.32 221.173 390.983 221.204C391.645 221.235 392.306 221.121 392.92 220.869C393.533 220.617 394.084 220.234 394.533 219.746L409.317 226.174L407.877 217.923L394.059 213.084C393.189 212.383 392.093 212.026 390.978 212.08C389.862 212.134 388.806 212.595 388.008 213.376C387.21 214.157 386.726 215.203 386.648 216.317C386.57 217.43 386.903 218.534 387.585 219.418V219.418Z" fill="#A0616A"/>
<path d="M401.037 214.757L429.278 218.416L458.402 200.875C459.96 199.937 461.698 199.34 463.504 199.122C465.309 198.904 467.14 199.071 468.876 199.612C470.612 200.152 472.213 201.055 473.576 202.259C474.938 203.463 476.029 204.942 476.779 206.599C478.13 209.597 478.285 212.998 477.21 216.106C476.135 219.214 473.913 221.794 470.998 223.317L431.862 237.26L431.788 237.287L397.451 221.995L401.037 214.757Z" fill="#3F3D56"/>
<path d="M473.211 397.365H467.207L464.352 374.213L473.212 374.214L473.211 397.365Z" fill="#A0616A"/>
<path d="M474.743 403.184L455.385 403.183V402.938C455.385 400.941 456.179 399.024 457.592 397.612C459.005 396.199 460.921 395.405 462.919 395.405H462.92L466.456 392.723L473.053 395.406L474.743 395.406L474.743 403.184Z" fill="#2F2E41"/>
<path d="M449.946 393.583L444.09 394.905L436.203 372.95L444.846 370.999L449.946 393.583Z" fill="#A0616A"/>
<path d="M452.721 398.921L433.839 403.184L433.785 402.945C433.345 400.996 433.697 398.953 434.764 397.263C435.831 395.574 437.525 394.378 439.474 393.938L439.475 393.938L442.333 390.543L449.359 391.706L451.008 391.334L452.721 398.921Z" fill="#2F2E41"/>
<path d="M480.814 255.825C483.628 264.313 483.331 273.526 480.137 283.414L478.772 339.087C478.772 339.087 480.806 375.596 474.242 388.444H464.723L460.01 335.753L459.418 300.387L439.01 330.224L452.008 387.582L440.293 388.63L419.199 326.382L445.224 265.992L480.814 255.825Z" fill="#2F2E41"/>
<path d="M442.279 264.03L444.627 258.163L443.074 253.118L442.721 204.235L442.721 204.198L448.354 195.216L448.4 189.536L464.13 189.152L465.835 193.484L469.211 195.502C472.891 197.708 475.926 200.845 478.008 204.597C480.091 208.348 481.149 212.582 481.075 216.872L480.466 249.854L482.035 252.993C482.462 253.846 482.699 254.78 482.73 255.733C482.761 256.685 482.586 257.633 482.216 258.512C481.846 259.39 481.29 260.178 480.587 260.821C479.884 261.465 479.05 261.949 478.142 262.239L443.528 267.775L442.279 264.03Z" fill="#3F3D56"/>
<path d="M454.823 183.767C462.717 183.767 469.116 177.369 469.116 169.477C469.116 161.585 462.717 155.187 454.823 155.187C446.93 155.187 440.531 161.585 440.531 169.477C440.531 177.369 446.93 183.767 454.823 183.767Z" fill="#A0616A"/>
<path d="M469.706 172.592C470.132 170.797 469.936 168.27 469.695 166.462C469.387 164.078 468.581 161.786 467.329 159.733C466.078 157.681 464.409 155.914 462.431 154.547C461.673 153.971 460.772 153.613 459.825 153.512C459.352 153.472 458.878 153.583 458.472 153.829C458.065 154.074 457.747 154.442 457.563 154.88C457.324 154.285 456.967 153.745 456.511 153.294C456.056 152.843 455.514 152.49 454.917 152.257C453.718 151.797 452.428 151.624 451.15 151.749C448.673 151.953 446.298 152.824 444.276 154.269C442.254 155.714 440.661 157.679 439.666 159.957C439.285 160.863 438.218 157.514 437.735 158.371C437.29 159.261 436.515 159.943 435.574 160.269C434.627 160.533 434.242 164.437 433.869 163.527C433.579 164.199 433.465 164.935 433.536 165.663C433.607 166.392 433.862 167.091 434.276 167.695C434.691 168.299 435.251 168.789 435.905 169.118C436.56 169.447 437.287 169.605 438.018 169.578C438.975 169.454 439.924 169.273 440.859 169.034C442.575 168.818 444.312 169.238 445.74 170.214C447.168 171.19 448.19 172.655 448.611 174.333C448.872 173.357 449.289 172.43 449.845 171.588C450.128 171.168 450.506 170.823 450.95 170.579C451.393 170.336 451.887 170.202 452.393 170.188C452.876 170.244 453.342 170.397 453.764 170.64C454.186 170.882 454.553 171.208 454.844 171.597C455.473 172.336 455.946 173.198 456.58 173.932C458.44 176.088 460.955 181.115 463.606 180.749C465.697 180.459 469.124 175.044 469.706 172.592Z" fill="#2F2E41"/>
<path d="M401.544 257.344C402.152 257.609 402.811 257.736 403.474 257.718C404.137 257.7 404.788 257.537 405.381 257.241C405.974 256.944 406.495 256.521 406.907 256.001C407.319 255.482 407.612 254.878 407.765 254.233L423.805 252.613L418.513 246.119L404.093 248.653C402.992 248.468 401.861 248.692 400.915 249.284C399.968 249.877 399.272 250.796 398.958 251.867C398.644 252.938 398.733 254.087 399.21 255.097C399.687 256.106 400.517 256.906 401.544 257.344Z" fill="#A0616A"/>
<path d="M410.998 246.702L437.423 236.087L454.248 206.547C455.148 204.968 456.373 203.596 457.841 202.524C459.309 201.451 460.987 200.702 462.766 200.325C464.545 199.948 466.383 199.951 468.161 200.336C469.938 200.72 471.613 201.477 473.077 202.555C475.722 204.51 477.52 207.401 478.103 210.638C478.686 213.874 478.009 217.211 476.211 219.965L448.893 251.261L448.841 251.32L411.41 254.768L410.998 246.702Z" fill="#3F3D56"/>
<path d="M553.183 404H314.631C314.524 404 314.417 403.979 314.318 403.939C314.219 403.898 314.128 403.838 314.052 403.762C313.976 403.686 313.916 403.596 313.875 403.497C313.834 403.398 313.812 403.291 313.812 403.184C313.812 403.077 313.834 402.97 313.875 402.871C313.916 402.772 313.976 402.682 314.052 402.606C314.128 402.53 314.219 402.47 314.318 402.429C314.417 402.388 314.524 402.367 314.631 402.368H553.183C553.29 402.367 553.397 402.388 553.496 402.429C553.595 402.47 553.685 402.53 553.761 402.606C553.838 402.682 553.898 402.772 553.939 402.871C553.98 402.97 554.001 403.077 554.001 403.184C554.001 403.291 553.98 403.398 553.939 403.497C553.898 403.596 553.838 403.686 553.761 403.762C553.685 403.838 553.595 403.898 553.496 403.939C553.397 403.979 553.29 404 553.183 404Z" fill="#CCCCCC"/>
<path d="M399.017 271.279H290.609C289.854 271.278 289.13 270.977 288.595 270.443C288.061 269.909 287.761 269.185 287.76 268.43V224.451C287.761 223.695 288.061 222.971 288.595 222.437C289.13 221.903 289.854 221.603 290.609 221.602H399.017C399.772 221.603 400.496 221.903 401.031 222.437C401.565 222.971 401.865 223.695 401.866 224.451V268.43C401.865 269.185 401.565 269.909 401.031 270.443C400.496 270.977 399.772 271.278 399.017 271.279Z" fill="#4D9BD5"/>
<path d="M388.695 292.376H300.932C300.483 292.376 300.037 292.288 299.622 292.117C299.207 291.945 298.829 291.693 298.511 291.376C298.193 291.058 297.941 290.681 297.769 290.266C297.596 289.851 297.508 289.406 297.508 288.957C297.508 288.508 297.596 288.063 297.769 287.647C297.941 287.232 298.193 286.855 298.511 286.538C298.829 286.22 299.207 285.969 299.622 285.797C300.037 285.626 300.483 285.538 300.932 285.538H388.695C393.104 285.477 393.148 292.438 388.695 292.376Z" fill="#E4E4E4"/>
<path d="M388.694 308.045H300.931C300.024 308.045 299.154 307.684 298.513 307.043C297.872 306.402 297.512 305.533 297.512 304.626C297.512 303.719 297.872 302.85 298.513 302.209C299.154 301.567 300.024 301.207 300.931 301.207H388.694C393.103 301.146 393.147 308.107 388.694 308.045Z" fill="#E4E4E4"/>
<path d="M388.695 323.714H300.932C300.483 323.714 300.037 323.626 299.622 323.455C299.207 323.283 298.829 323.032 298.511 322.714C298.193 322.397 297.941 322.019 297.769 321.604C297.596 321.189 297.508 320.744 297.508 320.295C297.508 319.846 297.596 319.401 297.769 318.986C297.941 318.57 298.193 318.193 298.511 317.876C298.829 317.558 299.207 317.307 299.622 317.135C300.037 316.964 300.483 316.876 300.932 316.876H388.695C393.104 316.815 393.148 323.776 388.695 323.714Z" fill="#E4E4E4"/>
<path d="M19.8874 154.631C0.803628 129.562 -6.88416 93.9917 7.32081 65.8703C21.4169 97.0976 46.1062 122.333 77.0204 137.113C88.9634 142.769 102.836 147.817 108.489 159.76C112.007 167.191 111.475 176.029 108.832 183.814C106.189 191.599 101.609 198.556 97.0775 205.416L96.8614 207.457C67.5942 195.783 38.9712 179.701 19.8874 154.631Z" fill="#F0F0F0"/>
<path d="M7.94665 66.0861C9.11632 91.8621 18.5298 117.431 34.7237 137.571C38.2247 141.925 42.1554 146.038 46.8574 149.106C51.4636 152.062 56.7774 153.73 62.2466 153.938C67.3423 154.235 72.589 153.948 77.5239 155.477C82.7255 157.09 86.602 160.91 88.8913 165.787C91.6923 171.754 92.1818 178.371 92.4356 184.859C92.7174 192.063 92.896 199.55 96.3836 206.054C96.8062 206.843 95.5583 207.452 95.1363 206.665C89.0685 195.348 92.73 181.968 89.0442 170.035C87.3243 164.466 83.9156 159.383 78.3033 157.217C73.3956 155.324 67.9849 155.615 62.8229 155.359C57.4026 155.091 52.3267 153.945 47.5994 151.195C42.7636 148.382 38.664 144.415 35.0669 140.169C26.9819 130.481 20.4708 119.582 15.772 107.872C10.3352 94.5364 7.22011 80.3695 6.56141 65.9839C6.52101 65.0936 7.90653 65.2015 7.94666 66.0861L7.94665 66.0861Z" fill="white"/>
<path d="M29.1142 131.302C25.3177 133.558 20.843 134.39 16.4892 133.652C12.1354 132.913 8.18598 130.651 5.34631 127.269C4.77408 126.583 5.81365 125.662 6.38664 126.349C9.02512 129.503 12.7042 131.609 16.7599 132.289C20.8155 132.969 24.9806 132.176 28.5034 130.055C29.2695 129.595 29.8759 130.845 29.1142 131.302Z" fill="white"/>
<path d="M59.6417 154.128C61.947 145.402 60.8779 136.127 56.6476 128.154C56.2278 127.364 57.4756 126.754 57.8949 127.543C62.2815 135.849 63.3745 145.502 60.9555 154.578C60.7244 155.443 59.4118 154.988 59.6417 154.128V154.128Z" fill="white"/>
<path d="M12.1749 94.576C13.8257 94.0094 15.31 93.0417 16.4943 91.7599C17.6786 90.4781 18.526 88.9222 18.9603 87.232C19.1803 86.3647 20.4927 86.8203 20.2741 87.682C19.7856 89.5471 18.8477 91.2643 17.5423 92.6834C16.237 94.1026 14.6039 95.1805 12.7857 95.8231C12.6194 95.898 12.4308 95.9068 12.2583 95.8477C12.0857 95.7886 11.9421 95.666 11.8567 95.5049C11.7767 95.3394 11.7652 95.1489 11.8248 94.975C11.8844 94.8011 12.0102 94.6577 12.1749 94.576Z" fill="white"/>
<path d="M111.358 42.2452C111.236 42.7907 111.114 43.3362 111 43.8905C109.398 51.2331 108.395 58.6937 108.001 66.1987C107.961 66.7785 107.93 67.3666 107.907 67.9463C107.15 86.0376 109.76 104.112 115.603 121.251C117.934 128.069 120.781 134.699 124.119 141.085C128.728 149.904 134.428 159.1 135.814 168.645C135.97 169.64 136.064 170.643 136.096 171.649L99.3679 207.563C99.2434 207.602 99.1267 207.651 99.0019 207.691L97.601 209.192C97.4059 208.875 97.2103 208.541 97.0152 208.224C96.9012 208.04 96.7955 207.849 96.6815 207.665C96.6081 207.54 96.5351 207.415 96.4617 207.306C96.4371 207.265 96.413 207.223 96.3966 207.19C96.3232 207.081 96.2666 206.973 96.2014 206.873C95.1031 205.012 94.0159 203.141 92.94 201.259C92.9317 201.251 92.9318 201.251 92.9318 201.234C84.7699 186.873 77.7355 171.705 73.2275 155.951C73.092 155.477 72.9479 154.995 72.8292 154.504C70.8366 147.392 69.4287 140.129 68.6196 132.787C68.1896 128.765 67.9634 124.725 67.942 120.68C67.9067 110.23 69.5157 99.8393 72.71 89.889C79.0807 70.0542 91.7252 52.4772 109.958 42.9588C110.425 42.7156 110.884 42.48 111.358 42.2452Z" fill="#F0F0F0"/>
<path d="M111.732 42.792C97.1444 64.0768 89.2632 90.159 90.0654 115.987C90.2388 121.572 90.9008 127.221 92.8074 132.501C94.7053 137.634 97.9434 142.165 102.185 145.623C106.075 148.927 110.437 151.857 113.456 156.049C116.638 160.467 117.433 165.851 116.324 171.123C114.967 177.573 111.373 183.152 107.669 188.485C103.556 194.406 99.1906 200.491 98.0581 207.784C97.9209 208.668 96.5575 208.403 96.6945 207.521C98.6648 194.832 109.645 186.354 113.888 174.607C115.868 169.125 116.208 163.014 113.031 157.907C110.253 153.441 105.757 150.416 101.789 147.105C97.6231 143.628 94.2604 139.657 92.1419 134.616C89.9747 129.459 89.0904 123.824 88.7749 118.269C88.1536 105.666 89.5179 93.0446 92.818 80.866C96.5072 66.9458 102.551 53.7592 110.688 41.8767C111.192 41.1414 112.233 42.0616 111.732 42.792L111.732 42.792Z" fill="white"/>
<path d="M89.3621 107.606C84.9728 107.121 80.8986 105.092 77.8672 101.882C74.8358 98.671 73.0446 94.4875 72.8135 90.0783C72.7698 89.186 74.1546 89.0762 74.1984 89.9697C74.406 94.0759 76.0749 97.9727 78.9039 100.957C81.7328 103.941 85.5354 105.815 89.6254 106.242C90.5141 106.336 90.2458 107.699 89.3622 107.606H89.3621Z" fill="white"/>
<path d="M99.9929 144.208C107.088 138.628 111.82 130.579 113.244 121.667C113.384 120.783 114.747 121.048 114.607 121.93C113.108 131.202 108.168 139.568 100.771 145.358C100.066 145.909 99.2914 144.756 99.9929 144.208Z" fill="white"/>
<path d="M97.9533 68.0857C99.6126 68.627 101.38 68.7478 103.098 68.4373C104.815 68.1267 106.429 67.3945 107.793 66.3064C108.491 65.7463 109.265 66.9001 108.571 67.4566C107.058 68.6517 105.275 69.4582 103.379 69.8055C101.482 70.1528 99.5287 70.0304 97.6901 69.449C97.5122 69.4088 97.3563 69.3023 97.2541 69.1512C97.1519 69.0001 97.1111 68.8158 97.1399 68.6358C97.1756 68.4554 97.2811 68.2965 97.4335 68.1935C97.5858 68.0905 97.7726 68.0517 97.9533 68.0857Z" fill="white"/>
<path d="M121.154 112.255C129.652 112.255 136.541 105.367 136.541 96.8712C136.541 88.3749 129.652 81.4873 121.154 81.4873C112.656 81.4873 105.768 88.3749 105.768 96.8712C105.768 105.367 112.656 112.255 121.154 112.255Z" fill="#2F2E41"/>
<path d="M205.347 244.912H96.9393C96.1838 244.911 95.4596 244.611 94.9254 244.077C94.3912 243.543 94.0907 242.819 94.0898 242.063V198.084C94.0907 197.329 94.3912 196.605 94.9254 196.071C95.4596 195.537 96.1838 195.236 96.9393 195.235H205.347C206.102 195.236 206.826 195.537 207.361 196.071C207.895 196.605 208.195 197.329 208.196 198.084V242.063C208.195 242.819 207.895 243.543 207.361 244.077C206.826 244.611 206.102 244.911 205.347 244.912Z" fill="#D1D3D4"/>
<path d="M195.024 266.009H107.261C106.357 266.005 105.491 265.643 104.854 265.002C104.216 264.362 103.857 263.494 103.857 262.59C103.857 261.686 104.216 260.819 104.854 260.178C105.491 259.538 106.357 259.176 107.261 259.172H195.024C199.434 259.11 199.478 266.071 195.024 266.009Z" fill="#E4E4E4"/>
<path d="M195.025 281.678H107.262C106.813 281.679 106.367 281.591 105.952 281.419C105.537 281.248 105.159 280.996 104.841 280.679C104.523 280.361 104.271 279.984 104.099 279.569C103.927 279.154 103.838 278.709 103.838 278.259C103.838 277.81 103.927 277.365 104.099 276.95C104.271 276.535 104.523 276.158 104.841 275.84C105.159 275.523 105.537 275.271 105.952 275.1C106.367 274.928 106.813 274.84 107.262 274.841H195.025C199.434 274.779 199.478 281.74 195.025 281.678Z" fill="#E4E4E4"/>
<path d="M195.024 297.347H107.261C106.354 297.347 105.485 296.987 104.843 296.346C104.202 295.705 103.842 294.835 103.842 293.928C103.842 293.022 104.202 292.152 104.843 291.511C105.485 290.87 106.354 290.51 107.261 290.51H195.024C199.433 290.448 199.477 297.409 195.024 297.347Z" fill="#E4E4E4"/>
<path d="M202.231 127.252C201.814 127.884 201.263 128.416 200.618 128.812C199.973 129.209 199.249 129.458 198.497 129.544C197.745 129.631 196.984 129.551 196.266 129.311C195.548 129.07 194.892 128.676 194.343 128.155L155.93 144.549L156.94 135.043L194.375 120.532C195.312 119.668 196.533 119.178 197.807 119.154C199.081 119.131 200.32 119.575 201.288 120.403C202.257 121.232 202.887 122.387 203.061 123.649C203.235 124.911 202.939 126.193 202.231 127.252Z" fill="#FFB6B6"/>
<path d="M124.043 126.369C124.043 126.369 119.294 130.981 124.007 136.916C128.721 142.851 152.025 146.71 155.762 147.445C159.5 148.179 180.289 134.04 180.289 134.04L182.303 123.797L159.097 131.757L124.043 126.369Z" fill="#4D9BD5"/>
<path d="M111.288 161.362L111.662 168.466C111.662 168.466 110.558 174.759 111.466 176.118C112.367 177.469 136.952 177.639 136.952 177.639C136.952 177.639 138.577 168.884 139.976 161.22L111.288 161.362Z" fill="#FFB6B6"/>
<path d="M181.976 255.296L187.116 254.258L185.645 233.501L178.059 235.033L181.976 255.296Z" fill="#FFB6B6"/>
<path d="M189.338 228.283L194.116 226.135L187.918 206.275L180.865 209.446L189.338 228.283Z" fill="#FFB6B6"/>
<path d="M193.499 217.093L184.502 222.187L162.313 186.537C146.737 197.03 131.505 202.054 116.149 204.736C110.958 205.66 105.665 205.191 104.668 199.908C104.621 199.661 104.584 199.413 104.557 199.163C103.944 193.393 111.123 185.996 112.036 178.936L131.685 177.757L134.108 180.863L156.831 166.895C157.934 166.231 159.157 165.793 160.431 165.604C161.704 165.416 163.002 165.481 164.25 165.797C165.498 166.112 166.671 166.672 167.702 167.442C168.732 168.213 169.6 169.181 170.255 170.288C170.406 170.536 170.545 170.789 170.674 171.049L193.499 217.093Z" fill="#2F2E41"/>
<path d="M187.993 241.075L177.698 242.031L159.031 203.862C140.521 207.045 123.058 208.065 107.954 204.214C105.474 203.56 103.352 201.956 102.045 199.749C100.739 197.543 100.353 194.911 100.972 192.422C101.031 192.178 101.099 191.936 101.176 191.697C102.984 186.183 107.715 182.281 111.444 176.216L138.675 176.629L135.634 187.122L162.088 183.699C163.366 183.547 164.661 183.648 165.9 183.999C167.139 184.349 168.296 184.941 169.304 185.74C170.313 186.539 171.154 187.53 171.778 188.656C172.402 189.782 172.796 191.02 172.94 192.299C172.975 192.586 172.998 192.874 173.009 193.164L187.993 241.075Z" fill="#2F2E41"/>
<path d="M121.921 113.553C128.028 113.553 132.979 108.603 132.979 102.498C132.979 96.3917 128.028 91.442 121.921 91.442C115.814 91.442 110.863 96.3917 110.863 102.498C110.863 108.603 115.814 113.553 121.921 113.553Z" fill="#FFB6B6"/>
<path d="M115.438 117.544L125.577 118.737C126.004 118.787 126.405 118.97 126.724 119.259C127.043 119.548 127.264 119.929 127.356 120.35L128.968 127.727L139.02 139.561C139.02 139.561 142.629 146.327 141.276 153.996C139.922 161.664 139.327 167.362 139.327 167.362C139.327 167.362 112.365 177.469 111.463 176.116C110.56 174.763 110.267 168.616 110.267 168.616L106.658 128.47C106.658 128.47 110.719 121.704 112.975 121.704C114.43 121.655 114.244 118.378 115.438 117.544Z" fill="#4D9BD5"/>
<path d="M139.602 169.83C141.024 169.83 142.176 168.447 142.176 166.742C142.176 165.036 141.024 163.653 139.602 163.653C138.18 163.653 137.027 165.036 137.027 166.742C137.027 168.447 138.18 169.83 139.602 169.83Z" fill="#4D9BD5"/>
<path d="M179.424 249.952L187.26 246.025L188.737 249.47L198.646 251.473C199.135 251.572 199.58 251.824 199.916 252.194C200.252 252.563 200.46 253.031 200.512 253.527C200.563 254.024 200.454 254.524 200.201 254.954C199.948 255.384 199.564 255.723 199.105 255.919L189.531 260.023L186.419 257.322L187.236 261.006L183.626 262.553L179.424 249.952Z" fill="#2F2E41"/>
<path d="M187.096 226.631L194.862 222.568L196.399 225.986L206.342 227.814C206.833 227.904 207.282 228.149 207.624 228.513C207.966 228.876 208.183 229.34 208.243 229.836C208.303 230.331 208.203 230.833 207.957 231.268C207.712 231.702 207.334 232.047 206.879 232.252L197.378 236.523L194.22 233.878L195.101 237.547L191.519 239.157L187.096 226.631Z" fill="#2F2E41"/>
<path d="M115.603 99.0298C112.682 99.0345 109.831 98.1351 107.441 96.4551L107.361 96.3992V96.3019C107.365 93.4767 108.488 90.768 110.487 88.7703C112.485 86.7725 115.194 85.6487 118.02 85.6455H122.507C125.333 85.6487 128.042 86.7725 130.04 88.7703C132.039 90.768 133.163 93.4767 133.166 96.3019C133.163 96.9486 132.907 97.5685 132.454 98.0297C132.001 98.4909 131.385 98.7569 130.739 98.7711L115.856 99.0276C115.772 99.029 115.687 99.0298 115.603 99.0298Z" fill="#2F2E41"/>
<path d="M160.112 185.028C159.358 185.097 158.598 185.001 157.886 184.745C157.174 184.49 156.526 184.081 155.989 183.548C155.451 183.015 155.037 182.371 154.776 181.661C154.515 180.95 154.412 180.191 154.476 179.437L117.662 159.713L125.714 154.558L160.446 174.697C161.706 174.888 162.853 175.534 163.668 176.513C164.483 177.493 164.91 178.737 164.869 180.011C164.828 181.284 164.321 182.498 163.444 183.423C162.567 184.348 161.382 184.919 160.112 185.028H160.112Z" fill="#FFB6B6"/>
<path d="M111.917 123.465C111.917 123.465 105.348 122.643 103.662 130.031C101.976 137.42 113.533 158.017 115.297 161.392C117.06 164.768 141.095 172.151 141.095 172.151L150.349 167.318L129.627 154.187L111.917 123.465Z" fill="#4D9BD5"/>
<path d="M123.633 87.2931C124.668 86.0247 123.859 84.146 123.01 82.7463C121.066 79.5391 119.026 76.3931 116.889 73.3083C114.218 69.4537 110.983 65.4239 106.385 64.4998C102.192 63.657 97.9674 65.6493 94.3599 67.9467C90.8132 70.2054 87.3199 73.0507 85.97 77.0325C84.6781 80.8431 85.5854 85.0748 87.1928 88.7634C88.5695 91.9226 90.4216 95.7004 88.4583 98.5326C87.5184 99.6964 86.255 100.556 84.8274 101.003C81.2017 102.411 77.3057 102.986 73.4277 102.685C78.7522 102.628 83.4129 108.094 88.5745 106.786C91.5016 106.045 93.451 103.316 94.8538 100.643C95.88 98.8476 96.5742 96.882 96.903 94.8405C97.2441 92.0713 96.5064 89.1572 97.4377 86.527C98.4068 83.7896 100.983 81.9581 103.584 80.6652C105.31 79.8067 107.193 79.0898 109.116 79.2353C114.566 79.6478 117.389 86.3555 122.562 88.1242" fill="#2F2E41"/>
<path d="M308.886 124.727H200.478C199.723 124.726 198.999 124.426 198.464 123.892C197.93 123.358 197.63 122.633 197.629 121.878V77.8992C197.63 77.1439 197.93 76.4197 198.464 75.8857C198.999 75.3516 199.723 75.0511 200.478 75.0503H308.886C309.641 75.0511 310.365 75.3516 310.9 75.8856C311.434 76.4197 311.734 77.1439 311.735 77.8992V121.878C311.734 122.633 311.434 123.358 310.9 123.892C310.365 124.426 309.641 124.726 308.886 124.727Z" fill="#4D9BD5"/>
<path d="M298.563 145.824H210.8C209.893 145.824 209.024 145.464 208.382 144.823C207.741 144.182 207.381 143.312 207.381 142.405C207.381 141.499 207.741 140.629 208.382 139.988C209.024 139.347 209.893 138.987 210.8 138.987H298.563C302.972 138.925 303.017 145.886 298.563 145.824Z" fill="#E4E4E4"/>
<path d="M298.564 161.493H210.801C210.352 161.494 209.907 161.406 209.491 161.234C209.076 161.063 208.698 160.811 208.38 160.494C208.062 160.176 207.81 159.799 207.638 159.384C207.466 158.969 207.377 158.524 207.377 158.074C207.377 157.625 207.466 157.18 207.638 156.765C207.81 156.35 208.062 155.973 208.38 155.655C208.698 155.338 209.076 155.086 209.491 154.915C209.907 154.743 210.352 154.655 210.801 154.656H298.564C302.973 154.594 303.017 161.555 298.564 161.493Z" fill="#E4E4E4"/>
<path d="M298.563 177.162H210.8C209.893 177.162 209.024 176.802 208.382 176.161C207.741 175.52 207.381 174.65 207.381 173.743C207.381 172.837 207.741 171.967 208.382 171.326C209.024 170.685 209.893 170.325 210.8 170.325H298.563C302.972 170.263 303.017 177.224 298.563 177.162Z" fill="#E4E4E4"/>
<path d="M424.569 16.0304H61.4228C60.8835 16.0298 60.3664 15.8153 59.9851 15.4341C59.6037 15.0528 59.3893 14.5359 59.3887 13.9967V2.03372C59.3893 1.49452 59.6037 0.977584 59.9851 0.596313C60.3664 0.215043 60.8835 0.000589609 61.4228 0H424.569C425.109 0.000589609 425.626 0.215043 426.007 0.596313C426.388 0.977584 426.603 1.49452 426.603 2.03372V13.9967C426.603 14.5359 426.388 15.0528 426.007 15.4341C425.626 15.8153 425.109 16.0298 424.569 16.0304Z" fill="#E6E7E8"/>
<path d="M71.1926 10.3191C72.7875 10.3191 74.0805 9.02635 74.0805 7.4317C74.0805 5.83704 72.7875 4.54431 71.1926 4.54431C69.5976 4.54431 68.3047 5.83704 68.3047 7.4317C68.3047 9.02635 69.5976 10.3191 71.1926 10.3191Z" fill="white"/>
<path d="M82.1555 10.3191C83.7504 10.3191 85.0434 9.02635 85.0434 7.4317C85.0434 5.83704 83.7504 4.54431 82.1555 4.54431C80.5605 4.54431 79.2676 5.83704 79.2676 7.4317C79.2676 9.02635 80.5605 10.3191 82.1555 10.3191Z" fill="white"/>
<path d="M93.1164 10.3191C94.7114 10.3191 96.0043 9.02635 96.0043 7.4317C96.0043 5.83704 94.7114 4.54431 93.1164 4.54431C91.5215 4.54431 90.2285 5.83704 90.2285 7.4317C90.2285 9.02635 91.5215 10.3191 93.1164 10.3191Z" fill="white"/>
<path d="M413.829 5.44434H401.207C400.96 5.44234 400.724 5.34297 400.55 5.16787C400.377 4.99277 400.279 4.75613 400.279 4.5095C400.279 4.26287 400.377 4.02623 400.55 3.85114C400.724 3.67604 400.96 3.57666 401.207 3.57466H413.829C414.076 3.57666 414.312 3.67604 414.486 3.85114C414.659 4.02623 414.757 4.26287 414.757 4.5095C414.757 4.75613 414.659 4.99277 414.486 5.16787C414.312 5.34297 414.076 5.44234 413.829 5.44434Z" fill="white"/>
<path d="M413.829 8.94998H401.206C400.959 8.94998 400.721 8.85149 400.545 8.67618C400.37 8.50086 400.271 8.26308 400.271 8.01514C400.271 7.76721 400.37 7.52943 400.545 7.35412C400.721 7.1788 400.959 7.08031 401.206 7.08031H413.829C413.953 7.07925 414.075 7.10265 414.189 7.14916C414.304 7.19566 414.408 7.26435 414.495 7.35126C414.583 7.43818 414.653 7.54159 414.7 7.65554C414.748 7.76948 414.772 7.8917 414.772 8.01514C414.772 8.13859 414.748 8.26081 414.7 8.37476C414.653 8.4887 414.583 8.59212 414.495 8.67903C414.408 8.76594 414.304 8.83463 414.189 8.88114C414.075 8.92764 413.953 8.95104 413.829 8.94998Z" fill="white"/>
<path d="M413.829 12.4557H401.206C400.959 12.4557 400.721 12.3572 400.545 12.1818C400.37 12.0065 400.271 11.7687 400.271 11.5208C400.271 11.2729 400.37 11.0351 400.545 10.8598C400.721 10.6845 400.959 10.586 401.206 10.586H413.829C414.077 10.586 414.315 10.6845 414.49 10.8598C414.666 11.0351 414.764 11.2729 414.764 11.5208C414.764 11.7687 414.666 12.0065 414.49 12.1818C414.315 12.3572 414.077 12.4557 413.829 12.4557Z" fill="white"/>
</g>
<defs>
<clipPath id="clip0_825:198">
<rect width="554" height="404" fill="white"/>
</clipPath>
</defs>
</svg>
