<svg width="40" height="40" viewBox="0 0 40 40" fill="none" xmlns="http://www.w3.org/2000/svg">
<path d="M19.9993 20C24.6017 20 28.3327 16.269 28.3327 11.6667C28.3327 7.06429 24.6017 3.33333 19.9993 3.33333C15.397 3.33333 11.666 7.06429 11.666 11.6667C11.666 16.269 15.397 20 19.9993 20Z" stroke="#343434" stroke-width="2"/>
<path d="M28.3331 36.6667H8.77644C8.30375 36.6668 7.83643 36.5663 7.40552 36.372C6.9746 36.1777 6.58994 35.894 6.27707 35.5397C5.96419 35.1853 5.73025 34.7685 5.59078 34.3168C5.45131 33.8652 5.40949 33.389 5.46811 32.92L6.11811 27.7133C6.26927 26.5037 6.85714 25.391 7.77116 24.5844C8.68519 23.7778 9.86241 23.3329 11.0814 23.3333H11.6664" stroke="#343434" stroke-width="2" stroke-linecap="round" stroke-linejoin="round"/>
<path d="M26.666 26.6667L30.416 30L36.666 23.3333" stroke="#343434" stroke-width="2" stroke-linecap="round" stroke-linejoin="round"/>
</svg>
