<svg width="32" height="32" viewBox="0 0 32 32" fill="none" xmlns="http://www.w3.org/2000/svg">
<circle cx="16" cy="16" r="16" fill="#4D9BD5"/>
<path d="M26.6562 10.2085C25.9091 10.5308 25.0962 10.7627 24.2588 10.853C25.1282 10.3365 25.7792 9.52052 26.0898 8.55812C25.274 9.04344 24.3802 9.38376 23.4482 9.56397C23.0587 9.14754 22.5875 8.81578 22.0642 8.58938C21.5408 8.36299 20.9764 8.2468 20.4062 8.24806C18.0991 8.24806 16.2436 10.1182 16.2436 12.4131C16.2436 12.7354 16.2827 13.0576 16.3462 13.3677C12.8916 13.187 9.81052 11.5366 7.76218 9.00978C7.38895 9.64726 7.19336 10.3731 7.19577 11.1118C7.19577 12.5571 7.93063 13.8316 9.05124 14.5811C8.39085 14.5551 7.74592 14.3735 7.16891 14.0513V14.1025C7.16891 16.1265 8.59958 17.8037 10.5063 18.1895C10.1483 18.2825 9.78002 18.33 9.41013 18.3311C9.13913 18.3311 8.88278 18.3042 8.62399 18.2676C9.15134 19.918 10.687 21.1167 12.5156 21.1558C11.0849 22.2764 9.29294 22.9356 7.34714 22.9356C6.99802 22.9356 6.67575 22.9234 6.34128 22.8843C8.18698 24.0684 10.3769 24.752 12.7353 24.752C20.3916 24.752 24.581 18.4092 24.581 12.9038C24.581 12.7232 24.581 12.5425 24.5688 12.3618C25.3794 11.7686 26.0898 11.0337 26.6562 10.2085Z" fill="#111F29"/>
</svg>
